SplineFontDB: 3.2
FontName: nasin-koko
FullName: nasin koko
FamilyName: nasin Koko
Weight: Regular
Copyright: Copyright (c) 2024, neverRare
Version: 000.000
ItalicAngle: 0
UnderlinePosition: 0
UnderlineWidth: 0
Ascent: 1000
Descent: 0
InvalidEm: 0
LayerCount: 2
Layer: 0 0 "Back" 1
Layer: 1 0 "Fore" 0
XUID: [1021 756 1414093791 30187]
FSType: 0
OS2Version: 0
OS2_WeightWidthSlopeOnly: 0
OS2_UseTypoMetrics: 1
CreationTime: 1707897574
ModificationTime: 1707958953
PfmFamily: 33
TTFWeight: 400
TTFWidth: 5
LineGap: 0
VLineGap: 0
OS2TypoAscent: 1000
OS2TypoAOffset: 0
OS2TypoDescent: 0
OS2TypoDOffset: 0
OS2TypoLinegap: 0
OS2WinAscent: 1000
OS2WinAOffset: 0
OS2WinDescent: 386
OS2WinDOffset: 0
HheadAscent: 1000
HheadAOffset: 0
HheadDescent: -386
HheadDOffset: 0
OS2CapHeight: 1000
OS2Vendor: 'PfEd'
MarkAttachClasses: 1
DEI: 91125

StartChar: uF1900
Encoding: 989440 989440 0
Width: 1000
Flags: HWO
LayerCount: 2
Fore
SplineSet
50 -49.9814453125 m 1
 949.98046875 -49.9814453125 l 1
 949.98046875 850 l 1
 50 850 l 1
 50 -49.9814453125 l 1
451.274414062 252.620117188 m 2
 397.455078125 252.620117188 353.841796875 205.241210938 353.841796875 146.80859375 c 0
 353.841796875 88.375 397.455078125 41.0107421875 451.274414062 41.0107421875 c 0
 505.077148438 41.0107421875 548.70703125 88.375 548.70703125 146.80859375 c 2
 548.70703125 252.620117188 l 1
 451.274414062 252.620117188 l 2
451.274414062 347.8359375 m 1
 451.274414062 347.8359375 l 1
 650.37890625 347.8359375 l 1
 650.37890625 148.927734375 l 1
 650.37890625 148.927734375 l 1
 650.37890625 148.927734375 l 1
 652.3515625 128.025390625 l 2
 660.145507812 87.5263671875 690.112304688 55.63671875 728.180664062 47.3544921875 c 2
 747.811523438 45.234375 l 1
 747.811523438 -49.9814453125 l 1
 685.953125 -49.9814453125 630.69921875 -21.8076171875 594.177734375 22.4091796875 c 2
 586.62890625 32.484375 l 1
 569.16796875 9.9677734375 l 2
 535.614257812 -27.0087890625 488.7734375 -49.9814453125 436.943359375 -49.9814453125 c 0
 334.896484375 -49.9814453125 252.169921875 39.0712890625 252.169921875 148.927734375 c 1
 252.169921875 148.927734375 l 1
 252.169921875 251.919921875 330.509765625 336.619140625 430.91015625 346.809570312 c 2
 451.274414062 347.8359375 l 1
446.1875 409.791992188 m 1
 446.1875 850 l 1
 552.163085938 850 l 1
 552.163085938 409.791992188 l 1
 446.1875 409.791992188 l 1
EndSplineSet
EndChar

StartChar: uF1901
Encoding: 989441 989441 1
Width: 1000
Flags: HW
LayerCount: 2
Fore
SplineSet
50 -49.9814453125 m 1
 949.98046875 -49.9814453125 l 1
 949.98046875 850 l 1
 50 850 l 1
 50 -49.9814453125 l 1
253.799804688 776.631835938 m 0
 253.799804688 817.151367188 286.653320312 850 327.16796875 850 c 0
 367.682617188 850 400.536132812 817.151367188 400.536132812 776.631835938 c 0
 400.536132812 736.112304688 367.682617188 703.263671875 327.16796875 703.263671875 c 0
 286.653320312 703.263671875 253.799804688 736.112304688 253.799804688 776.631835938 c 0
597.814453125 776.631835938 m 0
 597.814453125 817.151367188 630.66796875 850 671.182617188 850 c 0
 711.697265625 850 744.55078125 817.151367188 744.55078125 776.631835938 c 0
 744.55078125 736.112304688 711.697265625 703.263671875 671.182617188 703.263671875 c 0
 630.66796875 703.263671875 597.814453125 736.112304688 597.814453125 776.631835938 c 0
407.580078125 117.658203125 m 1
 413.220703125 102.526367188 l 2
 423.361328125 80.59765625 435.751953125 63.5546875 450.377929688 51.396484375 c 0
 465.017578125 39.240234375 481.35546875 33.1630859375 499.35546875 33.1630859375 c 0
 517.37109375 33.1630859375 533.641601562 39.240234375 548.15234375 51.396484375 c 0
 562.6640625 63.5546875 574.989257812 80.59765625 585.129882812 102.526367188 c 2
 590.770507812 117.658203125 l 1
 407.580078125 117.658203125 l 1
381.541015625 280.5859375 m 1
 381.509765625 279.87109375 l 1
 388.2265625 199.409179688 l 1
 610.124023438 199.409179688 l 1
 616.840820312 279.87109375 l 1
 616.809570312 280.5859375 l 1
 381.541015625 280.5859375 l 1
388.276367188 444.665039062 m 1
 381.509765625 363.62890625 l 1
 381.541015625 362.9140625 l 1
 616.809570312 362.9140625 l 1
 616.840820312 363.62890625 l 1
 610.07421875 444.665039062 l 1
 388.276367188 444.665039062 l 1
498.979492188 610.3359375 m 0
 480.979492188 610.3359375 464.708984375 604.2578125 450.198242188 592.1015625 c 0
 435.686523438 579.9453125 423.361328125 562.901367188 413.220703125 540.971679688 c 2
 407.791992188 526.418945312 l 1
 590.55859375 526.418945312 l 1
 585.129882812 540.971679688 l 2
 574.989257812 562.901367188 562.598632812 579.9453125 547.97265625 592.1015625 c 0
 533.33203125 604.2578125 516.995117188 610.3359375 498.979492188 610.3359375 c 0
498.817382812 693.481445312 m 0
 533.055664062 693.481445312 564.098632812 685.359375 591.927734375 669.1171875 c 0
 619.743164062 652.875976562 643.286132812 630.10546875 662.557617188 600.807617188 c 0
 672.177734375 586.158203125 680.719726562 570.1171875 688.155273438 552.6796875 c 2
 696.975585938 526.418945312 l 1
 871.721679688 526.418945312 l 1
 871.721679688 444.665039062 l 1
 716.703125 444.665039062 l 1
 718.920898438 432.776367188 l 2
 721.529296875 410.724609375 722.833007812 387.75390625 722.833007812 363.870117188 c 2
 722.78515625 362.9140625 l 1
 871.721679688 362.9140625 l 1
 871.721679688 281.163085938 l 1
 717.73046875 281.163085938 l 1
 722.78515625 280.5859375 l 1
 722.833007812 279.629882812 l 2
 722.833007812 255.744140625 721.529296875 232.775390625 718.920898438 210.721679688 c 2
 716.817382812 199.409179688 l 1
 871.721679688 199.409179688 l 1
 871.721679688 117.658203125 l 1
 697.171875 117.658203125 l 1
 688.139648438 90.8203125 l 2
 680.719726562 73.3828125 672.177734375 57.33984375 662.557617188 42.6904296875 c 0
 643.286132812 13.392578125 619.856445312 -9.376953125 592.270507812 -25.6171875 c 0
 564.684570312 -41.859375 533.771484375 -49.9814453125 499.533203125 -49.9814453125 c 0
 465.279296875 -49.9814453125 434.251953125 -41.859375 406.421875 -25.6171875 c 0
 378.606445312 -9.376953125 355.064453125 13.392578125 335.79296875 42.6904296875 c 0
 326.172851562 57.33984375 317.630859375 73.3828125 310.1953125 90.8203125 c 2
 301.178710938 117.658203125 l 1
 126.62890625 117.658203125 l 1
 126.62890625 199.409179688 l 1
 281.533203125 199.409179688 l 1
 279.4296875 210.721679688 l 2
 276.821289062 232.775390625 275.517578125 255.744140625 275.517578125 279.629882812 c 0
 275.533203125 279.948242188 275.548828125 280.265625 275.565429688 280.5859375 c 2
 277.114257812 281.163085938 l 1
 126.62890625 281.163085938 l 1
 126.62890625 362.9140625 l 1
 275.565429688 362.9140625 l 1
 275.517578125 363.870117188 l 2
 275.517578125 387.75390625 276.821289062 410.724609375 279.4296875 432.776367188 c 2
 281.647460938 444.665039062 l 1
 126.62890625 444.665039062 l 1
 126.62890625 526.418945312 l 1
 301.375 526.418945312 l 1
 310.1953125 552.6796875 l 2
 317.630859375 570.1171875 326.172851562 586.158203125 335.79296875 600.807617188 c 0
 355.064453125 630.10546875 378.4765625 652.875976562 406.080078125 669.1171875 c 0
 433.6484375 685.359375 464.578125 693.481445312 498.817382812 693.481445312 c 0
EndSplineSet
EndChar

StartChar: uF1902
Encoding: 989442 989442 2
Width: 1000
Flags: HW
LayerCount: 2
Fore
SplineSet
50 -49.9814453125 m 1
 949.98046875 -49.9814453125 l 1
 949.98046875 850 l 1
 50 850 l 1
 50 -49.9814453125 l 1
186.431640625 850 m 1
 500.348632812 478.6875 l 1
 813.549804688 849.159179688 l 1
 891.286132812 783.754882812 l 1
 566.868164062 400.008789062 l 1
 891.286132812 16.263671875 l 1
 813.549804688 -49.140625 l 1
 500.348632812 321.331054688 l 1
 186.431640625 -49.9814453125 l 1
 108.694335938 15.4228515625 l 1
 433.829101562 400.008789062 l 1
 108.694335938 784.595703125 l 1
 186.431640625 850 l 1
EndSplineSet
EndChar

StartChar: uF1903
Encoding: 989443 989443 3
Width: 1000
Flags: HW
LayerCount: 2
Fore
SplineSet
50 -49.9814453125 m 1
 949.98046875 -49.9814453125 l 1
 949.98046875 850 l 1
 50 850 l 1
 50 -49.9814453125 l 1
240.756835938 823.913085938 m 1
 369.641601562 823.913085938 l 1
 422.62890625 795.673828125 l 1
 452.610351562 776.3359375 l 1
 484.224609375 755.936523438 l 1
 604.224609375 670.689453125 681.90234375 564.23828125 698.666992188 447.619140625 c 1
 838.935546875 447.619140625 l 1
 717.454101562 570.7421875 l 1
 797.63671875 633.15625 l 1
 979.328125 400.03125 l 1
 797.63671875 166.862304688 l 1
 717.454101562 229.272460938 l 1
 838.935546875 352.399414062 l 1
 698.666992188 352.399414062 l 1
 681.90234375 235.78125 604.224609375 129.329101562 484.224609375 44.08203125 c 1
 452.610351562 23.6826171875 l 1
 422.62890625 4.3447265625 l 1
 369.641601562 -23.89453125 l 1
 240.756835938 -23.89453125 l 1
 240.756835938 352.399414062 l 1
 50 352.399414062 l 1
 50 447.619140625 l 1
 240.756835938 447.619140625 l 1
 240.756835938 823.913085938 l 1
346.684570312 728.53515625 m 1
 346.684570312 447.619140625 l 1
 591.333984375 447.619140625 l 1
 571.017578125 556.7890625 481.595703125 654.763671875 347.385742188 728.229492188 c 2
 346.780273438 728.53515625 l 1
 346.684570312 728.53515625 l 1
346.684570312 352.399414062 m 1
 346.684570312 71.4833984375 l 1
 346.780273438 71.4833984375 l 1
 347.385742188 71.7890625 l 2
 481.595703125 145.254882812 571.016601562 243.229492188 591.333984375 352.399414062 c 1
 346.684570312 352.399414062 l 1
EndSplineSet
EndChar

StartChar: uF1904
Encoding: 989444 989444 4
Width: 1000
Flags: HW
LayerCount: 2
Fore
SplineSet
50 -49.9814453125 m 1
 949.98046875 -49.9814453125 l 1
 949.98046875 850 l 1
 50 850 l 1
 50 -49.9814453125 l 1
730.950195312 520.038085938 m 0
 701.993164062 520.038085938 673.034179688 508.240234375 650.939453125 484.643554688 c 2
 570.930664062 399.194335938 l 1
 650.939453125 313.744140625 l 2
 695.126953125 266.55078125 766.770507812 266.55078125 810.958984375 313.744140625 c 0
 855.1484375 360.936523438 855.1484375 437.451171875 810.958984375 484.643554688 c 0
 788.866210938 508.240234375 759.907226562 520.038085938 730.950195312 520.038085938 c 0
269.03125 520.038085938 m 0
 240.07421875 520.038085938 211.115234375 508.240234375 189.020507812 484.643554688 c 0
 144.83203125 437.451171875 144.83203125 360.936523438 189.020507812 313.744140625 c 0
 233.209960938 266.55078125 304.853515625 266.55078125 349.040039062 313.744140625 c 2
 429.05078125 399.194335938 l 1
 349.040039062 484.643554688 l 2
 326.946289062 508.240234375 297.98828125 520.038085938 269.03125 520.038085938 c 0
265.774414062 615.221679688 m 0
 320.998046875 615.221679688 376.219726562 594.129882812 418.352539062 551.948242188 c 2
 499.990234375 470.216796875 l 1
 581.627929688 551.948242188 l 2
 623.760742188 594.129882812 678.982421875 615.221679688 734.206054688 615.221679688 c 0
 789.427734375 615.221679688 844.649414062 594.129882812 886.782226562 551.948242188 c 0
 971.046875 467.584960938 971.046875 330.802734375 886.782226562 246.4375 c 0
 802.515625 162.076171875 665.893554688 162.076171875 581.627929688 246.4375 c 2
 499.990234375 328.172851562 l 1
 418.352539062 246.4375 l 2
 334.087890625 162.076171875 197.46484375 162.076171875 113.198242188 246.4375 c 0
 28.93359375 330.802734375 28.93359375 467.584960938 113.198242188 551.948242188 c 0
 155.333007812 594.129882812 210.552734375 615.221679688 265.774414062 615.221679688 c 0
EndSplineSet
EndChar

StartChar: uF1905
Encoding: 989445 989445 5
Width: 1000
Flags: HW
LayerCount: 2
Fore
SplineSet
949.98046875 -49.9814453125 m 1
 949.98046875 850 l 1
 50 850 l 1
 50 -49.9814453125 l 1
 949.98046875 -49.9814453125 l 1
573.358398438 117.950195312 m 0
 573.358398438 77.4306640625 540.509765625 44.58203125 499.990234375 44.58203125 c 0
 459.470703125 44.58203125 426.622070312 77.4306640625 426.622070312 117.950195312 c 0
 426.622070312 158.469726562 459.470703125 191.318359375 499.990234375 191.318359375 c 0
 540.509765625 191.318359375 573.358398438 158.469726562 573.358398438 117.950195312 c 0
120.107421875 683.69921875 m 1
 226.083007812 683.69921875 l 1
 226.083007812 378.814453125 l 1
 773.897460938 378.814453125 l 1
 773.897460938 683.69921875 l 1
 879.874023438 683.69921875 l 1
 879.874023438 378.814453125 l 1
 879.874023438 284.250976562 l 1
 773.897460938 284.250976562 l 1
 120.107421875 284.250976562 l 1
 120.107421875 378.814453125 l 1
 120.107421875 683.69921875 l 1
EndSplineSet
EndChar

StartChar: uF1906
Encoding: 989446 989446 6
Width: 1000
Flags: HW
LayerCount: 2
Fore
SplineSet
50 -49.9814453125 m 1
 949.98046875 -49.9814453125 l 1
 949.98046875 850 l 1
 50 850 l 1
 50 -49.9814453125 l 1
173.5859375 850 m 1
 499.990234375 590.196289062 l 1
 499.990234375 590.196289062 l 1
 499.990234375 590.196289062 l 1
 826.395507812 850 l 1
 889.65625 770.487304688 l 1
 499.990234375 460.333984375 l 1
 110.325195312 770.487304688 l 1
 173.5859375 850 l 1
826.395507812 -49.9814453125 m 1
 499.990234375 209.822265625 l 1
 499.990234375 209.822265625 l 1
 499.990234375 209.822265625 l 1
 173.5859375 -49.9814453125 l 1
 110.325195312 29.5322265625 l 1
 499.990234375 339.684570312 l 1
 889.65625 29.5322265625 l 1
 826.395507812 -49.9814453125 l 1
EndSplineSet
EndChar

StartChar: uF1907
Encoding: 989447 989447 7
Width: 1000
Flags: HW
LayerCount: 2
Fore
SplineSet
50 -49.9814453125 m 1
 949.98046875 -49.9814453125 l 1
 949.98046875 850 l 1
 50 850 l 1
 50 -49.9814453125 l 1
193.420898438 850 m 1
 500.805664062 460.268554688 l 1
 808.185546875 850 l 1
 888.025390625 787.063476562 l 1
 553.76171875 363.244140625 l 1
 553.76171875 -49.9814453125 l 1
 447.849609375 -49.9814453125 l 1
 447.849609375 363.244140625 l 1
 113.5859375 787.063476562 l 1
 193.420898438 850 l 1
EndSplineSet
EndChar

StartChar: uF1908
Encoding: 989448 989448 8
Width: 1000
Flags: HW
LayerCount: 2
Fore
SplineSet
50 -49.9814453125 m 1
 951.611328125 -49.9814453125 l 1
 951.611328125 850 l 1
 50 850 l 1
 50 -49.9814453125 l 1
444.6875 804.348632812 m 1
 557.0703125 804.348632812 l 1
 751.430664062 92.61328125 l 1
 923.89453125 92.61328125 l 1
 923.89453125 -2.69921875 l 1
 669.991210938 -2.69921875 l 1
 500.88671875 658.639648438 l 1
 331.766601562 -2.69921875 l 1
 77.716796875 -2.69921875 l 1
 77.716796875 92.61328125 l 1
 250.327148438 92.61328125 l 1
 250.327148438 92.61328125 l 1
 444.6875 804.348632812 l 1
EndSplineSet
EndChar

StartChar: uF1909
Encoding: 989449 989449 9
Width: 1000
Flags: HW
LayerCount: 2
Fore
SplineSet
50 -49.9814453125 m 1
 949.98046875 -49.9814453125 l 1
 949.98046875 850 l 1
 50 850 l 1
 50 -49.9814453125 l 1
121.852539062 850 m 1
 571.727539062 400.008789062 l 1
 121.852539062 -49.9814453125 l 1
 50 21.8916015625 l 1
 428.025390625 400.008789062 l 1
 50 778.125 l 1
 121.852539062 850 l 1
529.452148438 850 m 1
 979.328125 400.008789062 l 1
 529.452148438 -49.9814453125 l 1
 457.599609375 21.8916015625 l 1
 835.625 400.008789062 l 1
 457.599609375 778.125 l 1
 529.452148438 850 l 1
EndSplineSet
EndChar

StartChar: uF190A
Encoding: 989450 989450 10
Width: 1000
Flags: HW
LayerCount: 2
Fore
SplineSet
50 -49.9814453125 m 1
 949.98046875 -49.9814453125 l 1
 949.98046875 850 l 1
 50 850 l 1
 50 -49.9814453125 l 1
447.001953125 823.913085938 m 1
 552.978515625 823.913085938 l 1
 552.978515625 447.698242188 l 1
 923.89453125 447.698242188 l 1
 923.89453125 352.3203125 l 1
 552.978515625 352.3203125 l 1
 552.978515625 -23.89453125 l 1
 447.001953125 -23.89453125 l 1
 447.001953125 352.3203125 l 1
 76.0859375 352.3203125 l 1
 76.0859375 447.698242188 l 1
 447.001953125 447.698242188 l 1
 447.001953125 823.913085938 l 1
EndSplineSet
EndChar

StartChar: uF190B
Encoding: 989451 989451 11
Width: 1000
Flags: HW
LayerCount: 2
Fore
SplineSet
50 850 m 1
 50 -49.982421875 l 1
 949.98046875 -49.982421875 l 1
 949.98046875 850 l 1
 50 850 l 1
753.403320312 843.474609375 m 0
 789.631835938 843.25 823.592773438 833.030273438 852.026367188 816.778320312 c 0
 886.4921875 797.083007812 917.080078125 766.077148438 934.6875 724.868164062 c 0
 943.051757812 705.317382812 948.595703125 683.138671875 949.752929688 658.791015625 c 0
 950.078125 652.083007812 950.061523438 645.208007812 949.6875 638.176757812 c 0
 948.7578125 621.26953125 945.724609375 603.791992188 940.344726562 585.938476562 c 0
 930.400390625 553.119140625 913.834960938 524.080078125 891.041015625 500.130859375 c 0
 869.456054688 477.435546875 843.401367188 460.528320312 814.70703125 448.935546875 c 0
 787.103515625 437.817382812 757.33203125 431.71875 726.861328125 429.811523438 c 0
 718.3671875 429.2734375 709.838867188 429.061523438 701.248046875 429.159179688 c 0
 681.079101562 429.37109375 659.051757812 431.34375 635.624023438 435.779296875 c 0
 612.927734375 440.067382812 588.439453125 445.33203125 562.891601562 451.479492188 c 1
 557.34765625 431.034179688 551.91796875 410.393554688 546.586914062 389.41015625 c 1
 548.72265625 397.823242188 540.29296875 364.643554688 542.446289062 373.056640625 c 1
 538.56640625 357.796875 534.604492188 342.193359375 530.510742188 326.493164062 c 1
 588.5546875 307.939453125 644.4609375 283.076171875 696.2421875 251.934570312 c 0
 760.33203125 213.375976562 810.891601562 169.713867188 849.548828125 126.280273438 c 0
 887.994140625 83.1064453125 911.6015625 43.619140625 925.817382812 15.8857421875 c 1
 836.09765625 -29.7333984375 l 1
 825.075195312 -7.7724609375 806.390625 24.55859375 775.071289062 60.623046875 c 0
 743.458007812 96.998046875 701.018554688 134.806640625 645.764648438 168.784179688 c 0
 601.939453125 195.750976562 554.250976562 217.6953125 504.442382812 234.245117188 c 1
 498.1484375 214.077148438 491.592773438 194.169921875 484.321289062 175.126953125 c 0
 472.388671875 143.807617188 458.594726562 113.545898438 442.030273438 85.6337890625 c 0
 425.333984375 57.4775390625 405.737304688 31.5693359375 382.209960938 9.28125 c 0
 364.618164062 -7.25 345.4609375 -19.7236328125 325.619140625 -28.494140625 c 0
 305.173828125 -37.55859375 284.370117188 -42.564453125 264.120117188 -44.341796875 c 0
 257.908203125 -44.8798828125 251.74609375 -45.125 245.6640625 -45.091796875 c 0
 209.079101562 -44.8642578125 175.1328125 -34.625 147.024414062 -18.6630859375 c 0
 112.8359375 0.755859375 82.3310546875 31.50390625 64.853515625 72.8193359375 c 0
 56.68359375 92.1552734375 51.23828125 114.23046875 50.1796875 138.638671875 c 0
 49.9677734375 143.807617188 49.9345703125 149.10546875 50.130859375 154.486328125 c 0
 50.783203125 172.6484375 53.8486328125 191.609375 59.7333984375 211.173828125 c 0
 69.6796875 243.928710938 86.2109375 272.802734375 109.428710938 296.396484375 c 0
 131.30859375 318.650390625 157.444335938 334.499023438 185.780273438 345.258789062 c 0
 213.267578125 355.66015625 242.533203125 361.170898438 271.865234375 363.438476562 c 0
 285.642578125 364.497070312 299.532226562 364.856445312 313.359375 364.661132812 c 0
 328.1953125 364.44921875 343.879882812 363.584960938 360.395507812 361.920898438 c 0
 382.959960938 359.639648438 405.426757812 356.1328125 427.813476562 352.025390625 c 1
 431.758789062 367.7421875 435.704101562 382.954101562 439.747070312 399.030273438 c 0
 441.133789062 404.541015625 442.53515625 410.05078125 443.9375 415.561523438 c 0
 449.317382812 436.67578125 455.122070312 458.212890625 461.203125 479.81640625 c 1
 426.052734375 490.967773438 389.857421875 503.896484375 353.3515625 518.977539062 c 0
 287.173828125 546.3203125 228.544921875 577.0859375 177.220703125 610.1015625 c 0
 126.302734375 642.865234375 89.2109375 673.629882812 63.9892578125 696.696289062 c 1
 132.155273438 770.782226562 l 1
 153.823242188 750.677734375 186.169921875 723.180664062 231.381835938 693.404296875 c 0
 277.033203125 663.323242188 330.0703125 634.654296875 390.93359375 608.780273438 c 0
 424.373046875 594.563476562 457.697265625 582.319335938 490.158203125 571.672851562 c 1
 494.104492188 582.64453125 498.1796875 593.536132812 502.500976562 604.296875 c 0
 516.033203125 637.818359375 531.686523438 670.459960938 550.336914062 701.147460938 c 0
 569.16796875 732.139648438 591.03125 761.0859375 616.791992188 786.942382812 c 0
 634.025390625 804.033203125 653.002929688 817.002929688 672.877929688 826.17578125 c 0
 693.176757812 835.543945312 714.029296875 840.787109375 734.506835938 842.668945312 c 0
 740.866210938 843.25390625 747.17578125 843.514648438 753.403320312 843.474609375 c 0
752.670898438 748.08984375 m 0
 749.62109375 748.122070312 746.572265625 747.990234375 743.5078125 747.682617188 c 0
 733.708007812 746.688476562 723.909179688 743.897460938 714.4375 739.060546875 c 0
 705.224609375 734.344726562 696.061523438 727.52734375 687.420898438 718.061523438 c 0
 668.541015625 698.098632812 652.041015625 675.161132812 637.416992188 649.580078125 c 0
 622.874023438 624.171875 610.287109375 596.32421875 598.971679688 566.455078125 c 0
 596.069335938 558.791992188 593.477539062 550.8515625 590.73828125 542.994140625 c 1
 612.715820312 537.662109375 633.732421875 533.096679688 653.39453125 529.331054688 c 0
 671.084960938 525.90625 687.35546875 524.521484375 701.817382812 524.537109375 c 0
 707.981445312 524.553710938 713.99609375 524.814453125 719.8828125 525.3203125 c 0
 741.159179688 527.2109375 759.958007812 532.297851562 775.7734375 539.798828125 c 0
 792.059570312 547.509765625 804.990234375 557.68359375 815.015625 569.600585938 c 0
 825.5 582.08984375 833.569335938 597.416992188 838.91796875 616.084960938 c 0
 841.885742188 626.33984375 843.401367188 635.71484375 843.923828125 644.2109375 c 0
 844.135742188 647.75 844.184570312 651.149414062 844.0859375 654.404296875 c 0
 843.759765625 666.087890625 841.559570312 676.501953125 838.266601562 685.641601562 c 0
 831.288085938 704.954101562 818.260742188 721.35546875 801.369140625 732.624023438 c 0
 787.4453125 741.916992188 770.522460938 747.889648438 752.670898438 748.08984375 c 0
312.4453125 269.282226562 m 0
 301.439453125 269.330078125 290.729492188 268.809570312 280.456054688 267.717773438 c 0
 258.380859375 265.336914062 239.077148438 260.396484375 222.9375 253.174804688 c 0
 206.549804688 245.853515625 194.044921875 236.559570312 184.345703125 225.423828125 c 0
 174.301757812 213.896484375 166.4765625 199.434570312 161.193359375 180.99609375 c 0
 157.899414062 169.6640625 156.383789062 159.474609375 155.975585938 150.42578125 c 0
 155.861328125 147.703125 155.845703125 145.094726562 155.911132812 142.583984375 c 0
 156.204101562 130.876953125 158.372070312 120.58984375 161.536132812 111.704101562 c 0
 168.334960938 92.693359375 181.01953125 76.666015625 197.55078125 65.6611328125 c 0
 211.1484375 56.6123046875 228.055664062 50.5146484375 246.447265625 50.287109375 c 0
 249.462890625 50.2529296875 252.51171875 50.3837890625 255.577148438 50.6611328125 c 0
 265.5390625 51.6064453125 275.6640625 54.3466796875 285.560546875 59.1728515625 c 0
 295.114257812 63.818359375 304.684570312 70.5693359375 313.782226562 79.9267578125 c 0
 328.9609375 95.154296875 342.4765625 113.807617188 354.75390625 135.963867188 c 0
 366.982421875 158.0234375 377.709960938 183.067382812 387.57421875 210.84765625 c 0
 393.118164062 226.500976562 398.252929688 242.853515625 403.193359375 259.61328125 c 1
 385.813476562 262.678710938 368.3515625 265.369140625 350.80859375 267.162109375 c 0
 337.047851562 268.564453125 324.25 269.233398438 312.4453125 269.282226562 c 0
EndSplineSet
EndChar

StartChar: uF190C
Encoding: 989452 989452 12
Width: 1000
Flags: HW
LayerCount: 2
Fore
SplineSet
50 -49.9814453125 m 1
 949.98046875 -49.9814453125 l 1
 949.98046875 850 l 1
 50 850 l 1
 50 -49.9814453125 l 1
499.436523438 754.70703125 m 0
 446.756835938 754.70703125 399.182617188 745.995117188 356.743164062 728.565429688 c 0
 314.306640625 711.138671875 278.267578125 686.705078125 248.631835938 655.270507812 c 0
 218.995117188 623.833007812 196.125976562 586.415039062 180.029296875 543.016601562 c 0
 163.930664062 499.618164062 155.880859375 452.291992188 155.880859375 401.034179688 c 0
 155.880859375 349.09375 163.930664062 301.42578125 180.029296875 258.02734375 c 0
 196.125976562 214.62890625 218.995117188 177.212890625 248.631835938 145.775390625 c 0
 278.267578125 114.336914062 314.306640625 89.7333984375 356.743164062 71.96484375 c 0
 399.182617188 54.197265625 446.756835938 45.3115234375 499.436523438 45.3115234375 c 0
 552.131835938 45.3115234375 599.868164062 54.197265625 642.682617188 71.96484375 c 0
 685.498046875 89.7333984375 721.708984375 114.336914062 751.348632812 145.775390625 c 0
 780.989257812 177.212890625 803.848632812 214.62890625 819.956054688 258.02734375 c 0
 836.048828125 301.42578125 844.1015625 349.09375 844.1015625 401.034179688 c 0
 844.1015625 452.291992188 836.048828125 499.618164062 819.956054688 543.016601562 c 0
 803.848632812 586.415039062 780.989257812 623.833007812 751.348632812 655.270507812 c 0
 721.708984375 686.705078125 685.498046875 711.138671875 642.682617188 728.565429688 c 0
 599.868164062 745.995117188 552.131835938 754.70703125 499.436523438 754.70703125 c 0
499.272460938 850 m 0
 568.173828125 850 630.618164062 838.9453125 686.58984375 816.8359375 c 0
 742.561523438 794.725585938 789.940429688 763.728515625 828.696289062 723.845703125 c 0
 867.450195312 683.962890625 897.350585938 636.4921875 918.399414062 581.435546875 c 0
 939.448242188 526.377929688 949.98046875 466.336914062 949.98046875 401.309570312 c 0
 949.98046875 335.4140625 939.448242188 274.939453125 918.399414062 219.881835938 c 0
 897.350585938 164.827148438 867.450195312 117.356445312 828.696289062 77.4736328125 c 0
 789.940429688 37.5888671875 742.561523438 6.3759765625 686.58984375 -16.166015625 c 0
 630.618164062 -38.708984375 568.173828125 -49.9814453125 499.272460938 -49.9814453125 c 0
 430.372070312 -49.9814453125 368.172851562 -38.708984375 312.674804688 -16.166015625 c 0
 257.171875 6.3759765625 210.044921875 37.5888671875 171.290039062 77.4736328125 c 0
 132.534179688 117.356445312 102.631835938 164.827148438 81.5791015625 219.881835938 c 0
 60.5263671875 274.939453125 50 335.4140625 50 401.309570312 c 0
 50 466.336914062 60.5263671875 526.377929688 81.5791015625 581.435546875 c 0
 102.631835938 636.4921875 132.534179688 683.962890625 171.290039062 723.845703125 c 0
 210.044921875 763.728515625 257.171875 794.725585938 312.674804688 816.8359375 c 0
 368.172851562 838.9453125 430.372070312 850 499.272460938 850 c 0
EndSplineSet
EndChar

StartChar: uF190D
Encoding: 989453 989453 13
Width: 1000
Flags: HW
LayerCount: 2
Fore
SplineSet
50 -49.9814453125 m 1
 949.98046875 -49.9814453125 l 1
 949.98046875 850 l 1
 50 850 l 1
 50 -49.9814453125 l 1
194.583007812 210.8828125 m 1
 92.390625 234.295898438 l 1
 109.133789062 295.38671875 l 1
 173.6171875 468.012695312 324.591796875 589.135742188 500.528320312 589.135742188 c 0
 676.481445312 589.135742188 827.439453125 468.012695312 891.921875 295.38671875 c 1
 907.590820312 238.256835938 l 1
 805.462890625 214.861328125 l 1
 794.327148438 258.279296875 l 1
 745.919921875 396.68359375 632.606445312 493.7890625 500.528320312 493.7890625 c 0
 368.465820312 493.7890625 255.153320312 396.68359375 206.74609375 258.279296875 c 1
 194.583007812 210.8828125 l 1
EndSplineSet
EndChar

StartChar: uF190E
Encoding: 989454 989454 14
Width: 1000
Flags: HW
LayerCount: 2
Fore
SplineSet
50 -49.9814453125 m 1
 949.98046875 -49.9814453125 l 1
 949.98046875 850 l 1
 50 850 l 1
 50 -49.9814453125 l 1
552.978515625 728.579101562 m 1
 552.978515625 431.541015625 l 1
 817.91796875 431.541015625 l 1
 817.91796875 728.579101562 l 1
 552.978515625 728.579101562 l 1
182.0625 728.579101562 m 1
 182.0625 431.541015625 l 1
 447.001953125 431.541015625 l 1
 447.001953125 728.579101562 l 1
 182.0625 728.579101562 l 1
76.0859375 823.913085938 m 1
 923.89453125 823.913085938 l 1
 923.89453125 336.211914062 l 1
 552.978515625 336.211914062 l 1
 552.978515625 -49.9814453125 l 1
 447.001953125 -49.9814453125 l 1
 447.001953125 336.211914062 l 1
 76.0859375 336.211914062 l 1
 76.0859375 823.913085938 l 1
EndSplineSet
EndChar

StartChar: uF190F
Encoding: 989455 989455 15
Width: 1000
Flags: HW
LayerCount: 2
Fore
SplineSet
50 -49.9814453125 m 1
 949.98046875 -49.9814453125 l 1
 949.98046875 850 l 1
 50 850 l 1
 50 -49.9814453125 l 1
426.622070312 484.790039062 m 0
 426.622070312 525.309570312 459.475585938 558.158203125 499.990234375 558.158203125 c 0
 540.504882812 558.158203125 573.358398438 525.309570312 573.358398438 484.790039062 c 0
 573.358398438 444.270507812 540.504882812 411.421875 499.990234375 411.421875 c 0
 459.475585938 411.421875 426.622070312 444.270507812 426.622070312 484.790039062 c 0
76.0859375 607.0703125 m 1
 182.0625 607.0703125 l 1
 182.0625 302.850585938 l 1
 817.91796875 302.850585938 l 1
 817.91796875 607.0703125 l 1
 923.89453125 607.0703125 l 1
 923.89453125 207.622070312 l 1
 76.0859375 207.622070312 l 1
 76.0859375 607.0703125 l 1
EndSplineSet
EndChar

StartChar: uF1910
Encoding: 989456 989456 16
Width: 1000
Flags: HW
LayerCount: 2
Fore
SplineSet
50 850 m 1
 50 -49.9814453125 l 1
 949.98046875 -49.9814453125 l 1
 949.98046875 850 l 1
 50 850 l 1
414.96875 817.375976562 m 0
 449.08203125 817 481.923828125 811.5546875 510.991210938 799.896484375 c 1
 475.450195312 711.431640625 l 1
 450.0703125 721.62109375 385.180664062 724.76953125 334.63671875 712.03515625 c 0
 309.366210938 705.66015625 287.411132812 695.795898438 274.45703125 685.998046875 c 0
 261.504882812 676.181640625 258.52734375 669.791015625 258.030273438 662.764648438 c 0
 257.3125 652.606445312 258.747070312 631.345703125 262.202148438 604.477539062 c 1
 323.899414062 634.525390625 400.774414062 650.537109375 491.708007812 650.552734375 c 0
 504.473632812 650.552734375 516.78125 649.18359375 528.643554688 646.75390625 c 1
 574.458984375 676.981445312 630.239257812 697.475585938 693.942382812 694.78515625 c 0
 775.685546875 691.328125 833.091796875 630.15625 866.08203125 563.375976562 c 0
 899.072265625 496.578125 913.625 419.3125 912.413085938 352.80859375 c 0
 910.384765625 241.583007812 875.8203125 103.994140625 849.599609375 17.74609375 c 1
 758.329101562 45.4287109375 l 1
 782.904296875 126.297851562 815.364257812 262.712890625 817.0390625 354.538085938 c 0
 817.953125 404.655273438 805.028320312 471.616210938 780.546875 521.180664062 c 0
 756.063476562 570.76171875 726.004882812 598.021484375 689.9140625 599.537109375 c 0
 669.079101562 600.41796875 649.388671875 597.172851562 630.78515625 591.270507812 c 1
 641.786132812 580.821289062 651.8515625 569.586914062 660.69921875 557.799804688 c 0
 698.637695312 507.2734375 720.198242188 447.453125 720.77734375 391.204101562 c 0
 721.282226562 341.983398438 703.68359375 291.017578125 670.241210938 248.708007812 c 0
 674.095703125 244.598632812 677.860351562 240.376953125 681.434570312 235.926757812 c 0
 706.350585938 204.915039062 721.198242188 155.921875 703.173828125 111.265625 c 0
 677.04296875 46.5224609375 615.68359375 12.5615234375 555.393554688 -4.0693359375 c 0
 495.103515625 -20.68359375 431.733398438 -22.1181640625 380.30078125 -14.8125 c 0
 233.237304688 6.087890625 107.688476562 118.48828125 91.3076171875 278.071289062 c 0
 81.087890625 377.640625 106.580078125 473.100585938 173.614257812 541.577148438 c 1
 164.163085938 592.591796875 160.620117188 637.493164062 162.877929688 669.482421875 c 0
 165.655273438 708.83984375 189.220703125 741.024414062 216.853515625 761.958007812 c 0
 244.484375 782.875976562 277.149414062 795.854492188 311.311523438 804.462890625 c 0
 345.471679688 813.0703125 380.858398438 817.767578125 414.96875 817.375976562 c 0
431.999023438 552.076171875 m 1
 367.369140625 545.668945312 317.541992188 529.055664062 280.524414062 505.740234375 c 1
 287.752929688 475.399414062 296.591796875 444.14453125 307.639648438 414.682617188 c 0
 326.084960938 365.509765625 349.950195312 320.299804688 375.936523438 290.299804688 c 0
 401.920898438 260.267578125 426.313476562 246.60546875 454.126953125 246.474609375 c 0
 474.977539062 246.393554688 493.413085938 248.659179688 510.006835938 252.5078125 c 1
 487.483398438 268.208007812 464.5390625 284.8046875 443.5078125 304.745117188 c 0
 413.556640625 333.11328125 386.041992188 370.157226562 382.459960938 417.975585938 c 0
 380.169921875 448.498046875 389.43359375 474.697265625 403.419921875 503.81640625 c 0
 411.047851562 519.697265625 420.694335938 535.952148438 431.999023438 552.076171875 c 1
545.1484375 538.365234375 m 0
 541.36328125 534.697265625 537.559570312 531.044921875 534.0078125 527.196289062 c 0
 514.364257812 505.935546875 498.98046875 482.474609375 489.415039062 462.567382812 c 0
 479.852539062 442.676757812 477.612304688 424.7265625 477.583984375 425.084960938 c 1
 478.6953125 410.264648438 487.991210938 393.944335938 509.158203125 373.873046875 c 0
 530.325195312 353.803710938 561.27734375 332.8203125 592.760742188 310.990234375 c 0
 594.629882812 309.684570312 596.501953125 308.348632812 598.377929688 307.044921875 c 0
 617.514648438 332.689453125 625.674804688 362.885742188 625.39453125 390.2265625 c 0
 625.084960938 420.307617188 609.932617188 466.594726562 584.401367188 500.588867188 c 0
 572.578125 516.337890625 559.376953125 529.072265625 545.1484375 538.365234375 c 0
204.485351562 420.911132812 m 1
 187.119140625 383.39453125 180.939453125 339.015625 186.200195312 287.7890625 c 0
 198.080078125 172.063476562 285.143554688 94.9775390625 393.737304688 79.5380859375 c 0
 431.59765625 74.1572265625 485.84375 75.625 530.017578125 87.8037109375 c 0
 574.19140625 99.9833984375 604.141601562 120.73828125 614.706054688 146.905273438 c 0
 620.0859375 160.243164062 619.19921875 161.155273438 607.048828125 176.268554688 c 0
 604.471679688 179.481445312 600.9609375 183.01953125 597.217773438 186.654296875 c 0
 557.834960938 164.481445312 509.827148438 150.93359375 453.719726562 151.177734375 c 0
 392.530273438 151.438476562 341.169921875 184.764648438 303.794921875 227.936523438 c 0
 266.41796875 271.110351562 239.3125 325.271484375 218.321289062 381.227539062 c 0
 213.35546875 394.46484375 208.779296875 407.721679688 204.485351562 420.911132812 c 1
EndSplineSet
EndChar

StartChar: uF1911
Encoding: 989457 989457 17
Width: 1000
Flags: HW
LayerCount: 2
Fore
SplineSet
50 -49.9814453125 m 1
 949.98046875 -49.9814453125 l 1
 949.98046875 850 l 1
 50 850 l 1
 50 -49.9814453125 l 1
500.366210938 754.702148438 m 0
 458.561523438 754.702148438 420.819335938 747.741210938 387.134765625 733.801757812 c 0
 353.465820312 719.844726562 324.862304688 700.313476562 301.345703125 675.155273438 c 0
 277.828125 650.014648438 259.68359375 620.081054688 246.907226562 585.352539062 c 0
 234.131835938 550.641601562 227.744140625 512.767578125 227.744140625 471.762695312 c 0
 227.744140625 430.220703125 234.131835938 392.084960938 246.907226562 357.357421875 c 0
 259.68359375 322.646484375 277.828125 292.712890625 301.345703125 267.5546875 c 0
 324.862304688 242.4140625 353.465820312 222.735351562 387.134765625 208.518554688 c 0
 420.819335938 194.301757812 458.561523438 187.192382812 500.366210938 187.192382812 c 0
 542.184570312 187.192382812 580.059570312 194.301757812 614.037109375 208.518554688 c 0
 647.999023438 222.735351562 676.7421875 242.4140625 700.268554688 267.5546875 c 0
 723.778320312 292.712890625 741.924804688 322.646484375 754.708984375 357.357421875 c 0
 767.47265625 392.084960938 773.866210938 430.220703125 773.866210938 471.762695312 c 0
 773.866210938 512.767578125 767.47265625 550.641601562 754.708984375 585.352539062 c 0
 741.924804688 620.081054688 723.778320312 650.014648438 700.268554688 675.155273438 c 0
 676.7421875 700.313476562 647.999023438 719.844726562 614.037109375 733.801757812 c 0
 580.059570312 747.741210938 542.184570312 754.702148438 500.366210938 754.702148438 c 0
500.202148438 850 m 0
 558.211914062 850 610.791992188 840.690429688 657.927734375 822.071289062 c 0
 705.0625 803.436523438 744.942382812 777.33203125 777.58203125 743.73046875 c 0
 810.206054688 710.143554688 835.395507812 670.151367188 853.118164062 623.78125 c 0
 870.840820312 577.396484375 879.7109375 526.822265625 879.7109375 472.040039062 c 0
 879.7109375 416.541015625 870.840820312 365.590820312 853.118164062 319.223632812 c 0
 835.395507812 272.837890625 810.206054688 232.861328125 777.58203125 199.2578125 c 2
 761.799804688 186.231445312 l 1
 897.807617188 12.7578125 l 1
 817.869140625 -49.9814453125 l 1
 676.643554688 130.12890625 l 1
 657.927734375 120.379882812 l 2
 610.791992188 101.384765625 558.211914062 91.8955078125 500.202148438 91.8955078125 c 0
 442.192382812 91.8955078125 389.807617188 101.384765625 343.08203125 120.379882812 c 2
 324.822265625 129.950195312 l 1
 183.748046875 -49.9814453125 l 1
 103.802734375 12.7578125 l 1
 239.799804688 186.19921875 l 1
 224.036132812 199.2578125 l 2
 191.400390625 232.861328125 166.223632812 272.837890625 148.497070312 319.223632812 c 0
 130.770507812 365.590820312 121.90625 416.541015625 121.90625 472.040039062 c 0
 121.90625 526.822265625 130.770507812 577.396484375 148.497070312 623.78125 c 0
 166.223632812 670.151367188 191.400390625 710.143554688 224.036132812 743.73046875 c 0
 256.66796875 777.33203125 296.349609375 803.436523438 343.08203125 822.071289062 c 0
 389.807617188 840.690429688 442.192382812 850 500.202148438 850 c 0
EndSplineSet
EndChar

StartChar: uF1912
Encoding: 989458 989458 18
Width: 1000
Flags: HW
LayerCount: 2
Fore
SplineSet
50 -49.9814453125 m 1
 951.611328125 -49.9814453125 l 1
 951.611328125 850 l 1
 50 850 l 1
 50 -49.9814453125 l 1
513.833007812 300.309570312 m 1
 500.447265625 299.169921875 l 1
 487.74609375 300.26171875 l 1
 324.54296875 67.162109375 l 1
 677.068359375 67.162109375 l 1
 677.068359375 67.162109375 l 1
 677.068359375 67.162109375 l 1
 513.833007812 300.309570312 l 1
500.609375 648.564453125 m 0
 481.486328125 648.564453125 464.236328125 645.400390625 448.829101562 639.05859375 c 0
 433.436523438 632.69921875 420.362304688 623.813476562 409.600585938 612.352539062 c 0
 398.83984375 600.90625 390.557617188 587.27734375 384.705078125 571.478515625 c 0
 378.868164062 555.680664062 375.94921875 538.430664062 375.94921875 519.778320312 c 0
 375.94921875 500.848632812 378.868164062 483.501953125 384.705078125 467.686523438 c 0
 390.557617188 451.888671875 398.83984375 438.258789062 409.600585938 426.813476562 c 0
 420.362304688 415.3671875 433.436523438 406.400390625 448.829101562 399.927734375 c 0
 464.236328125 393.456054688 481.486328125 390.2265625 500.609375 390.2265625 c 0
 519.717773438 390.2265625 537.049804688 393.456054688 552.586914062 399.927734375 c 0
 568.109375 406.400390625 581.249023438 415.3671875 592.010742188 426.813476562 c 0
 602.770507812 438.258789062 611.053710938 451.888671875 616.90625 467.686523438 c 0
 622.743164062 483.501953125 625.662109375 500.848632812 625.662109375 519.778320312 c 0
 625.662109375 538.430664062 622.743164062 555.680664062 616.90625 571.478515625 c 0
 611.053710938 587.27734375 602.770507812 600.90625 592.010742188 612.352539062 c 0
 581.249023438 623.813476562 568.109375 632.69921875 552.586914062 639.05859375 c 0
 537.049804688 645.400390625 519.717773438 648.564453125 500.609375 648.564453125 c 0
447.8984375 848.369140625 m 1
 553.711914062 848.369140625 l 1
 553.711914062 734.14453125 l 1
 592.076171875 723.3984375 l 2
 619.44921875 712.573242188 642.618164062 697.411132812 661.580078125 677.895507812 c 0
 680.525390625 658.362304688 695.149414062 635.12890625 705.453125 608.1953125 c 2
 716.736328125 567.043945312 l 1
 874.982421875 567.043945312 l 1
 874.982421875 471.747070312 l 1
 716.506835938 471.747070312 l 1
 705.453125 431.248046875 l 2
 695.149414062 404.296875 680.525390625 381.063476562 661.580078125 361.547851562 c 0
 652.090820312 351.782226562 641.55859375 343.091796875 629.983398438 335.446289062 c 2
 617.232421875 328.809570312 l 1
 856.36328125 -23.89453125 l 1
 145.248046875 -23.89453125 l 1
 384.346679688 328.744140625 l 1
 371.546875 335.446289062 l 2
 360.021484375 343.091796875 349.520507812 351.782226562 340.03125 361.547851562 c 0
 321.0859375 381.063476562 306.461914062 404.296875 296.158203125 431.248046875 c 2
 285.087890625 471.747070312 l 1
 126.62890625 471.747070312 l 1
 126.62890625 567.043945312 l 1
 284.875 567.043945312 l 1
 296.158203125 608.1953125 l 2
 306.461914062 635.12890625 321.0859375 658.362304688 340.03125 677.895507812 c 0
 358.9921875 697.411132812 382.047851562 712.573242188 409.192382812 723.3984375 c 2
 447.8984375 734.306640625 l 1
 447.8984375 848.369140625 l 1
EndSplineSet
EndChar

StartChar: uF1913
Encoding: 989459 989459 19
Width: 1000
Flags: HW
LayerCount: 2
Fore
SplineSet
50 -49.9814453125 m 1
 949.98046875 -49.9814453125 l 1
 949.98046875 850 l 1
 50 850 l 1
 50 -49.9814453125 l 1
520.174804688 754.702148438 m 0
 505.435546875 754.702148438 492.131835938 752.078125 480.263671875 746.827148438 c 0
 468.409179688 741.578125 458.318359375 734.208984375 450.03515625 724.719726562 c 0
 441.752929688 715.24609375 435.362304688 703.963867188 430.860351562 690.888671875 c 0
 426.361328125 677.796875 424.095703125 663.530273438 424.095703125 648.075195312 c 0
 424.095703125 632.422851562 426.361328125 618.04296875 430.860351562 604.966796875 c 0
 435.362304688 591.874023438 441.752929688 580.591796875 450.03515625 571.120117188 c 0
 458.318359375 561.646484375 468.409179688 554.228515625 480.263671875 548.864257812 c 0
 492.131835938 543.5 505.435546875 540.827148438 520.174804688 540.827148438 c 0
 534.897460938 540.827148438 548.25 543.5 560.217773438 548.864257812 c 0
 572.184570312 554.228515625 582.325195312 561.646484375 590.608398438 571.120117188 c 0
 598.890625 580.591796875 605.282226562 591.874023438 609.78125 604.966796875 c 0
 614.28125 618.04296875 616.532226562 632.422851562 616.532226562 648.075195312 c 0
 616.532226562 663.530273438 614.28125 677.796875 609.78125 690.888671875 c 0
 605.282226562 703.963867188 598.890625 715.24609375 590.608398438 724.719726562 c 0
 582.325195312 734.208984375 572.184570312 741.578125 560.217773438 746.827148438 c 0
 548.25 752.078125 534.897460938 754.702148438 520.174804688 754.702148438 c 0
519.995117188 850 m 0
 550.924804688 850 578.934570312 845.02734375 604.05859375 835.098632812 c 0
 629.18359375 825.15234375 650.444335938 811.228515625 667.840820312 793.311523438 c 0
 685.236328125 775.376953125 698.654296875 754.05078125 708.09375 729.30078125 c 0
 717.551757812 704.567382812 722.279296875 677.584960938 722.279296875 648.352539062 c 0
 722.279296875 618.744140625 717.551757812 591.565429688 708.09375 566.814453125 c 0
 698.654296875 542.08203125 685.236328125 520.740234375 667.840820312 502.821289062 c 0
 650.444335938 484.88671875 629.18359375 470.866210938 604.05859375 460.741210938 c 0
 578.934570312 450.600585938 550.924804688 445.530273438 519.995117188 445.530273438 c 0
 489.08203125 445.530273438 461.170898438 450.600585938 436.258789062 460.741210938 c 0
 423.80078125 465.794921875 412.291015625 471.84375 401.708984375 478.85546875 c 2
 379.845703125 496.96875 l 1
 348.0859375 469.546875 l 2
 327.787109375 447.682617188 312.118164062 421.661132812 301.08203125 391.481445312 c 0
 290.044921875 361.287109375 284.532226562 328.369140625 284.532226562 292.729492188 c 0
 284.532226562 256.599609375 290.044921875 223.4375 301.08203125 193.258789062 c 0
 312.118164062 163.079101562 327.787109375 137.057617188 348.0859375 115.177734375 c 0
 368.401367188 93.314453125 393.084960938 76.212890625 422.170898438 63.853515625 c 0
 436.71484375 57.6748046875 452.138671875 53.02734375 468.424804688 49.9462890625 c 2
 520.028320312 45.33984375 l 1
 562.826171875 49.9462890625 l 2
 576.391601562 53.02734375 589.270507812 57.6748046875 601.43359375 63.853515625 c 0
 625.776367188 76.212890625 646.350585938 93.314453125 663.209960938 115.177734375 c 0
 680.052734375 137.057617188 693.045898438 163.079101562 702.208984375 193.258789062 c 2
 708.454101562 222.115234375 l 1
 431.3671875 222.115234375 l 1
 431.3671875 317.413085938 l 1
 819.369140625 317.413085938 l 1
 821.1796875 293.005859375 l 1
 815.977539062 222.115234375 l 1
 815.896484375 220.975585938 l 2
 812.374023438 197.986328125 807.109375 176.041015625 800.065429688 155.123046875 c 0
 785.995117188 113.270507812 765.991210938 77.1904296875 740.083007812 46.880859375 c 0
 714.17578125 16.572265625 682.513671875 -7.1513671875 645.080078125 -24.2861328125 c 0
 626.362304688 -32.845703125 606.5703125 -39.2685546875 585.701171875 -43.556640625 c 2
 521.381835938 -49.8349609375 l 1
 521.381835938 -49.8505859375 l 1
 520.321289062 -49.931640625 l 1
 519.848632812 -49.9814453125 l 1
 519.81640625 -49.9814453125 l 1
 519.783203125 -49.9814453125 l 2
 467.479492188 -49.9814453125 420.280273438 -41.421875 378.149414062 -24.2861328125 c 0
 336.038085938 -7.1513671875 300.266601562 16.572265625 270.853515625 46.880859375 c 0
 241.44140625 77.1904296875 218.74609375 113.270507812 202.768554688 155.123046875 c 0
 186.791015625 196.958984375 178.801757812 242.920898438 178.801757812 293.005859375 c 0
 178.801757812 342.422851562 186.791015625 388.05859375 202.768554688 429.89453125 c 0
 218.74609375 471.747070312 241.44140625 507.811523438 270.853515625 538.120117188 c 0
 285.560546875 553.283203125 301.84765625 566.749023438 319.734375 578.522460938 c 2
 328.163085938 582.890625 l 1
 321.918945312 605.765625 l 2
 319.553710938 619.34765625 318.36328125 633.547851562 318.36328125 648.352539062 c 0
 318.36328125 677.584960938 323.091796875 704.567382812 332.547851562 729.30078125 c 0
 341.98828125 754.05078125 355.407226562 775.376953125 372.803710938 793.311523438 c 0
 390.19921875 811.228515625 411.345703125 825.15234375 436.258789062 835.098632812 c 0
 461.170898438 845.02734375 489.08203125 850 519.995117188 850 c 0
EndSplineSet
EndChar

StartChar: uF1914
Encoding: 989460 989460 20
Width: 1000
Flags: HW
LayerCount: 2
Fore
SplineSet
50 -49.9814453125 m 1
 949.98046875 -49.9814453125 l 1
 949.98046875 850 l 1
 50 850 l 1
 50 -49.9814453125 l 1
646.025390625 562.298828125 m 1
 535.533203125 562.298828125 430.763671875 513.827148438 336.853515625 427.057617188 c 1
 309.755859375 399.194335938 l 1
 336.853515625 371.331054688 l 1
 430.763671875 284.561523438 535.533203125 236.088867188 646.025390625 236.088867188 c 1
 647.084960938 236.203125 l 1
 647.084960938 236.088867188 l 1
 687.225585938 239.415039062 l 1
 777.973632812 254.610351562 846.254882812 320.380859375 846.254882812 399.194335938 c 0
 846.254882812 478.006835938 777.973632812 543.77734375 687.225585938 558.973632812 c 1
 647.084960938 562.298828125 l 1
 647.084960938 562.184570312 l 1
 646.025390625 562.298828125 l 1
646.025390625 657.612304688 m 1
 647.084960938 657.515625 l 1
 647.084960938 657.612304688 l 1
 814.364257812 657.612304688 949.98046875 541.918945312 949.98046875 399.194335938 c 0
 949.98046875 256.46875 814.364257812 140.775390625 647.084960938 140.775390625 c 1
 647.084960938 140.873046875 l 1
 646.025390625 140.775390625 l 1
 530.380859375 140.775390625 420.231445312 183.94921875 320.02734375 262.044921875 c 1
 247.000976562 326.852539062 l 1
 229.686523438 305.201171875 l 2
 212.8125 282.033203125 196.443359375 257.51171875 180.643554688 231.686523438 c 2
 134.50390625 148.731445312 l 1
 50 197.920898438 l 1
 53.814453125 205.649414062 l 2
 91.7060546875 275.463867188 133.200195312 338.608398438 177.758789062 394.075195312 c 2
 182.33984375 399.194335938 l 1
 177.758789062 404.3125 l 2
 133.200195312 459.780273438 91.7060546875 522.924804688 53.814453125 592.73828125 c 2
 50 600.466796875 l 1
 134.50390625 649.65625 l 1
 180.643554688 566.702148438 l 2
 196.443359375 540.875976562 212.8125 516.35546875 229.686523438 493.1875 c 2
 247.000976562 471.53515625 l 1
 320.02734375 536.34375 l 1
 420.231445312 614.438476562 530.380859375 657.612304688 646.025390625 657.612304688 c 1
EndSplineSet
EndChar

StartChar: uF1915
Encoding: 989461 989461 21
Width: 1000
Flags: HW
LayerCount: 2
Fore
SplineSet
50 -49.9814453125 m 1
 949.98046875 -49.9814453125 l 1
 949.98046875 850 l 1
 50 850 l 1
 50 -49.9814453125 l 1
446.1875 509.24609375 m 1
 446.1875 771.740234375 l 1
 552.163085938 771.740234375 l 1
 552.163085938 509.24609375 l 1
 446.1875 509.24609375 l 1
783.19140625 760.862304688 m 1
 871.249023438 710.025390625 l 1
 739.919921875 482.552734375 l 1
 651.86328125 533.391601562 l 1
 783.19140625 760.862304688 l 1
127.8359375 710.025390625 m 1
 215.893554688 760.862304688 l 1
 347.221679688 533.391601562 l 1
 259.1640625 482.552734375 l 1
 127.8359375 710.025390625 l 1
259.587890625 310.482421875 m 1
 276.380859375 274.073242188 l 2
 330.608398438 169.966796875 410.676757812 104.110351562 499.990234375 104.110351562 c 0
 589.303710938 104.110351562 669.372070312 169.966796875 723.600585938 274.073242188 c 2
 740.393554688 310.482421875 l 1
 259.587890625 310.482421875 l 1
131.51953125 401.639648438 m 1
 178.720703125 401.639648438 l 1
 228.431640625 401.639648438 l 1
 771.548828125 401.639648438 l 1
 791.962890625 401.639648438 l 1
 868.4609375 401.639648438 l 1
 861.3515625 367.36328125 l 1
 801.810546875 156.600585938 662.443359375 8.712890625 499.990234375 8.712890625 c 0
 337.538085938 8.712890625 198.154296875 156.600585938 138.62890625 367.36328125 c 1
 131.51953125 401.639648438 l 1
EndSplineSet
EndChar

StartChar: uF1916
Encoding: 989462 989462 22
Width: 1000
Flags: HW
LayerCount: 2
Fore
SplineSet
50 -49.9814453125 m 1
 949.98046875 -49.9814453125 l 1
 949.98046875 850 l 1
 50 850 l 1
 50 -49.9814453125 l 1
475.92578125 850 m 1
 573.84765625 850 l 1
 949.98046875 -23.89453125 l 1
 564.733398438 -23.89453125 l 1
 564.733398438 71.4228515625 l 1
 798.20703125 71.4228515625 l 1
 535.533203125 703.200195312 l 1
 369.412109375 -23.89453125 l 1
 77.716796875 -23.89453125 l 1
 77.716796875 71.4228515625 l 1
 287.77734375 71.4228515625 l 1
 475.92578125 850 l 1
EndSplineSet
EndChar

StartChar: uF1919
Encoding: 989465 989465 23
Width: 1000
Flags: HW
LayerCount: 2
Fore
SplineSet
50 -49.9814453125 m 1
 949.98046875 -49.9814453125 l 1
 949.98046875 850 l 1
 50 850 l 1
 50 -49.9814453125 l 1
203.861328125 823.913085938 m 1
 510.9140625 823.913085938 l 1
 616.823242188 823.913085938 l 1
 923.892578125 823.913085938 l 1
 923.892578125 499.380859375 l 1
 616.823242188 499.380859375 l 1
 616.823242188 411.616210938 l 1
 627.127929688 410.737304688 l 2
 647.330078125 407.16796875 666.500976562 401.801757812 684.615234375 394.627929688 c 0
 720.842773438 380.3125 751.51171875 360.243164062 776.586914062 334.416992188 c 0
 801.6796875 308.591796875 821.034179688 277.841796875 834.663085938 242.185546875 c 0
 848.278320312 206.545898438 855.090820312 167.661132812 855.090820312 125.547851562 c 2
 854.454101562 117.803710938 l 1
 855.090820312 117.803710938 l 1
 855.090820312 -14.1123046875 l 1
 823.642578125 -14.1123046875 l 1
 749.229492188 -14.1123046875 l 1
 749.229492188 117.803710938 l 1
 748.592773438 117.803710938 l 1
 749.178710938 125.270507812 l 2
 749.178710938 153.607421875 744.844726562 179.756835938 736.170898438 203.740234375 c 0
 727.513671875 227.723632812 715.1875 248.415039062 699.225585938 265.778320312 c 0
 683.263671875 283.158203125 663.747070312 296.657226562 640.693359375 306.29296875 c 0
 617.640625 315.928710938 591.912109375 320.737304688 563.54296875 320.737304688 c 0
 535.157226562 320.737304688 509.541992188 315.928710938 486.684570312 306.29296875 c 0
 463.827148438 296.657226562 444.41015625 283.158203125 428.448242188 265.778320312 c 0
 412.487304688 248.415039062 400.162109375 227.723632812 391.487304688 203.740234375 c 0
 382.831054688 179.756835938 378.4921875 153.607421875 378.4921875 125.270507812 c 2
 379.078125 117.803710938 l 1
 378.524414062 117.803710938 l 1
 378.524414062 -14.1123046875 l 1
 258.689453125 -14.1123046875 l 1
 53.2587890625 246.522460938 l 1
 133.100585938 309.505859375 l 1
 205.895507812 217.149414062 l 1
 283.868164062 79.3076171875 l 1
 274.391601562 147.202148438 l 1
 277.684570312 186.295898438 l 2
 281.091796875 205.73046875 286.196289062 224.365234375 293.010742188 242.185546875 c 0
 306.641601562 277.841796875 325.993164062 308.591796875 351.083984375 334.416992188 c 0
 376.159179688 360.243164062 406.666015625 380.3125 442.599609375 394.627929688 c 0
 460.55078125 401.801757812 479.592773438 407.16796875 499.727539062 410.737304688 c 2
 510.9140625 411.68359375 l 1
 510.9140625 499.380859375 l 1
 203.861328125 499.380859375 l 1
 203.861328125 823.913085938 l 1
309.690429688 728.404296875 m 1
 309.690429688 594.889648438 l 1
 510.9140625 594.889648438 l 1
 510.9140625 728.404296875 l 1
 309.690429688 728.404296875 l 1
616.823242188 728.404296875 m 1
 616.823242188 594.889648438 l 1
 818.063476562 594.889648438 l 1
 818.063476562 728.404296875 l 1
 616.823242188 728.404296875 l 1
EndSplineSet
EndChar

StartChar: uF191A
Encoding: 989466 989466 24
Width: 1000
Flags: HW
LayerCount: 2
Fore
SplineSet
949.982421875 850 m 1
 50.001953125 850 l 1
 50.001953125 -49.9814453125 l 1
 949.982421875 -49.9814453125 l 1
 949.982421875 850 l 1
275.307617188 625.126953125 m 2
 273.512695312 625.091796875 l 2
 222.123046875 625.056640625 172.770507812 577.498046875 163.4765625 523.24609375 c 2
 163.264648438 522.1171875 l 2
 159.141601562 500.688476562 156.79296875 478.758789062 156.04296875 456.544921875 c 2
 156.157226562 452.79296875 l 1
 156.04296875 451.7109375 l 2
 155.27734375 430.346679688 156.075195312 408.706054688 158.260742188 386.995117188 c 2
 167.374023438 330.142578125 l 1
 168.709960938 321.5234375 l 2
 173.422851562 299.01171875 179.307617188 276.640625 186.15625 254.6171875 c 2
 186.205078125 254.458007812 l 2
 214.39453125 162.836914062 287.305664062 85.7021484375 375.33203125 62.19921875 c 2
 375.658203125 62.11328125 l 2
 472.568359375 35.572265625 578.088867188 38.6796875 667.565429688 79.140625 c 1
 667.646484375 79.1689453125 l 1
 754.791015625 118.41796875 811.87109375 216.0859375 830.393554688 318.8125 c 2
 832.0390625 330.140625 l 1
 840.044921875 382.975585938 l 2
 842.409179688 403.98046875 843.760742188 424.651367188 843.631835938 444.689453125 c 2
 843.467773438 446.405273438 l 1
 843.631835938 449.244140625 l 2
 843.353515625 490.915039062 837.126953125 529.963867188 821.115234375 563.944335938 c 0
 798.192382812 612.141601562 732.700195312 636.666992188 681.666992188 619.772460938 c 2
 680.200195312 619.3125 l 2
 624.309570312 602.6484375 572.4296875 573.651367188 541.436523438 532.060546875 c 1
 540.655273438 532.053710938 l 1
 498.850585938 487.811523438 l 1
 456.8359375 532.28515625 l 1
 457.551757812 532.28515625 l 1
 424.813476562 565.831054688 l 2
 387.037109375 596.96875 338.2890625 617.564453125 289.23046875 624.655273438 c 0
 284.33984375 625.081054688 279.642578125 625.283203125 275.307617188 625.126953125 c 2
447.607421875 850 m 1
 553.501953125 850 l 1
 553.501953125 648.689453125 l 1
 571.990234375 663.353515625 l 2
 597.5390625 681.041015625 623.983398438 694.659179688 650.004882812 705.208007812 c 0
 674.966796875 716.284179688 700.938476562 721.10546875 726.633789062 719.913085938 c 1
 725.575195312 719.911132812 l 1
 726.633789062 719.965820312 l 2
 804.159179688 717.405273438 879.174804688 676.057617188 915.875 601.747070312 c 2
 915.939453125 601.610351562 l 2
 965.568359375 500.37890625 950.927734375 390.953125 934.282226562 300.075195312 c 2
 934.248046875 299.870117188 l 2
 910.821289062 174.73828125 838.415039062 47.607421875 709.661132812 -8.171875 c 0
 594.620117188 -58.193359375 465.787109375 -60.5966796875 348.952148438 -29.8642578125 c 0
 221.89453125 2.806640625 124.4296875 103.803710938 85.59375 225.09765625 c 0
 54.419921875 321.590820312 38.556640625 428.80859375 59.5224609375 534.703125 c 0
 77.783203125 636.26953125 164.994140625 719.036132812 272.796875 719.4453125 c 2
 280.588867188 719.196289062 l 1
 272.796875 719.182617188 l 1
 282.137695312 719.5625 291.186523438 719.084960938 299.875976562 717.96875 c 2
 302.110351562 717.612304688 l 2
 337.424804688 710.942382812 372.723632812 697.697265625 406.194335938 677.67578125 c 2
 447.607421875 647.751953125 l 1
 447.607421875 850 l 1
EndSplineSet
EndChar

StartChar: uF191B
Encoding: 989467 989467 25
Width: 1000
Flags: HW
LayerCount: 2
Fore
SplineSet
76.0859375 -49.9814453125 m 1
 976.067382812 -49.9814453125 l 1
 976.067382812 850 l 1
 76.0859375 850 l 1
 76.0859375 -49.9814453125 l 1
351.240234375 674.747070312 m 1
 186.869140625 478.415039062 l 1
 186.869140625 478.415039062 l 1
 526.077148438 128.727539062 l 1
 865.284179688 478.415039062 l 1
 865.286132812 478.415039062 l 1
 700.913085938 674.747070312 l 1
 700.913085938 674.747070312 l 1
 351.240234375 674.747070312 l 1
298.405273438 770.110351562 m 1
 753.748046875 770.110351562 l 1
 1002.15332031 473.409179688 l 1
 526.077148438 -17.373046875 l 1
 50 473.409179688 l 1
 298.405273438 770.110351562 l 1
EndSplineSet
EndChar

StartChar: uF191C
Encoding: 989468 989468 26
Width: 1000
Flags: HW
LayerCount: 2
Fore
SplineSet
50 850 m 1
 50 -49.984375 l 1
 949.974609375 -49.984375 l 1
 949.974609375 850 l 1
 50 850 l 1
332.171875 690.822265625 m 1
 332.71875 657.370117188 341.170898438 624.235351562 338.826171875 590.631835938 c 0
 335.794921875 518.40625 267.85546875 479.177734375 214.971679688 442.657226562 c 0
 172.62890625 419.456054688 141.315429688 366.141601562 161.899414062 318.666015625 c 1
 211.271484375 250.270507812 306.168945312 223.841796875 340.102539062 142.22265625 c 0
 357.731445312 105.06640625 364.921875 38.46484375 422.229492188 52.3076171875 c 0
 500.75 63.9482421875 547.103515625 142.97265625 623.87890625 160.5 c 0
 676.997070312 178.41796875 728.697265625 150.880859375 780.771484375 145.38671875 c 0
 830.64453125 145.647460938 854.368164062 200.37890625 841.911132812 243.568359375 c 0
 821.938476562 300.8125 775.015625 343.48046875 747.185546875 396.760742188 c 0
 715.147460938 445.869140625 714.21875 508.427734375 737.6796875 561.154296875 c 0
 753.396484375 596.241210938 767.842773438 643.120117188 733.327148438 672.536132812 c 0
 673.44140625 728.2578125 587.421875 745.28125 508.037109375 748.037109375 c 0
 446.71875 746.98046875 373.594726562 742.294921875 332.171875 690.822265625 c 1
253.743164062 744.415039062 m 0
 275.055664062 775.786132812 306.915039062 798.62109375 341.459960938 813.436523438 c 0
 448.772460938 855.544921875 571.037109375 850.23828125 679.98046875 817.002929688 c 0
 760.505859375 791.857421875 845.205078125 736.309570312 859.275390625 646.74609375 c 0
 870.393554688 588.724609375 835.619140625 536.959960938 826.438476562 481.852539062 c 1
 840.133789062 410.684570312 901.958984375 362.180664062 932.186523438 298.463867188 c 0
 971.951171875 219.162109375 943.91015625 108.017578125 859.813476562 70.2080078125 c 0
 808.764648438 40.71484375 747.397460938 49.224609375 694.197265625 67.6318359375 c 0
 649.05078125 83.1865234375 612.743164062 44.1552734375 578.862304688 21.068359375 c 0
 512.994140625 -30.2392578125 420.698242188 -64.1533203125 339.80078125 -29.115234375 c 0
 282.499023438 -4.0068359375 264.421875 59.8720703125 240.125 111.751953125 c 1
 192.451171875 174.033203125 109.254882812 201.471679688 69.671875 271.350585938 c 0
 22.109375 356.327148438 66.0029296875 468.171875 145.634765625 516.62890625 c 1
 174.659179688 542.681640625 226.215820312 557.6328125 233.646484375 599.696289062 c 1
 227.12890625 648.145507812 218.28125 704.072265625 253.743164062 744.415039062 c 0
EndSplineSet
EndChar

StartChar: uF191D
Encoding: 989469 989469 27
Width: 1000
Flags: HW
LayerCount: 2
Fore
SplineSet
50 850 m 1
 50 -49.984375 l 1
 951.611328125 -49.984375 l 1
 951.611328125 850 l 1
 50 850 l 1
433.877929688 815.6640625 m 1
 465.866210938 723.204101562 l 1
 465.866210938 723.204101562 466.387695312 723.391601562 465.866210938 723.204101562 c 1
 447.751953125 716.706054688 422.154296875 706.08984375 398.579101562 690.403320312 c 0
 381.982421875 679.360351562 368.3359375 667.122070312 357.607421875 653.510742188 c 0
 347.416992188 640.620117188 340.243164062 626.990234375 335.239257812 612.610351562 c 0
 329.451171875 595.98046875 326.791992188 578.974609375 325.65234375 562.96484375 c 0
 325.375 559.150390625 325.260742188 555.627929688 325.245117188 552.3828125 c 0
 325.1796875 541.997070312 326.206054688 533.194335938 327.690429688 525.661132812 c 0
 329.890625 514.4921875 333.477539062 504.498046875 337.896484375 495.25390625 c 0
 342.721679688 485.178710938 348.868164062 475.25 356.334960938 464.928710938 c 0
 363.8359375 454.559570312 372.166015625 444.434570312 382.439453125 432.255859375 c 0
 401.708984375 409.446289062 425.302734375 382.609375 442.861328125 349.317382812 c 0
 451.436523438 333.0625 459.311523438 313.953125 464.463867188 291.502929688 c 0
 468.247070312 274.954101562 470.659179688 256.25390625 470.643554688 235.155273438 c 0
 470.626953125 230.8359375 470.528320312 226.319335938 470.30078125 221.657226562 c 0
 469.078125 196.255859375 463.110351562 167.673828125 449.643554688 138.08203125 c 0
 438.05078125 112.6484375 421.958984375 88.8115234375 402.150390625 67.6005859375 c 0
 377.123046875 40.8447265625 348.705078125 20.921875 320.826171875 6.8994140625 c 0
 293.125 -7.0244140625 268.701171875 -13.7734375 252.739257812 -17.3271484375 c 1
 252.185546875 -17.44140625 252.739257812 -17.3271484375 252.739257812 -17.3271484375 c 1
 230.517578125 77.96875 l 1
 230.517578125 77.96875 230.143554688 77.87109375 230.517578125 77.96875 c 1
 240.918945312 80.578125 256.865234375 85.599609375 274.767578125 95.4638671875 c 0
 292.879882812 105.408203125 310.864257812 119.135742188 326.23828125 136.77734375 c 0
 338.401367188 150.716796875 347.62890625 165.635742188 353.97265625 180.620117188 c 0
 361.275390625 197.901367188 364.09765625 213.5859375 364.732421875 226.759765625 c 0
 364.87890625 229.809570312 364.944335938 232.694335938 364.959960938 235.432617188 c 0
 365.025390625 248.590820312 363.737304688 259.62890625 361.845703125 268.938476562 c 0
 359.302734375 281.57421875 355.357421875 292.676757812 350.662109375 302.719726562 c 0
 340.47265625 324.502929688 325.864257812 343.594726562 305.79296875 367.381835938 c 0
 295.864257812 379.103515625 285.52734375 390.989257812 275.598632812 403.640625 c 0
 265.5546875 416.440429688 255.137695312 431 246.13671875 447.614257812 c 0
 237.708007812 463.134765625 229.9140625 481.590820312 224.958007812 503.340820312 c 0
 221.649414062 517.94921875 219.545898438 534.318359375 219.561523438 552.610351562 c 0
 219.577148438 558.251953125 219.7734375 564.203125 220.21484375 570.479492188 c 0
 221.860351562 593.454101562 226.360351562 620.762695312 237.088867188 648.8984375 c 0
 246.512695312 673.677734375 260.076171875 697.297851562 278.58203125 719.041015625 c 0
 297.870117188 741.708984375 320.565429688 760.025390625 344.791992188 774.991210938 c 0
 378.428710938 795.784179688 412.6171875 808.510742188 433.877929688 815.6640625 c 1
 434.529296875 815.880859375 433.877929688 815.6640625 433.877929688 815.6640625 c 1
567.733398438 -17.279296875 m 1
 535.744140625 75.1806640625 l 1
 535.744140625 75.1806640625 535.206054688 74.986328125 535.744140625 75.1806640625 c 1
 553.858398438 81.6865234375 579.456054688 92.2998046875 603.032226562 107.984375 c 0
 619.62890625 119.0234375 633.275390625 131.266601562 644.01953125 144.879882812 c 0
 654.177734375 157.77734375 661.350585938 171.407226562 666.372070312 185.788085938 c 0
 672.177734375 202.401367188 674.819335938 219.40625 675.958984375 235.432617188 c 0
 676.236328125 239.249023438 676.350585938 242.75390625 676.366210938 245.998046875 c 0
 676.416015625 256.384765625 675.405273438 265.205078125 673.938476562 272.719726562 c 0
 671.720703125 283.889648438 668.133789062 293.883789062 663.71484375 303.143554688 c 0
 658.905273438 313.21875 652.743164062 323.131835938 645.258789062 333.452148438 c 0
 637.775390625 343.822265625 629.4609375 353.962890625 619.171875 366.141601562 c 0
 599.91796875 388.935546875 576.29296875 415.771484375 558.734375 449.064453125 c 0
 550.174804688 465.319335938 542.299804688 484.444335938 537.147460938 506.87890625 c 0
 533.348632812 523.443359375 530.952148438 542.127929688 530.967773438 563.2421875 c 0
 530.967773438 567.545898438 531.083007812 572.0625 531.310546875 576.724609375 c 0
 532.533203125 602.142578125 538.484375 630.708007812 551.967773438 660.301757812 c 0
 563.560546875 685.735351562 579.634765625 709.580078125 599.4765625 730.788085938 c 0
 624.48828125 757.55078125 652.905273438 777.4609375 680.78515625 791.477539062 c 0
 708.485351562 805.40234375 732.92578125 812.15625 748.872070312 815.704101562 c 1
 749.42578125 815.830078125 748.872070312 815.704101562 748.872070312 815.704101562 c 1
 771.09375 720.423828125 l 1
 771.09375 720.423828125 771.452148438 720.514648438 771.09375 720.423828125 c 1
 760.692382812 717.809570312 744.76171875 712.77734375 726.84375 702.930664062 c 0
 708.731445312 692.974609375 690.747070312 679.254882812 675.35546875 661.610351562 c 0
 663.209960938 647.66796875 653.982421875 632.74609375 647.638671875 617.76171875 c 0
 640.319335938 600.49609375 637.53125 584.794921875 636.89453125 571.62109375 c 0
 636.748046875 568.572265625 636.666992188 565.6875 636.651367188 562.96484375 c 0
 636.5859375 549.806640625 637.874023438 538.751953125 639.748046875 529.443359375 c 0
 642.307617188 516.807617188 646.25390625 505.705078125 650.96484375 495.677734375 c 0
 661.138671875 473.87890625 675.747070312 454.787109375 695.833984375 431.015625 c 0
 705.731445312 419.293945312 716.099609375 407.408203125 726.028320312 394.756835938 c 0
 736.072265625 381.95703125 746.473632812 367.3984375 755.490234375 350.767578125 c 0
 763.887695312 335.247070312 771.712890625 316.806640625 776.669921875 295.041015625 c 0
 779.979492188 280.432617188 782.065429688 264.079101562 782.049804688 245.770507812 c 0
 782.049804688 240.129882812 781.853515625 234.177734375 781.396484375 227.901367188 c 0
 779.75 204.927734375 775.266601562 177.619140625 764.5390625 149.478515625 c 0
 755.116210938 124.696289062 741.53515625 101.088867188 723.028320312 79.35546875 c 0
 703.741210938 56.67578125 681.061523438 38.3681640625 656.834960938 23.3994140625 c 0
 623.182617188 2.6123046875 588.994140625 -10.12109375 567.733398438 -17.279296875 c 1
 567.08203125 -17.5068359375 567.733398438 -17.279296875 567.733398438 -17.279296875 c 1
EndSplineSet
EndChar

StartChar: uF191E
Encoding: 989470 989470 28
Width: 1000
Flags: HW
LayerCount: 2
Fore
SplineSet
76.0859375 -49.9814453125 m 1
 976.067382812 -49.9814453125 l 1
 976.067382812 850 l 1
 76.0859375 850 l 1
 76.0859375 -49.9814453125 l 1
344.483398438 312.098632812 m 1
 222.549804688 100.862304688 l 1
 827.97265625 100.862304688 l 1
 827.97265625 100.862304688 l 1
 827.97265625 100.862304688 l 1
 706.038085938 312.098632812 l 1
 344.483398438 312.098632812 l 1
525.26171875 637.998046875 m 1
 389.76171875 403.25390625 l 1
 660.76171875 403.25390625 l 1
 525.26171875 637.998046875 l 1
525.259765625 637.998046875 m 1024
525.26171875 828.8046875 m 1
 768.451171875 407.4921875 l 1
 975.678710938 407.4921875 l 1
 975.678710938 312.098632812 l 1
 823.518554688 312.098632812 l 1
 1000.5234375 5.4521484375 l 1
 50 5.4521484375 l 1
 227.00390625 312.098632812 l 1
 74.8427734375 312.098632812 l 1
 74.8427734375 407.4921875 l 1
 282.071289062 407.4921875 l 1
 525.26171875 828.8046875 l 1
EndSplineSet
EndChar

StartChar: uF191F
Encoding: 989471 989471 29
Width: 1000
Flags: HW
LayerCount: 2
Fore
SplineSet
50 -49.9814453125 m 1
 949.98046875 -49.9814453125 l 1
 949.98046875 850 l 1
 50 850 l 1
 50 -49.9814453125 l 1
500.643554688 730.887695312 m 0
 485.186523438 730.887695312 471.23046875 728.14453125 458.7734375 722.663085938 c 0
 446.333984375 717.1796875 435.751953125 709.494140625 427.061523438 699.603515625 c 0
 418.35546875 689.713867188 411.65625 677.94140625 406.926757812 664.288085938 c 0
 402.198242188 650.633789062 399.8515625 635.748046875 399.8515625 619.624023438 c 0
 399.8515625 603.287109375 402.198242188 588.288085938 406.926757812 574.624023438 c 0
 411.65625 560.979492188 418.35546875 549.20703125 427.061523438 539.311523438 c 0
 435.751953125 529.4296875 446.333984375 521.685546875 458.7734375 516.09375 c 0
 471.23046875 510.500976562 485.186523438 507.712890625 500.643554688 507.712890625 c 0
 516.098632812 507.712890625 530.12109375 510.500976562 542.673828125 516.09375 c 0
 555.228515625 521.685546875 565.859375 529.4296875 574.549804688 539.311523438 c 0
 583.255859375 549.20703125 589.955078125 560.979492188 594.684570312 574.624023438 c 0
 599.413085938 588.288085938 601.759765625 603.287109375 601.759765625 619.624023438 c 0
 601.759765625 635.748046875 599.413085938 650.633789062 594.684570312 664.288085938 c 0
 589.955078125 677.94140625 583.255859375 689.713867188 574.549804688 699.603515625 c 0
 565.859375 709.494140625 555.228515625 717.1796875 542.673828125 722.663085938 c 0
 530.12109375 728.14453125 516.098632812 730.887695312 500.643554688 730.887695312 c 0
500.479492188 822.283203125 m 0
 531.555664062 822.283203125 559.727539062 817.297851562 584.983398438 807.322265625 c 0
 610.22265625 797.349609375 631.595703125 783.366210938 649.075195312 765.375976562 c 0
 666.568359375 747.384765625 680.052734375 725.97265625 689.540039062 701.137695312 c 0
 699.045898438 676.301757812 703.790039062 649.216796875 703.790039062 619.885742188 c 0
 703.790039062 590.162109375 699.045898438 562.88671875 689.540039062 538.0390625 c 0
 680.052734375 513.20703125 666.568359375 491.80078125 649.075195312 473.80078125 c 0
 631.595703125 455.818359375 610.22265625 441.73046875 584.983398438 431.57421875 c 0
 559.727539062 421.400390625 531.555664062 416.313476562 500.479492188 416.313476562 c 0
 469.404296875 416.313476562 441.345703125 421.400390625 416.317382812 431.57421875 c 0
 391.275390625 441.73046875 370.015625 455.818359375 352.536132812 473.80078125 c 0
 335.05859375 491.80078125 321.55859375 513.20703125 312.071289062 538.0390625 c 0
 302.565429688 562.88671875 297.8203125 590.162109375 297.8203125 619.885742188 c 0
 297.8203125 649.216796875 302.565429688 676.301757812 312.071289062 701.137695312 c 0
 321.55859375 725.97265625 335.05859375 747.384765625 352.536132812 765.375976562 c 0
 370.015625 783.366210938 391.275390625 797.349609375 416.317382812 807.322265625 c 0
 441.345703125 817.297851562 469.404296875 822.283203125 500.479492188 822.283203125 c 0
252.006835938 291.049804688 m 0
 236.615234375 291.049804688 222.708007812 288.310546875 210.317382812 282.84765625 c 0
 197.909179688 277.38671875 187.376953125 269.739257812 178.720703125 259.891601562 c 0
 170.0625 250.043945312 163.377929688 238.306640625 158.666992188 224.708984375 c 0
 153.969726562 211.110351562 151.607421875 196.290039062 151.607421875 180.231445312 c 0
 151.607421875 163.943359375 153.969726562 149.008789062 158.666992188 135.411132812 c 0
 163.377929688 121.814453125 170.0625 110.090820312 178.720703125 100.243164062 c 0
 187.376953125 90.3955078125 197.909179688 82.6845703125 210.317382812 77.1083984375 c 0
 222.708007812 71.548828125 236.615234375 68.7607421875 252.006835938 68.7607421875 c 0
 267.397460938 68.7607421875 281.354492188 71.548828125 293.859375 77.1083984375 c 0
 306.380859375 82.6845703125 316.961914062 90.3955078125 325.619140625 100.243164062 c 0
 334.27734375 110.090820312 340.9609375 121.814453125 345.672851562 135.411132812 c 0
 350.369140625 149.008789062 352.732421875 163.943359375 352.732421875 180.231445312 c 0
 352.732421875 196.290039062 350.369140625 211.110351562 345.672851562 224.708984375 c 0
 340.9609375 238.306640625 334.27734375 250.043945312 325.619140625 259.891601562 c 0
 316.961914062 269.739257812 306.380859375 277.38671875 293.859375 282.84765625 c 0
 281.354492188 288.310546875 267.397460938 291.049804688 252.006835938 291.049804688 c 0
251.842773438 382.075195312 m 0
 282.8046875 382.075195312 310.84765625 377.102539062 336.004882812 367.173828125 c 0
 361.161132812 357.243164062 382.439453125 343.321289062 399.8515625 325.40234375 c 0
 417.263671875 307.484375 430.698242188 286.158203125 440.154296875 261.409179688 c 0
 449.610351562 236.67578125 454.338867188 209.708984375 454.338867188 180.493164062 c 0
 454.338867188 150.884765625 449.610351562 123.721679688 440.154296875 98.97265625 c 0
 430.698242188 74.2392578125 417.263671875 52.9140625 399.8515625 34.9951171875 c 0
 382.439453125 17.0771484375 361.161132812 3.056640625 336.004882812 -7.068359375 c 0
 310.84765625 -17.193359375 282.8046875 -22.2646484375 251.842773438 -22.2646484375 c 0
 220.899414062 -22.2646484375 192.953125 -17.193359375 168.0078125 -7.068359375 c 0
 143.079101562 3.056640625 121.900390625 17.0771484375 104.48828125 34.9951171875 c 0
 87.0751953125 52.9140625 73.640625 74.2392578125 64.1845703125 98.97265625 c 0
 54.728515625 123.721679688 50 150.884765625 50 180.493164062 c 0
 50 209.708984375 54.728515625 236.67578125 64.1845703125 261.409179688 c 0
 73.640625 286.158203125 87.0751953125 307.484375 104.48828125 325.40234375 c 0
 121.900390625 343.321289062 143.079101562 357.243164062 168.0078125 367.173828125 c 0
 192.953125 377.102539062 220.899414062 382.075195312 251.842773438 382.075195312 c 0
749.279296875 291.049804688 m 0
 733.887695312 291.049804688 719.979492188 288.310546875 707.58984375 282.84765625 c 0
 695.181640625 277.38671875 684.649414062 269.739257812 675.9921875 259.891601562 c 0
 667.333984375 250.043945312 660.650390625 238.306640625 655.938476562 224.708984375 c 0
 651.2421875 211.110351562 648.87890625 196.290039062 648.87890625 180.231445312 c 0
 648.87890625 163.943359375 651.2421875 149.008789062 655.938476562 135.411132812 c 0
 660.650390625 121.814453125 667.333984375 110.090820312 675.9921875 100.243164062 c 0
 684.649414062 90.3955078125 695.181640625 82.6845703125 707.58984375 77.1083984375 c 0
 719.979492188 71.548828125 733.887695312 68.7607421875 749.279296875 68.7607421875 c 0
 764.668945312 68.7607421875 778.625976562 71.548828125 791.147460938 77.1083984375 c 0
 803.65234375 82.6845703125 814.234375 90.3955078125 822.890625 100.243164062 c 0
 831.548828125 110.090820312 838.233398438 121.814453125 842.944335938 135.411132812 c 0
 847.641601562 149.008789062 850.00390625 163.943359375 850.00390625 180.231445312 c 0
 850.00390625 196.290039062 847.641601562 211.110351562 842.944335938 224.708984375 c 0
 838.233398438 238.306640625 831.548828125 250.043945312 822.890625 259.891601562 c 0
 814.234375 269.739257812 803.65234375 277.38671875 791.147460938 282.84765625 c 0
 778.625976562 288.310546875 764.668945312 291.049804688 749.279296875 291.049804688 c 0
749.115234375 382.075195312 m 0
 780.077148438 382.075195312 808.120117188 377.102539062 833.276367188 367.173828125 c 0
 858.43359375 357.243164062 879.7109375 343.321289062 897.123046875 325.40234375 c 0
 914.53515625 307.484375 927.970703125 286.158203125 937.426757812 261.409179688 c 0
 946.8828125 236.67578125 951.611328125 209.708984375 951.611328125 180.493164062 c 0
 951.611328125 150.884765625 946.8828125 123.721679688 937.426757812 98.97265625 c 0
 927.970703125 74.2392578125 914.53515625 52.9140625 897.123046875 34.9951171875 c 0
 879.7109375 17.0771484375 858.43359375 3.056640625 833.276367188 -7.068359375 c 0
 808.120117188 -17.193359375 780.077148438 -22.2646484375 749.115234375 -22.2646484375 c 0
 718.170898438 -22.2646484375 690.224609375 -17.193359375 665.280273438 -7.068359375 c 0
 640.3515625 3.056640625 619.171875 17.0771484375 601.759765625 34.9951171875 c 0
 584.34765625 52.9140625 570.913085938 74.2392578125 561.45703125 98.97265625 c 0
 552.000976562 123.721679688 547.272460938 150.884765625 547.272460938 180.493164062 c 0
 547.272460938 209.708984375 552.000976562 236.67578125 561.45703125 261.409179688 c 0
 570.913085938 286.158203125 584.34765625 307.484375 601.759765625 325.40234375 c 0
 619.171875 343.321289062 640.3515625 357.243164062 665.280273438 367.173828125 c 0
 690.224609375 377.102539062 718.170898438 382.075195312 749.115234375 382.075195312 c 0
EndSplineSet
EndChar

StartChar: uF1920
Encoding: 989472 989472 30
Width: 1000
Flags: HW
LayerCount: 2
Fore
SplineSet
50 850 m 1
 50 -49.9814453125 l 1
 949.98046875 -49.9814453125 l 1
 949.98046875 850 l 1
 50 850 l 1
318.592773438 629.145507812 m 1
 255.52734375 707.567382812 l 1
 255.52734375 707.567382812 255.315429688 707.405273438 255.52734375 707.567382812 c 1
 265.228515625 715.180664062 282.235351562 729.268554688 306.950195312 748.458007812 c 0
 324.217773438 761.861328125 346.375 778.342773438 371.25390625 793.505859375 c 0
 394.830078125 807.854492188 421.012695312 821.157226562 449.970703125 831.0703125 c 0
 480.865234375 841.635742188 512.25 847.439453125 544.418945312 848.272460938 c 0
 546.098632812 848.303710938 547.760742188 848.336914062 549.407226562 848.353515625 c 0
 578.28125 848.614257812 605.232421875 844.603515625 629.900390625 836.043945312 c 0
 655.873046875 827.02734375 678.454101562 813.25 697.268554688 795.446289062 c 0
 716.034179688 777.658203125 730.284179688 756.578125 740.376953125 733.8828125 c 0
 750.583007812 710.926757812 756.517578125 686.455078125 758.866210938 661.93359375 c 0
 760.235351562 646.900390625 760.870117188 631.737304688 760.854492188 616.541992188 c 0
 760.7734375 570.158203125 754.495117188 520.219726562 741.338867188 467.573242188 c 0
 725.05078125 402.438476562 699.192382812 336.896484375 665.94921875 273.946289062 c 0
 623.182617188 192.932617188 571.939453125 123.19921875 521.266601562 67.0810546875 c 0
 470.805664062 11.2236328125 425.123046875 -26.5205078125 394.340820312 -49.7197265625 c 1
 393.575195312 -50.2919921875 394.340820312 -49.7197265625 394.340820312 -49.7197265625 c 1
 333.461914062 30.4306640625 l 1
 333.461914062 30.4306640625 332.79296875 29.908203125 333.461914062 30.4306640625 c 1
 360.102539062 50.810546875 400.356445312 84.73828125 445.013671875 135.231445312 c 0
 490.061523438 186.133789062 535.533203125 249.392578125 573.27734375 322.369140625 c 0
 602.640625 379.075195312 624.846679688 436.920898438 638.624023438 493.006835938 c 0
 649.7265625 538.266601562 654.731445312 579.728515625 654.91015625 616.883789062 c 0
 654.975585938 629.03125 654.520507812 640.982421875 653.541015625 652.705078125 c 0
 652.416992188 667.786132812 649.530273438 681.611328125 644.965820312 693.7578125 c 0
 640.498046875 705.643554688 634.43359375 715.915039062 626.75390625 724.34375 c 0
 619.140625 732.692382812 609.341796875 739.866210938 596.623046875 744.969726562 c 0
 584.395507812 749.876953125 569.004882812 753.040039062 549.9453125 753.022460938 c 0
 548.853515625 753.022460938 547.760742188 753.022460938 546.63671875 752.991210938 c 0
 524.837890625 752.567382812 503.235351562 748.5390625 481.420898438 740.762695312 c 0
 460.811523438 733.42578125 441.247070312 723.186523438 422.530273438 711.219726562 c 0
 402.58984375 698.469726562 384.28125 684.171875 368.596679688 671.275390625 c 0
 352.961914062 658.443359375 334.211914062 641.977539062 318.592773438 629.145507812 c 1
 318.36328125 628.950195312 318.592773438 629.145507812 318.592773438 629.145507812 c 1
424.045898438 522.2890625 m 1
 524.446289062 497.670898438 l 1
 503.609375 412.62890625 469.859375 345.733398438 418.975585938 279.359375 c 1
 336.950195312 342.276367188 l 1
 381.41015625 400.254882812 406.176757812 449.296875 424.045898438 522.2890625 c 1
EndSplineSet
EndChar

StartChar: uF1921
Encoding: 989473 989473 31
Width: 1000
Flags: HW
LayerCount: 2
Fore
SplineSet
50 -64.6552734375 m 1
 949.98046875 -64.6552734375 l 1
 949.98046875 835.326171875 l 1
 50 835.326171875 l 1
 50 -64.6552734375 l 1
409.111328125 850 m 1
 416.955078125 844.880859375 l 1
 581.086914062 727.280273438 682.594726562 564.793945312 682.594726562 385.3359375 c 0
 682.594726562 205.876953125 581.086914062 43.390625 416.955078125 -74.2099609375 c 1
 409.111328125 -79.328125 l 1
 351.624023438 0.837890625 l 1
 368.743164062 12.4130859375 l 1
 498.067382812 110.90625 576.896484375 241.74609375 576.896484375 385.3359375 c 0
 576.896484375 519.354492188 508.223632812 642.270507812 393.93359375 738.137695312 c 1
 351.869140625 770.174804688 l 1
 409.111328125 850 l 1
EndSplineSet
EndChar

StartChar: uF1922
Encoding: 989474 989474 32
Width: 1000
Flags: HW
LayerCount: 2
Fore
SplineSet
50 -49.9814453125 m 1
 949.98046875 -49.9814453125 l 1
 949.98046875 850 l 1
 50 850 l 1
 50 -49.9814453125 l 1
708.35546875 545.9296875 m 0
 687.600585938 545.9296875 668.8671875 542.342773438 652.155273438 535.169921875 c 0
 635.444335938 528.01171875 621.243164062 517.952148438 609.569335938 505.0234375 c 0
 597.911132812 492.094726562 588.896484375 476.6875 582.553710938 458.833984375 c 0
 576.211914062 440.981445312 573.047851562 421.514648438 573.047851562 400.432617188 c 0
 573.047851562 379.059570312 576.211914062 359.4453125 582.553710938 341.591796875 c 0
 588.896484375 323.73828125 597.911132812 308.348632812 609.569335938 295.41796875 c 0
 621.243164062 282.490234375 635.444335938 272.365234375 652.155273438 265.061523438 c 0
 668.8671875 257.741210938 687.600585938 254.088867188 708.35546875 254.088867188 c 0
 729.111328125 254.088867188 747.908203125 257.741210938 764.767578125 265.061523438 c 0
 781.625976562 272.365234375 795.891601562 282.490234375 807.56640625 295.41796875 c 0
 819.23828125 308.348632812 828.254882812 323.73828125 834.598632812 341.591796875 c 0
 840.923828125 359.4453125 844.1015625 379.059570312 844.1015625 400.432617188 c 0
 844.1015625 421.514648438 840.923828125 440.981445312 834.598632812 458.833984375 c 0
 828.254882812 476.6875 819.23828125 492.094726562 807.56640625 505.0234375 c 0
 795.891601562 517.952148438 781.625976562 528.01171875 764.767578125 535.169921875 c 0
 747.908203125 542.342773438 729.111328125 545.9296875 708.35546875 545.9296875 c 0
708.192382812 641.30859375 m 0
 745.154296875 641.30859375 778.642578125 635.374023438 808.673828125 623.520507812 c 0
 838.706054688 611.66796875 864.124023438 595.053710938 884.911132812 573.663085938 c 0
 905.69921875 552.271484375 921.7421875 526.822265625 933.041992188 497.294921875 c 0
 944.33984375 467.767578125 949.98046875 435.584960938 949.98046875 400.709960938 c 0
 949.98046875 365.37890625 944.33984375 332.951171875 933.041992188 303.423828125 c 0
 921.7421875 273.8984375 905.69921875 248.447265625 884.911132812 227.056640625 c 0
 864.124023438 205.665039062 838.706054688 188.9375 808.673828125 176.83984375 c 0
 778.642578125 164.758789062 745.154296875 158.709960938 708.192382812 158.709960938 c 0
 671.231445312 158.709960938 637.856445312 164.758789062 608.0859375 176.83984375 c 0
 578.314453125 188.9375 553.02734375 205.665039062 532.240234375 227.056640625 c 0
 511.452148438 248.447265625 495.41015625 273.8984375 484.110351562 303.423828125 c 0
 478.46875 318.178710938 474.23046875 333.66796875 471.409179688 349.890625 c 2
 471.197265625 352.434570312 l 1
 50 352.434570312 l 1
 50 447.583984375 l 1
 471.116210938 447.583984375 l 1
 471.409179688 451.008789062 l 2
 474.23046875 467.100585938 478.46875 482.540039062 484.110351562 497.294921875 c 0
 495.41015625 526.822265625 511.452148438 552.271484375 532.240234375 573.663085938 c 0
 553.02734375 595.053710938 578.314453125 611.66796875 608.0859375 623.520507812 c 0
 637.856445312 635.374023438 671.231445312 641.30859375 708.192382812 641.30859375 c 0
EndSplineSet
EndChar

StartChar: uF1924
Encoding: 989476 989476 33
Width: 1000
Flags: HW
LayerCount: 2
Fore
SplineSet
50 -49.9814453125 m 1
 949.98046875 -49.9814453125 l 1
 949.98046875 850 l 1
 50 850 l 1
 50 -49.9814453125 l 1
159.3671875 461.002929688 m 1
 155.87890625 401.036132812 l 2
 155.87890625 349.090820312 161.6015625 301.418945312 173.045898438 258.034179688 c 0
 184.4921875 214.6328125 200.747070312 177.21484375 221.811523438 145.78125 c 0
 242.875976562 114.331054688 268.489257812 89.728515625 298.65234375 71.97265625 c 0
 328.814453125 54.2021484375 362.62890625 45.31640625 400.079101562 45.31640625 c 0
 437.512695312 45.31640625 471.458007812 54.2021484375 501.881835938 71.97265625 c 0
 532.305664062 89.728515625 558.065429688 114.331054688 579.129882812 145.78125 c 0
 600.194335938 177.21484375 616.43359375 214.6328125 627.879882812 258.034179688 c 0
 639.32421875 301.418945312 645.046875 349.090820312 645.046875 401.036132812 c 2
 641.57421875 461.002929688 l 1
 159.3671875 461.002929688 l 1
400.079101562 754.702148438 m 0
 362.62890625 754.702148438 328.814453125 745.99609375 298.65234375 728.56640625 c 0
 268.489257812 711.138671875 242.875976562 686.698242188 221.811523438 655.263671875 c 0
 211.279296875 639.547851562 201.9375 622.331054688 193.817382812 603.62890625 c 2
 176.14453125 552.043945312 l 1
 624.78125 552.043945312 l 1
 607.108398438 603.62890625 l 2
 598.98828125 622.331054688 589.646484375 639.547851562 579.129882812 655.263671875 c 0
 558.065429688 686.698242188 532.305664062 711.138671875 501.881835938 728.56640625 c 0
 471.458007812 745.99609375 437.512695312 754.702148438 400.079101562 754.702148438 c 0
399.900390625 850 m 0
 453.555664062 850 502.190429688 838.9453125 545.788085938 816.837890625 c 0
 589.385742188 794.728515625 626.28125 763.735351562 656.458984375 723.83984375 c 0
 686.655273438 683.959960938 709.936523438 636.498046875 726.338867188 581.440429688 c 2
 731.703125 556.282226562 l 1
 949.98046875 556.282226562 l 1
 949.98046875 461.002929688 l 1
 747.01171875 461.002929688 l 1
 750.92578125 401.313476562 l 2
 750.92578125 335.412109375 742.724609375 274.94140625 726.338867188 219.881835938 c 0
 709.936523438 164.82421875 686.655273438 117.362304688 656.458984375 77.466796875 c 0
 626.28125 37.587890625 589.385742188 6.3818359375 545.788085938 -16.166015625 c 0
 502.190429688 -38.71484375 453.555664062 -49.9814453125 399.900390625 -49.9814453125 c 0
 346.244140625 -49.9814453125 297.8046875 -38.71484375 254.583007812 -16.166015625 c 0
 211.344726562 6.3818359375 174.64453125 37.587890625 144.465820312 77.466796875 c 0
 114.286132812 117.362304688 90.9873046875 164.82421875 74.5869140625 219.881835938 c 0
 58.201171875 274.94140625 50 335.412109375 50 401.313476562 c 0
 50 466.333007812 58.201171875 526.380859375 74.5869140625 581.440429688 c 0
 90.9873046875 636.498046875 114.286132812 683.959960938 144.465820312 723.83984375 c 0
 174.64453125 763.735351562 211.344726562 794.728515625 254.583007812 816.837890625 c 0
 297.8046875 838.9453125 346.244140625 850 399.900390625 850 c 0
EndSplineSet
EndChar

StartChar: uF1925
Encoding: 989477 989477 34
Width: 1000
Flags: HW
LayerCount: 2
Fore
SplineSet
50 -49.9814453125 m 1
 949.98046875 -49.9814453125 l 1
 949.98046875 850 l 1
 50 850 l 1
 50 -49.9814453125 l 1
235.637695312 728.56640625 m 1
 235.637695312 256.729492188 l 1
 763.592773438 256.729492188 l 1
 763.592773438 728.56640625 l 1
 235.637695312 728.56640625 l 1
129.889648438 823.913085938 m 1
 870.090820312 823.913085938 l 1
 869.325195312 -23.89453125 l 1
 763.592773438 -23.89453125 l 1
 763.592773438 161.3828125 l 1
 552.86328125 161.3828125 l 1
 552.86328125 -23.89453125 l 1
 447.1171875 -23.89453125 l 1
 447.1171875 161.3828125 l 1
 235.637695312 161.3828125 l 1
 235.637695312 -23.89453125 l 1
 129.889648438 -23.89453125 l 1
 129.889648438 823.602539062 l 1
 129.889648438 823.913085938 l 1
EndSplineSet
EndChar

StartChar: uF1927
Encoding: 989479 989479 35
Width: 1000
Flags: HW
LayerCount: 2
Fore
SplineSet
50 -49.9814453125 m 1
 951.611328125 -49.9814453125 l 1
 951.611328125 850 l 1
 50 850 l 1
 50 -49.9814453125 l 1
258.641601562 850 m 1
 798.353515625 400.008789062 l 1
 258.641601562 -49.9814453125 l 1
 193.475585938 28.06640625 l 1
 639.584960938 400.008789062 l 1
 193.475585938 771.952148438 l 1
 258.641601562 850 l 1
EndSplineSet
EndChar

StartChar: uF1928
Encoding: 989480 989480 36
Width: 1000
Flags: HW
LayerCount: 2
Fore
SplineSet
50 -49.9814453125 m 1
 949.98046875 -49.9814453125 l 1
 949.98046875 850 l 1
 50 850 l 1
 50 -49.9814453125 l 1
642.9609375 527.180664062 m 1
 710.311523438 459.770507812 l 1
 499.09375 248.381835938 l 1
 499.09375 248.381835938 l 1
 499.09375 248.381835938 l 1
 288.038085938 459.603515625 l 1
 355.389648438 527.014648438 l 1
 499.09375 383.205078125 l 1
 642.9609375 527.180664062 l 1
EndSplineSet
EndChar

StartChar: uF1929
Encoding: 989481 989481 37
Width: 1000
Flags: HW
LayerCount: 2
Fore
SplineSet
949.98046875 850 m 1
 50 850 l 1
 50 -49.9814453125 l 1
 949.98046875 -49.9814453125 l 1
 949.98046875 850 l 1
78.9716796875 505.854492188 m 1
 179.225585938 531.272460938 l 1
 179.225585938 531.272460938 179.0625 531.909179688 179.225585938 531.272460938 c 1
 185.176757812 507.142578125 194.877929688 472.59375 209.94140625 440.458984375 c 0
 220.604492188 417.763671875 232.555664062 399.177734375 245.810546875 384.797851562 c 0
 258.333007812 371.232421875 271.342773438 362.086914062 284.728515625 355.98828125 c 0
 300.315429688 348.913085938 316.489257812 345.9609375 331.831054688 345.276367188 c 0
 334.081054688 345.178710938 336.200195312 345.163085938 338.22265625 345.178710938 c 0
 349.666992188 345.341796875 359.188476562 347.36328125 367.340820312 350.184570312 c 0
 378.166992188 353.982421875 388.080078125 359.771484375 397.551757812 366.912109375 c 0
 407.7421875 374.591796875 417.751953125 384.047851562 428.252929688 395.0859375 c 0
 438.96484375 406.334960938 448.779296875 417.666992188 461.430664062 431.833984375 c 0
 473.49609375 445.399414062 486.000976562 459.111328125 499.614257812 472.28515625 c 0
 513.310546875 485.524414062 528.833007812 498.909179688 546.440429688 510.696289062 c 0
 563.103515625 521.865234375 582.749023438 532.348632812 605.721679688 539.685546875 c 0
 625.286132812 545.946289062 647.671875 550.055664062 673.286132812 550.15234375 c 0
 674.8671875 550.15234375 676.44921875 550.15234375 678.080078125 550.12109375 c 0
 704.556640625 549.6953125 734.294921875 543.549804688 765.044921875 527.587890625 c 0
 791.131835938 514.055664062 815.1796875 494.833984375 836.390625 471.078125 c 0
 863 441.2265625 882.629882812 407.00390625 896.373046875 373.483398438 c 0
 910.036132812 340.189453125 916.719726562 310.533203125 920.12890625 291.245117188 c 1
 920.2421875 290.641601562 920.12890625 291.245117188 920.12890625 291.245117188 c 1
 818.081054688 274.37109375 l 1
 818.081054688 274.37109375 818.146484375 273.8984375 818.081054688 274.37109375 c 1
 815.783203125 289.141601562 811.396484375 311.495117188 801.990234375 336.520507812 c 0
 792.484375 361.809570312 779.147460938 386.362304688 761.930664062 406.938476562 c 0
 748.284179688 423.2265625 733.806640625 435.112304688 719.655273438 442.921875 c 0
 703.286132812 451.970703125 688.627929688 454.969726562 676.661132812 455.116210938 c 0
 675.681640625 455.1328125 674.720703125 455.1328125 673.774414062 455.1328125 c 0
 658.7265625 455.01953125 646.383789062 452.426757812 636.03125 448.806640625 c 0
 623.73828125 444.502929688 612.715820312 438.193359375 602.477539062 430.676757812 c 0
 591.538085938 422.688476562 580.98828125 412.971679688 570.259765625 401.916992188 c 0
 559.353515625 390.731445312 549.098632812 379.041992188 536.836914062 365.297851562 c 0
 524.772460938 351.75 512.59375 338.315429688 499.501953125 325.41796875 c 0
 486.293945312 312.391601562 471.328125 299.201171875 454.454101562 287.625976562 c 0
 438.573242188 276.751953125 419.627929688 266.366210938 397.340820312 259.305664062 c 0
 380.368164062 253.942382812 361.095703125 250.387695312 339.298828125 250.174804688 c 0
 335.515625 250.126953125 331.620117188 250.192382812 327.559570312 250.37109375 c 0
 304.015625 251.447265625 275.6484375 255.587890625 246.250976562 267.962890625 c 0
 220.556640625 278.772460938 196.491210938 294.848632812 174.64453125 317.021484375 c 0
 151.997070312 339.961914062 133.868164062 367.254882812 119.145507812 396.502929688 c 0
 98.6015625 437.231445312 85.9833984375 479.311523438 78.9716796875 505.854492188 c 1
 78.77734375 506.588867188 78.9716796875 505.854492188 78.9716796875 505.854492188 c 1
EndSplineSet
EndChar

StartChar: uF192A
Encoding: 989482 989482 38
Width: 1000
Flags: HW
LayerCount: 2
Fore
SplineSet
50 -49.9814453125 m 1
 949.98046875 -49.9814453125 l 1
 949.98046875 850 l 1
 50 850 l 1
 50 -49.9814453125 l 1
235.741210938 728.5703125 m 1
 235.741210938 71.4482421875 l 1
 764.239257812 71.4482421875 l 1
 764.239257812 728.5703125 l 1
 235.741210938 728.5703125 l 1
129.889648438 823.913085938 m 1
 870.090820312 823.913085938 l 1
 870.090820312 823.610351562 l 1
 870.090820312 -23.89453125 l 1
 129.889648438 -23.89453125 l 1
 129.889648438 823.610351562 l 1
 129.889648438 823.913085938 l 1
EndSplineSet
EndChar

StartChar: uF192B
Encoding: 989483 989483 39
Width: 1000
Flags: HW
LayerCount: 2
Fore
SplineSet
50 -49.9814453125 m 1
 949.98046875 -49.9814453125 l 1
 949.98046875 850 l 1
 50 850 l 1
 50 -49.9814453125 l 1
282.481445312 732.756835938 m 1
 282.48046875 732.756835938 l 1
 312.044921875 672.498046875 l 1
 360.526367188 590.977539062 427.502929688 540.56640625 501.474609375 540.56640625 c 0
 575.461914062 540.56640625 642.438476562 590.977539062 690.909179688 672.498046875 c 1
 720.486328125 732.756835938 l 1
 282.481445312 732.756835938 l 1
151.084960938 823.913085938 m 1
 848.896484375 823.913085938 l 1
 839.521484375 779.387695312 l 1
 822.370117188 732.756835938 l 1
 805.559570312 687.024414062 l 1
 739.333007812 542.392578125 627.193359375 447.291015625 499.990234375 447.291015625 c 0
 372.787109375 447.291015625 260.6484375 542.392578125 194.427734375 687.024414062 c 1
 177.602539062 732.756835938 l 1
 160.451171875 779.387695312 l 1
 151.084960938 823.913085938 l 1
500.805664062 329.428710938 m 1
 324.21484375 77.140625 l 1
 677.393554688 77.140625 l 1
 500.805664062 329.428710938 l 1
425.9375 400.008789062 m 1
 575.673828125 400.008789062 l 1
 596.28125 370.547851562 l 1
 795.189453125 77.140625 l 1
 857.047851562 -14.1123046875 l 1
 741.2734375 -14.1123046875 l 1
 260.342773438 -14.1123046875 l 1
 144.563476562 -14.1123046875 l 1
 206.420898438 77.140625 l 1
 405.280273438 370.5 l 1
 425.9375 400.008789062 l 1
EndSplineSet
EndChar

StartChar: uF192C
Encoding: 989484 989484 40
Width: 1000
Flags: HW
LayerCount: 2
Fore
SplineSet
50 -49.9814453125 m 1
 949.98046875 -49.9814453125 l 1
 949.98046875 850 l 1
 50 850 l 1
 50 -49.9814453125 l 1
144.563476562 245.12109375 m 1
 144.563476562 339.684570312 l 1
 855.41796875 339.684570312 l 1
 855.41796875 245.12109375 l 1
 144.563476562 245.12109375 l 1
426.622070312 515.767578125 m 0
 426.622070312 556.282226562 459.470703125 589.135742188 499.990234375 589.135742188 c 0
 540.509765625 589.135742188 573.358398438 556.282226562 573.358398438 515.767578125 c 0
 573.358398438 475.252929688 540.509765625 442.399414062 499.990234375 442.399414062 c 0
 459.470703125 442.399414062 426.622070312 475.252929688 426.622070312 515.767578125 c 0
EndSplineSet
EndChar

StartChar: uF192D
Encoding: 989485 989485 41
Width: 1000
Flags: HW
LayerCount: 2
Fore
SplineSet
50 -49.9814453125 m 1
 949.98046875 -49.9814453125 l 1
 949.98046875 850 l 1
 50 850 l 1
 50 -49.9814453125 l 1
596.1171875 778.26171875 m 2
 596.1171875 778.26171875 l 2
 646.224609375 778.26171875 691.630859375 770.22265625 732.341796875 754.130859375 c 0
 773.051757812 738.0390625 807.501953125 715.490234375 835.6875 686.46875 c 0
 863.872070312 657.463867188 885.620117188 622.918945312 900.928710938 582.859375 c 0
 908.583984375 562.837890625 914.327148438 541.901367188 918.153320312 520.053710938 c 2
 923.7890625 453.077148438 l 1
 923.89453125 453.077148438 l 1
 923.89453125 451.806640625 l 1
 923.89453125 21.7568359375 l 1
 817.98828125 21.7568359375 l 1
 817.98828125 451.529296875 l 1
 817.98828125 453.077148438 l 1
 817.864257812 453.077148438 l 1
 814.103515625 499.903320312 l 2
 811.514648438 515.391601562 807.629882812 530.229492188 802.452148438 544.4140625 c 0
 792.096679688 572.815429688 777.389648438 597.286132812 758.326171875 617.845703125 c 0
 739.262695312 638.421875 715.962890625 654.399414062 688.42578125 665.795898438 c 0
 660.892578125 677.208984375 630.176757812 682.899414062 596.286132812 682.899414062 c 0
 562.39453125 682.899414062 531.80078125 677.208984375 504.499023438 665.795898438 c 0
 477.198242188 654.399414062 454.014648438 638.421875 434.953125 617.845703125 c 0
 415.887695312 597.286132812 401.177734375 572.815429688 390.823242188 544.4140625 c 0
 385.645507812 530.229492188 381.763671875 515.391601562 379.174804688 499.903320312 c 2
 375.4140625 453.077148438 l 1
 375.290039062 453.077148438 l 1
 375.290039062 451.529296875 l 1
 375.290039062 21.7568359375 l 1
 354.725585938 21.7568359375 l 1
 256.26171875 21.7568359375 l 1
 50 283.419921875 l 1
 129.8359375 346.400390625 l 1
 203.219726562 253.3046875 l 1
 201.939453125 254.25390625 l 1
 280.609375 115.176757812 l 1
 269.380859375 195.6171875 l 1
 269.380859375 451.806640625 l 1
 269.380859375 453.077148438 l 1
 269.489257812 453.077148438 l 1
 275.125976562 520.053710938 l 2
 278.953125 541.901367188 284.694335938 562.837890625 292.349609375 582.859375 c 0
 307.66015625 622.918945312 329.405273438 657.463867188 357.591796875 686.46875 c 0
 385.7734375 715.490234375 420.049804688 738.0390625 460.415039062 754.130859375 c 0
 500.77734375 770.22265625 546.010742188 778.26171875 596.1171875 778.26171875 c 2
EndSplineSet
EndChar

StartChar: uF192E
Encoding: 989486 989486 42
Width: 1000
Flags: HW
LayerCount: 2
Fore
SplineSet
50 -49.9814453125 m 1
 949.98046875 -49.9814453125 l 1
 949.98046875 850 l 1
 50 850 l 1
 50 -49.9814453125 l 1
573.358398438 400.008789062 m 0
 573.358398438 359.489257812 540.509765625 326.641601562 499.990234375 326.641601562 c 0
 459.470703125 326.641601562 426.622070312 359.489257812 426.622070312 400.008789062 c 0
 426.622070312 440.528320312 459.470703125 473.376953125 499.990234375 473.376953125 c 0
 540.509765625 473.376953125 573.358398438 440.528320312 573.358398438 400.008789062 c 0
499.436523438 573.711914062 m 0
 446.756835938 573.711914062 399.182617188 569.440429688 356.743164062 560.896484375 c 0
 314.3046875 552.370117188 278.271484375 540.403320312 248.631835938 525.01171875 c 0
 218.991210938 509.622070312 196.1328125 491.295898438 180.024414062 470.03515625 c 0
 163.932617188 448.791015625 155.87890625 425.606445312 155.87890625 400.513671875 c 0
 155.87890625 375.080078125 163.932617188 351.732421875 180.024414062 330.471679688 c 0
 196.1328125 309.229492188 218.991210938 290.903320312 248.631835938 275.51171875 c 0
 278.271484375 260.12109375 314.3046875 248.071289062 356.743164062 239.365234375 c 0
 399.182617188 230.659179688 446.756835938 226.306640625 499.436523438 226.306640625 c 0
 552.131835938 226.306640625 599.868164062 230.659179688 642.682617188 239.365234375 c 0
 685.498046875 248.071289062 721.708984375 260.12109375 751.348632812 275.51171875 c 0
 780.989257812 290.903320312 803.848632812 309.229492188 819.956054688 330.471679688 c 0
 836.048828125 351.732421875 844.1015625 375.080078125 844.1015625 400.513671875 c 0
 844.1015625 425.606445312 836.048828125 448.791015625 819.956054688 470.03515625 c 0
 803.848632812 491.295898438 780.989257812 509.622070312 751.348632812 525.01171875 c 0
 721.708984375 540.403320312 685.498046875 552.370117188 642.682617188 560.896484375 c 0
 599.868164062 569.440429688 552.131835938 573.711914062 499.436523438 573.711914062 c 0
499.272460938 669.025390625 m 0
 568.173828125 669.025390625 630.602539062 662.422851562 686.58984375 649.19921875 c 0
 742.561523438 635.977539062 789.940429688 617.456054688 828.696289062 593.603515625 c 0
 867.450195312 569.766601562 897.350585938 541.380859375 918.399414062 508.462890625 c 0
 939.448242188 475.561523438 949.98046875 439.661132812 949.98046875 400.79296875 c 0
 949.98046875 361.401367188 939.448242188 325.23828125 918.399414062 292.321289062 c 0
 897.350585938 259.403320312 867.450195312 231.03515625 828.696289062 207.182617188 c 0
 789.940429688 183.345703125 742.561523438 164.677734375 686.58984375 151.2109375 c 0
 630.602539062 137.7265625 568.173828125 130.993164062 499.272460938 130.993164062 c 0
 430.372070312 130.993164062 368.172851562 137.7265625 312.674804688 151.2109375 c 0
 257.17578125 164.677734375 210.040039062 183.345703125 171.28515625 207.182617188 c 0
 132.53125 231.03515625 102.629882812 259.403320312 81.5810546875 292.321289062 c 0
 60.5322265625 325.23828125 50 361.401367188 50 400.79296875 c 0
 50 439.661132812 60.5322265625 475.561523438 81.5810546875 508.462890625 c 0
 102.629882812 541.380859375 132.53125 569.766601562 171.28515625 593.603515625 c 0
 210.040039062 617.456054688 257.17578125 635.977539062 312.674804688 649.19921875 c 0
 368.172851562 662.422851562 430.372070312 669.025390625 499.272460938 669.025390625 c 0
EndSplineSet
EndChar

StartChar: uF192F
Encoding: 989487 989487 43
Width: 1000
Flags: HW
LayerCount: 2
Fore
SplineSet
50 -49.9814453125 m 1
 949.98046875 -49.9814453125 l 1
 949.98046875 850 l 1
 50 850 l 1
 50 -49.9814453125 l 1
129.889648438 825.543945312 m 1
 235.637695312 825.543945312 l 1
 235.637695312 388.123046875 l 1
 235.637695312 388.123046875 l 1
 235.637695312 388.041992188 l 2
 235.637695312 337.907226562 241.817382812 291.8984375 254.19140625 250.012695312 c 0
 266.549804688 208.126953125 284.125 172.014648438 306.884765625 141.65625 c 0
 329.663085938 111.313476562 357.346679688 87.576171875 389.954101562 70.4228515625 c 0
 422.546875 53.2724609375 459.099609375 44.6962890625 499.56640625 44.6962890625 c 0
 540.049804688 44.6962890625 576.733398438 53.2724609375 609.619140625 70.4228515625 c 0
 642.50390625 87.576171875 670.334960938 111.313476562 693.095703125 141.65625 c 0
 715.856445312 172.014648438 733.430664062 208.126953125 745.7890625 250.012695312 c 0
 751.984375 270.962890625 756.616210938 292.924804688 759.712890625 315.946289062 c 2
 764.342773438 388.041992188 l 1
 764.342773438 388.05859375 l 1
 764.342773438 388.123046875 l 1
 764.342773438 388.123046875 l 1
 764.342773438 825.543945312 l 1
 870.090820312 825.543945312 l 1
 870.090820312 386.720703125 l 1
 869.928710938 386.720703125 l 1
 863.6015625 296.836914062 l 2
 859.265625 267.424804688 852.776367188 239.333984375 844.119140625 212.544921875 c 0
 826.8046875 158.987304688 802.217773438 112.813476562 770.34375 74.0107421875 c 0
 738.467773438 35.20703125 699.502929688 4.8486328125 653.459960938 -17.080078125 c 0
 607.416992188 -39.0078125 556.059570312 -49.9814453125 499.403320312 -49.9814453125 c 0
 442.73046875 -49.9814453125 391.584960938 -39.0078125 345.93359375 -17.080078125 c 0
 300.282226562 4.8486328125 261.528320312 35.20703125 229.654296875 74.0107421875 c 0
 197.779296875 112.813476562 173.176757812 158.987304688 155.861328125 212.544921875 c 0
 147.205078125 239.333984375 140.71484375 267.424804688 136.37890625 296.836914062 c 2
 130.051757812 386.720703125 l 1
 129.889648438 386.720703125 l 1
 129.889648438 825.543945312 l 1
EndSplineSet
EndChar

StartChar: uF1930
Encoding: 989488 989488 44
Width: 1000
Flags: HW
LayerCount: 2
Fore
SplineSet
50 -49.9814453125 m 1
 949.98046875 -49.9814453125 l 1
 949.98046875 850 l 1
 50 850 l 1
 50 -49.9814453125 l 1
547.629882812 354.48828125 m 1
 547.629882812 49.5703125 l 1
 574.760742188 51.9677734375 l 2
 598.645507812 56.41796875 621.275390625 63.0859375 642.682617188 71.97265625 c 0
 685.498046875 89.728515625 721.708984375 114.331054688 751.348632812 145.78125 c 0
 780.989257812 177.21484375 803.848632812 214.6328125 819.956054688 258.034179688 c 0
 828.01171875 279.717773438 834.04296875 302.49609375 838.0703125 326.331054688 c 2
 840.3359375 354.48828125 l 1
 547.629882812 354.48828125 l 1
159.64453125 354.48828125 m 1
 161.91015625 326.331054688 l 2
 165.938476562 302.49609375 171.987304688 279.717773438 180.024414062 258.034179688 c 0
 196.1328125 214.6328125 218.991210938 177.21484375 248.631835938 145.78125 c 0
 278.271484375 114.331054688 314.3046875 89.728515625 356.743164062 71.97265625 c 0
 377.971679688 63.0859375 400.470703125 56.41796875 424.2578125 51.9677734375 c 2
 452.350585938 49.4892578125 l 1
 452.350585938 354.48828125 l 1
 159.64453125 354.48828125 l 1
547.629882812 750.526367188 m 1
 547.629882812 445.530273438 l 1
 840.466796875 445.530273438 l 1
 838.0703125 474.975585938 l 2
 834.04296875 498.6328125 828.01171875 521.311523438 819.956054688 543.01171875 c 0
 803.848632812 586.413085938 780.989257812 623.831054688 751.348632812 655.270507812 c 0
 721.708984375 686.705078125 685.498046875 711.138671875 642.682617188 728.565429688 c 0
 621.275390625 737.280273438 598.645507812 743.815429688 574.760742188 748.172851562 c 2
 547.629882812 750.526367188 l 1
452.350585938 750.61328125 m 1
 424.2578125 748.172851562 l 2
 400.470703125 743.815429688 377.971679688 737.280273438 356.743164062 728.565429688 c 0
 314.3046875 711.138671875 278.271484375 686.705078125 248.631835938 655.270507812 c 0
 218.991210938 623.831054688 196.1328125 586.413085938 180.024414062 543.01171875 c 0
 171.987304688 521.311523438 165.938476562 498.6328125 161.91015625 474.975585938 c 2
 159.513671875 445.530273438 l 1
 452.350585938 445.530273438 l 1
 452.350585938 750.61328125 l 1
499.272460938 850 m 0
 568.173828125 850 630.602539062 838.9453125 686.58984375 816.8359375 c 0
 742.561523438 794.725585938 789.940429688 763.728515625 828.696289062 723.845703125 c 0
 867.450195312 683.962890625 897.350585938 636.498046875 918.399414062 581.440429688 c 0
 939.448242188 526.380859375 949.98046875 466.333007812 949.98046875 401.313476562 c 0
 949.98046875 335.412109375 939.448242188 274.94140625 918.399414062 219.881835938 c 0
 897.350585938 164.82421875 867.450195312 117.362304688 828.696289062 77.466796875 c 0
 789.940429688 37.587890625 742.561523438 6.3818359375 686.58984375 -16.166015625 c 0
 630.602539062 -38.71484375 568.173828125 -49.9814453125 499.272460938 -49.9814453125 c 0
 430.372070312 -49.9814453125 368.172851562 -38.71484375 312.674804688 -16.166015625 c 0
 257.17578125 6.3818359375 210.040039062 37.587890625 171.28515625 77.466796875 c 0
 132.53125 117.362304688 102.629882812 164.82421875 81.5810546875 219.881835938 c 0
 60.5322265625 274.94140625 50 335.412109375 50 401.313476562 c 0
 50 466.333007812 60.5322265625 526.380859375 81.5810546875 581.440429688 c 0
 102.629882812 636.498046875 132.53125 683.962890625 171.28515625 723.845703125 c 0
 210.040039062 763.728515625 257.17578125 794.725585938 312.674804688 816.8359375 c 0
 368.172851562 838.9453125 430.372070312 850 499.272460938 850 c 0
EndSplineSet
EndChar

StartChar: uF1931
Encoding: 989489 989489 45
Width: 1000
Flags: HW
LayerCount: 2
Fore
SplineSet
50 -49.9814453125 m 1
 949.98046875 -49.9814453125 l 1
 949.98046875 850 l 1
 50 850 l 1
 50 -49.9814453125 l 1
499.859375 208.372070312 m 0
 486.881835938 208.372070312 475.17578125 206.203125 464.724609375 201.883789062 c 0
 454.290039062 197.578125 445.404296875 191.513671875 438.116210938 183.736328125 c 0
 430.829101562 175.943359375 425.1875 166.666015625 421.2265625 155.921875 c 0
 417.263671875 145.162109375 415.291015625 133.438476562 415.291015625 120.73828125 c 0
 415.291015625 107.875 417.263671875 96.0546875 421.2265625 85.310546875 c 0
 425.1875 74.548828125 430.829101562 65.2880859375 438.116210938 57.4951171875 c 0
 445.404296875 49.701171875 454.290039062 43.6044921875 464.724609375 39.2021484375 c 0
 475.17578125 34.7998046875 486.881835938 32.599609375 499.859375 32.599609375 c 0
 512.822265625 32.599609375 524.577148438 34.7998046875 535.109375 39.2021484375 c 0
 545.657226562 43.6044921875 554.577148438 49.701171875 561.864257812 57.4951171875 c 0
 569.16796875 65.2880859375 574.79296875 74.548828125 578.75390625 85.310546875 c 0
 582.716796875 96.0546875 584.690429688 107.875 584.690429688 120.73828125 c 0
 584.690429688 133.438476562 582.716796875 145.162109375 578.75390625 155.921875 c 0
 574.79296875 166.666015625 569.16796875 175.943359375 561.864257812 183.736328125 c 0
 554.577148438 191.513671875 545.657226562 197.578125 535.109375 201.883789062 c 0
 524.577148438 206.203125 512.822265625 208.372070312 499.859375 208.372070312 c 0
499.56640625 754.70703125 m 0
 459.361328125 754.70703125 423.068359375 749.16796875 390.688476562 738.0859375 c 0
 358.291992188 727.004882812 330.794921875 711.471679688 308.1796875 691.483398438 c 0
 285.565429688 671.493164062 268.115234375 647.702148438 255.830078125 620.11328125 c 0
 243.544921875 592.510742188 237.40234375 562.4296875 237.40234375 529.837890625 c 0
 237.40234375 496.806640625 243.544921875 466.497070312 255.830078125 438.911132812 c 0
 268.115234375 411.307617188 285.565429688 387.520507812 308.1796875 367.532226562 c 0
 330.794921875 347.54296875 358.291992188 331.908203125 390.688476562 320.608398438 c 0
 423.068359375 309.310546875 459.361328125 303.653320312 499.56640625 303.653320312 c 0
 539.772460938 303.653320312 576.211914062 309.310546875 608.884765625 320.608398438 c 0
 641.541992188 331.908203125 669.193359375 347.54296875 691.807617188 367.532226562 c 0
 714.419921875 387.520507812 731.865234375 411.307617188 744.142578125 438.911132812 c 0
 756.436523438 466.497070312 762.58203125 496.806640625 762.58203125 529.837890625 c 0
 762.58203125 562.4296875 756.436523438 592.510742188 744.142578125 620.11328125 c 0
 731.865234375 647.702148438 714.419921875 671.493164062 691.807617188 691.483398438 c 0
 669.193359375 711.471679688 641.541992188 727.004882812 608.884765625 738.0859375 c 0
 576.211914062 749.16796875 539.772460938 754.70703125 499.56640625 754.70703125 c 0
499.403320312 850 m 0
 555.815429688 850 606.944335938 842.118164062 652.791015625 826.35546875 c 0
 698.622070312 810.592773438 737.409179688 788.495117188 769.13671875 760.060546875 c 0
 800.880859375 731.624023438 825.370117188 697.78125 842.602539062 658.528320312 c 0
 859.8359375 619.282226562 868.4609375 576.467773438 868.4609375 530.115234375 c 0
 868.4609375 483.127929688 859.8359375 440.01953125 842.602539062 400.758789062 c 0
 825.370117188 361.514648438 800.880859375 327.66796875 769.13671875 299.235351562 c 0
 737.409179688 270.799804688 698.622070312 248.543945312 652.791015625 232.469726562 c 2
 629.868164062 226.779296875 l 1
 649.383789062 204.116210938 l 2
 655.270507812 195.60546875 660.274414062 186.411132812 664.399414062 176.529296875 c 0
 672.682617188 156.787109375 676.807617188 135.231445312 676.807617188 111.916992188 c 0
 676.807617188 88.2763671875 672.682617188 66.576171875 664.399414062 46.83203125 c 0
 656.1328125 27.0712890625 644.377929688 10.05078125 629.150390625 -4.2646484375 c 0
 613.922851562 -18.564453125 595.303710938 -29.763671875 573.30859375 -37.8505859375 c 0
 551.31640625 -45.9375 526.77734375 -49.9814453125 499.712890625 -49.9814453125 c 0
 472.631835938 -49.9814453125 448.193359375 -45.9375 426.376953125 -37.8505859375 c 0
 404.580078125 -29.763671875 386.05859375 -18.564453125 370.830078125 -4.2646484375 c 0
 355.602539062 10.05078125 343.849609375 27.0712890625 335.576171875 46.83203125 c 0
 327.303710938 66.576171875 323.166992188 88.2763671875 323.166992188 111.916992188 c 0
 323.166992188 135.231445312 327.303710938 156.787109375 335.576171875 176.529296875 c 0
 339.712890625 186.411132812 344.716796875 195.60546875 350.596679688 204.116210938 c 2
 369.981445312 226.6328125 l 1
 346.607421875 232.469726562 l 2
 301.161132812 248.543945312 262.571289062 270.799804688 230.837890625 299.235351562 c 0
 199.1015625 327.66796875 174.616210938 361.514648438 157.37890625 400.758789062 c 0
 140.139648438 440.01953125 131.51953125 483.127929688 131.51953125 530.115234375 c 0
 131.51953125 576.467773438 140.139648438 619.282226562 157.37890625 658.528320312 c 0
 174.616210938 697.78125 199.1015625 731.624023438 230.837890625 760.060546875 c 0
 262.571289062 788.495117188 301.161132812 810.592773438 346.607421875 826.35546875 c 0
 392.057617188 842.118164062 442.991210938 850 499.403320312 850 c 0
EndSplineSet
EndChar

StartChar: uF1932
Encoding: 989490 989490 46
Width: 1000
Flags: HW
LayerCount: 2
Fore
SplineSet
50 -49.9814453125 m 1
 951.611328125 -49.9814453125 l 1
 951.611328125 850 l 1
 50 850 l 1
 50 -49.9814453125 l 1
500.366210938 612.826171875 m 0
 458.46484375 612.826171875 420.638671875 605.86328125 386.889648438 591.907226562 c 0
 353.139648438 577.967773438 324.477539062 558.418945312 300.901367188 533.278320312 c 0
 277.326171875 508.120117188 259.1484375 478.1875 246.348632812 443.475585938 c 0
 233.534179688 408.764648438 227.143554688 370.889648438 227.143554688 329.885742188 c 0
 227.143554688 288.342773438 233.534179688 250.208007812 246.348632812 215.481445312 c 0
 259.1484375 180.76953125 277.326171875 150.834960938 300.901367188 125.678710938 c 0
 324.477539062 100.538085938 353.139648438 80.8427734375 386.889648438 66.6416015625 c 0
 420.638671875 52.423828125 458.46484375 45.31640625 500.366210938 45.31640625 c 0
 542.266601562 45.31640625 580.23828125 52.423828125 614.28125 66.6416015625 c 0
 648.325195312 80.8427734375 677.133789062 100.538085938 700.709960938 125.678710938 c 0
 724.28515625 150.834960938 742.462890625 180.76953125 755.262695312 215.481445312 c 0
 768.076171875 250.208007812 774.467773438 288.342773438 774.467773438 329.885742188 c 0
 774.467773438 370.889648438 768.076171875 408.764648438 755.262695312 443.475585938 c 0
 742.462890625 478.1875 724.28515625 508.120117188 700.709960938 533.278320312 c 0
 677.133789062 558.418945312 648.325195312 577.967773438 614.28125 591.907226562 c 0
 580.23828125 605.86328125 542.266601562 612.826171875 500.366210938 612.826171875 c 0
845.538085938 850 m 1
 951.611328125 850 l 1
 951.611328125 748.033203125 907.263671875 655.114257812 834.499023438 585.173828125 c 2
 808.673828125 563.130859375 l 1
 821.635742188 546.6640625 l 2
 834.25390625 526.67578125 845.015625 505.088867188 853.901367188 481.887695312 c 0
 871.65625 435.51953125 880.541992188 384.944335938 880.541992188 330.163085938 c 0
 880.541992188 274.6640625 871.65625 223.713867188 853.901367188 177.344726562 c 0
 836.129882812 130.9609375 810.891601562 90.9833984375 778.185546875 57.3798828125 c 0
 745.48046875 23.7783203125 705.517578125 -2.50390625 658.26953125 -21.4990234375 c 0
 611.037109375 -40.4921875 558.342773438 -49.9814453125 500.202148438 -49.9814453125 c 0
 442.061523438 -49.9814453125 389.5625 -40.4921875 342.73828125 -21.4990234375 c 0
 295.897460938 -2.50390625 256.130859375 23.7783203125 223.42578125 57.3798828125 c 0
 190.71875 90.9833984375 165.481445312 130.9609375 147.708984375 177.344726562 c 0
 129.955078125 223.713867188 121.069335938 274.6640625 121.069335938 330.163085938 c 0
 121.069335938 384.944335938 129.955078125 435.51953125 147.708984375 481.887695312 c 0
 156.595703125 505.088867188 167.357421875 526.67578125 179.958984375 546.6640625 c 2
 192.9375 563.130859375 l 1
 167.111328125 585.173828125 l 2
 94.34765625 655.112304688 50 748.03125 50 850 c 1
 156.073242188 850 l 1
 156.073242188 772.700195312 189.986328125 702.26171875 245.631835938 649.239257812 c 1
 264.104492188 635.374023438 l 1
 277.783203125 646.6328125 l 2
 297.658203125 659.690429688 319.30859375 670.872070312 342.73828125 680.18359375 c 0
 389.5625 698.80859375 442.061523438 708.120117188 500.202148438 708.120117188 c 0
 558.342773438 708.120117188 611.037109375 698.80859375 658.26953125 680.18359375 c 0
 681.89453125 670.872070312 703.693359375 659.690429688 723.681640625 646.6328125 c 2
 737.44140625 635.325195312 l 1
 755.979492188 649.240234375 l 1
 811.624023438 702.263671875 845.538085938 772.700195312 845.538085938 850 c 1
EndSplineSet
EndChar

StartChar: uF1933
Encoding: 989491 989491 47
Width: 1000
Flags: HW
LayerCount: 2
Fore
SplineSet
50 -49.9814453125 m 1
 949.98046875 -49.9814453125 l 1
 949.98046875 850 l 1
 50 850 l 1
 50 -49.9814453125 l 1
499.745117188 498.893554688 m 0
 476.822265625 498.893554688 456.116210938 494.833984375 437.643554688 486.73046875 c 0
 419.170898438 478.626953125 403.486328125 467.279296875 390.590820312 452.655273438 c 0
 377.694335938 438.046875 367.748046875 420.650390625 360.737304688 400.465820312 c 0
 353.727539062 380.282226562 350.239257812 358.287109375 350.239257812 334.451171875 c 0
 350.239257812 310.305664062 353.727539062 288.146484375 360.737304688 267.962890625 c 0
 367.748046875 247.794921875 377.694335938 230.3984375 390.590820312 215.774414062 c 0
 403.486328125 201.166015625 419.170898438 189.719726562 437.643554688 181.454101562 c 0
 456.116210938 173.204101562 476.822265625 169.0625 499.745117188 169.0625 c 0
 522.685546875 169.0625 543.45703125 173.204101562 562.091796875 181.454101562 c 0
 580.7265625 189.719726562 596.494140625 201.166015625 609.389648438 215.774414062 c 0
 622.286132812 230.3984375 632.232421875 247.794921875 639.243164062 267.962890625 c 0
 646.25390625 288.146484375 649.7421875 310.305664062 649.7421875 334.451171875 c 0
 649.7421875 358.287109375 646.25390625 380.282226562 639.243164062 400.465820312 c 0
 632.232421875 420.650390625 622.286132812 438.046875 609.389648438 452.655273438 c 0
 596.494140625 467.279296875 580.7265625 478.626953125 562.091796875 486.73046875 c 0
 543.45703125 494.833984375 522.685546875 498.893554688 499.745117188 498.893554688 c 0
499.583007812 594.026367188 m 0
 538.77734375 594.026367188 574.288085938 587.635742188 606.12890625 574.853515625 c 0
 637.970703125 562.087890625 664.921875 544.168945312 686.963867188 521.131835938 c 0
 709.0078125 498.078125 726.028320312 470.638671875 737.997070312 438.828125 c 0
 749.979492188 407.00390625 755.962890625 372.30859375 755.962890625 334.727539062 c 0
 755.962890625 296.641601562 749.979492188 261.702148438 737.997070312 229.877929688 c 0
 726.028320312 198.067382812 709.0078125 170.627929688 686.963867188 147.58984375 c 0
 664.921875 124.537109375 637.970703125 106.504882812 606.12890625 93.478515625 c 0
 574.288085938 80.451171875 538.77734375 73.9296875 499.583007812 73.9296875 c 0
 460.387695312 73.9296875 425.0078125 80.451171875 393.444335938 93.478515625 c 0
 361.86328125 106.504882812 335.05859375 124.537109375 313.016601562 147.58984375 c 0
 290.97265625 170.627929688 273.952148438 198.067382812 261.983398438 229.877929688 c 0
 250.000976562 261.702148438 244.017578125 296.641601562 244.017578125 334.727539062 c 0
 244.017578125 372.30859375 250.000976562 407.00390625 261.983398438 438.828125 c 0
 273.952148438 470.638671875 290.97265625 498.078125 313.016601562 521.131835938 c 0
 335.05859375 544.168945312 361.86328125 562.087890625 393.444335938 574.853515625 c 0
 425.0078125 587.635742188 460.387695312 594.026367188 499.583007812 594.026367188 c 0
498.490234375 765.21875 m 0
 563.526367188 765.21875 622.465820312 754.59765625 675.290039062 733.352539062 c 0
 728.131835938 712.108398438 772.836914062 682.326171875 809.423828125 644.005859375 c 0
 845.993164062 605.684570312 874.216796875 560.065429688 894.08984375 507.17578125 c 0
 913.965820312 454.26953125 923.89453125 396.568359375 923.89453125 334.092773438 c 2
 923.796875 332.8359375 l 1
 923.89453125 332.8359375 l 1
 923.89453125 83.7119140625 l 1
 817.983398438 83.7119140625 l 1
 817.983398438 332.8359375 l 1
 817.90234375 332.8359375 l 1
 817.983398438 333.815429688 l 2
 817.983398438 382.514648438 810.516601562 427.48046875 795.615234375 468.713867188 c 0
 780.696289062 509.946289062 759.500976562 545.490234375 732.044921875 575.358398438 c 0
 704.58984375 605.227539062 671.036132812 628.4453125 631.368164062 645.00390625 c 0
 591.716796875 661.5625 547.483398438 669.841796875 498.670898438 669.841796875 c 0
 449.85546875 669.841796875 405.78515625 661.5625 366.459960938 645.00390625 c 0
 327.15234375 628.4453125 293.760742188 605.227539062 266.3046875 575.358398438 c 0
 238.849609375 545.490234375 217.654296875 509.946289062 202.752929688 468.713867188 c 0
 187.833984375 427.48046875 180.3671875 382.514648438 180.3671875 333.815429688 c 2
 180.448242188 332.8359375 l 1
 180.3671875 332.8359375 l 1
 180.3671875 83.7119140625 l 1
 74.4560546875 83.7119140625 l 1
 74.4560546875 332.8359375 l 1
 74.552734375 332.8359375 l 1
 74.4560546875 334.092773438 l 2
 74.4560546875 396.568359375 84.384765625 454.26953125 104.259765625 507.17578125 c 0
 124.133789062 560.065429688 152.357421875 605.684570312 188.942382812 644.005859375 c 0
 225.513671875 682.326171875 269.989257812 712.108398438 322.374023438 733.352539062 c 0
 374.759765625 754.59765625 433.470703125 765.21875 498.490234375 765.21875 c 0
EndSplineSet
EndChar

StartChar: uF1934
Encoding: 989492 989492 48
Width: 1000
Flags: HW
LayerCount: 2
Fore
SplineSet
50 850 m 1
 50 -49.9814453125 l 1
 949.98046875 -49.9814453125 l 1
 949.98046875 850 l 1
 50 850 l 1
529.985351562 750.625976562 m 0
 510.640625 750.625976562 493.178710938 747.268554688 477.594726562 740.53515625 c 0
 462.01171875 733.817382812 448.782226562 724.393554688 437.901367188 712.262695312 c 0
 427.020507812 700.149414062 418.623046875 685.705078125 412.71484375 668.975585938 c 0
 406.802734375 652.232421875 403.84765625 633.987304688 403.84765625 614.2109375 c 0
 403.84765625 594.172851562 406.802734375 575.782226562 412.71484375 559.0703125 c 0
 418.623046875 542.327148438 427.020507812 527.8984375 437.901367188 515.751953125 c 0
 448.782226562 503.63671875 462.01171875 494.1484375 477.594726562 487.28515625 c 0
 493.178710938 480.436523438 510.640625 477.013671875 529.985351562 477.013671875 c 0
 549.327148438 477.013671875 566.857421875 480.436523438 582.575195312 487.28515625 c 0
 598.291992188 494.1484375 611.591796875 503.63671875 622.47265625 515.751953125 c 0
 633.3515625 527.8984375 641.749023438 542.327148438 647.658203125 559.0703125 c 0
 653.569335938 575.782226562 656.524414062 594.172851562 656.524414062 614.2109375 c 0
 656.524414062 633.987304688 653.569335938 652.232421875 647.658203125 668.975585938 c 0
 641.749023438 685.705078125 633.3515625 700.149414062 622.47265625 712.262695312 c 0
 611.591796875 724.393554688 598.291992188 733.817382812 582.575195312 740.53515625 c 0
 566.857421875 747.268554688 549.327148438 750.625976562 529.985351562 750.625976562 c 0
529.802734375 844.75 m 0
 565.379882812 844.75 597.620117188 839.043945312 626.526367188 827.646484375 c 0
 655.430664062 816.234375 679.889648438 800.240234375 699.90234375 779.665039062 c 0
 719.9140625 759.088867188 735.35546875 734.599609375 746.2265625 706.198242188 c 0
 751.661132812 691.997070312 755.73828125 677.161132812 758.45703125 661.672851562 c 2
 762.438476562 614.390625 l 1
 762.532226562 613.640625 l 1
 762.513671875 613.494140625 l 1
 762.532226562 613.28125 l 1
 762.4765625 612.614257812 l 1
 758.65234375 564.826171875 l 2
 756.068359375 549.353515625 752.188476562 534.598632812 747.01953125 520.512695312 c 0
 736.680664062 492.372070312 721.994140625 468.094726562 702.958984375 447.698242188 c 0
 683.927734375 427.318359375 660.663085938 411.356445312 633.168945312 399.829101562 c 0
 605.676757812 388.303710938 575.009765625 382.547851562 541.171875 382.547851562 c 0
 507.334960938 382.547851562 476.786132812 388.303710938 449.529296875 399.829101562 c 0
 422.26953125 411.356445312 399.124023438 427.318359375 380.090820312 447.698242188 c 2
 378.772460938 449.443359375 l 1
 377.96484375 399.87890625 l 2
 378.487304688 375.048828125 379.9765625 347.037109375 383.071289062 316.043945312 c 0
 389.549804688 251.169921875 401.703125 186.96484375 418.170898438 124.797851562 c 0
 434.091796875 64.701171875 451.301757812 17.02734375 461.015625 -8.6337890625 c 1
 364.5625 -45.4482421875 l 1
 353.970703125 -17.9921875 335.076171875 33.1201171875 317.469726562 97.7822265625 c 0
 299.264648438 164.661132812 285.556640625 234.34375 278.099609375 305.299804688 c 0
 274.533203125 339.211914062 272.752929688 370.04296875 272.09375 397.482421875 c 0
 270.764648438 452.76953125 273.654296875 507.73046875 281.140625 561.729492188 c 0
 288.52734375 614.994140625 298.875976562 656.12890625 302.97265625 668.333007812 c 2
 314.120117188 706.198242188 l 2
 324.991210938 734.599609375 340.430664062 759.088867188 360.444335938 779.665039062 c 0
 380.455078125 800.240234375 404.791992188 816.234375 433.451171875 827.646484375 c 0
 462.107421875 839.043945312 494.224609375 844.75 529.802734375 844.75 c 0
EndSplineSet
EndChar

StartChar: uF1935
Encoding: 989493 989493 49
Width: 1000
Flags: HW
LayerCount: 2
Fore
SplineSet
50 -49.9814453125 m 1
 949.98046875 -49.9814453125 l 1
 949.98046875 850 l 1
 50 850 l 1
 50 -49.9814453125 l 1
499.403320312 850 m 1
 499.403320312 850 l 1
 555.228515625 850 605.802734375 841.049804688 651.16015625 823.149414062 c 0
 696.518554688 805.25 734.883789062 780.153320312 766.28515625 747.864257812 c 0
 797.686523438 715.573242188 821.911132812 677.138671875 838.965820312 632.5703125 c 0
 856.01953125 587.995117188 864.548828125 539.375 864.548828125 486.729492188 c 0
 864.548828125 433.3828125 856.01953125 384.421875 838.965820312 339.846679688 c 0
 823.1953125 298.627929688 801.212890625 262.72265625 773.176757812 232.014648438 c 1
 773.048828125 232.26953125 l 1
 729.671875 213.181640625 l 1
 777.927734375 216.671875 l 1
 923.895507812 216.671875 l 1
 923.895507812 -23.89453125 l 1
 817.919921875 -23.89453125 l 1
 817.919921875 121.357421875 l 1
 182.064453125 121.357421875 l 1
 182.064453125 -23.89453125 l 1
 76.087890625 -23.89453125 l 1
 76.087890625 216.671875 l 1
 221.422851562 216.671875 l 1
 269.67578125 213.181640625 l 1
 226.75390625 232.071289062 l 1
 198.740234375 262.767578125 176.774414062 298.653320312 161.015625 339.846679688 c 0
 143.9609375 384.421875 135.431640625 433.3828125 135.431640625 486.729492188 c 0
 135.431640625 539.375 143.9609375 587.995117188 161.015625 632.5703125 c 0
 178.069335938 677.138671875 202.297851562 715.573242188 233.698242188 747.864257812 c 0
 265.099609375 780.153320312 303.267578125 805.25 348.234375 823.149414062 c 0
 393.201171875 841.049804688 443.594726562 850 499.403320312 850 c 1
499.583984375 754.681640625 m 0
 459.981445312 754.681640625 424.240234375 748.072265625 392.350585938 734.85546875 c 0
 360.4609375 721.640625 333.37890625 703.107421875 311.107421875 679.266601562 c 0
 288.8359375 655.422851562 271.653320312 627.041992188 259.555664062 594.141601562 c 0
 247.458007812 561.22265625 241.408203125 525.3203125 241.408203125 486.452148438 c 0
 241.408203125 447.061523438 247.458007812 410.899414062 259.555664062 377.999023438 c 0
 271.653320312 345.080078125 288.8359375 316.7109375 311.107421875 292.858398438 c 0
 333.37890625 269.021484375 360.4609375 250.353515625 392.350585938 236.88671875 c 0
 424.240234375 223.403320312 459.981445312 216.671875 499.583984375 216.671875 c 0
 539.170898438 216.671875 575.053710938 223.403320312 607.22265625 236.88671875 c 0
 639.391601562 250.353515625 666.6015625 269.021484375 688.873046875 292.858398438 c 0
 711.14453125 316.7109375 728.327148438 345.080078125 740.424804688 377.999023438 c 0
 752.522460938 410.899414062 758.573242188 447.061523438 758.573242188 486.452148438 c 0
 758.573242188 525.3203125 752.522460938 561.22265625 740.424804688 594.141601562 c 0
 728.327148438 627.041992188 711.14453125 655.422851562 688.873046875 679.266601562 c 0
 666.6015625 703.107421875 639.391601562 721.640625 607.22265625 734.85546875 c 0
 575.053710938 748.072265625 539.170898438 754.681640625 499.583984375 754.681640625 c 0
EndSplineSet
EndChar

StartChar: uF1936
Encoding: 989494 989494 50
Width: 1000
Flags: HW
LayerCount: 2
Fore
SplineSet
50 -49.9814453125 m 1
 949.98046875 -49.9814453125 l 1
 949.98046875 850 l 1
 50 850 l 1
 50 -49.9814453125 l 1
346.064453125 732.756835938 m 1
 346.064453125 732.756835938 l 1
 375.640625 672.498046875 l 1
 424.111328125 590.977539062 491.088867188 540.56640625 565.059570312 540.56640625 c 0
 639.046875 540.56640625 706.024414062 590.977539062 754.495117188 672.498046875 c 1
 784.071289062 732.756835938 l 1
 346.064453125 732.756835938 l 1
214.669921875 823.913085938 m 1
 912.481445312 823.913085938 l 1
 903.106445312 779.385742188 l 1
 885.956054688 732.756835938 l 1
 869.145507812 687.024414062 l 1
 802.91796875 542.392578125 690.779296875 447.291015625 563.576171875 447.291015625 c 0
 436.373046875 447.291015625 324.233398438 542.392578125 258.006835938 687.024414062 c 1
 241.196289062 732.756835938 l 1
 224.044921875 779.385742188 l 1
 214.669921875 823.913085938 l 1
563.57421875 416.313476562 m 0
 608.182617188 416.313476562 648.618164062 409.15625 684.861328125 394.825195312 c 0
 721.12109375 380.509765625 751.788085938 360.422851562 776.879882812 334.580078125 c 0
 801.970703125 308.73828125 821.341796875 277.98828125 834.97265625 242.315429688 c 0
 848.603515625 206.642578125 855.416015625 167.741210938 855.416015625 125.611328125 c 2
 854.766601562 117.8515625 l 1
 855.416015625 117.8515625 l 1
 855.416015625 -14.1123046875 l 1
 823.951171875 -14.1123046875 l 1
 749.506835938 -14.1123046875 l 1
 749.506835938 117.8515625 l 1
 748.872070312 117.8515625 l 1
 749.458984375 125.334960938 l 2
 749.458984375 153.670898438 745.120117188 179.83984375 736.448242188 203.838867188 c 0
 727.7734375 227.837890625 715.450195312 248.528320312 699.48828125 265.909179688 c 0
 683.508789062 283.3046875 663.994140625 296.803710938 640.924804688 306.439453125 c 0
 617.869140625 316.075195312 592.142578125 320.903320312 563.740234375 320.903320312 c 0
 535.356445312 320.903320312 509.724609375 316.075195312 486.8515625 306.439453125 c 0
 463.9921875 296.803710938 444.572265625 283.3046875 428.594726562 265.909179688 c 0
 412.633789062 248.528320312 400.30859375 227.837890625 391.633789062 203.838867188 c 0
 382.959960938 179.83984375 378.623046875 153.670898438 378.623046875 125.334960938 c 2
 379.208984375 117.8515625 l 1
 378.654296875 117.8515625 l 1
 378.654296875 -14.1123046875 l 1
 258.772460938 -14.1123046875 l 1
 53.2587890625 246.63671875 l 1
 133.1328125 309.668945312 l 1
 205.500976562 217.850585938 l 1
 283.870117188 79.3076171875 l 1
 274.44921875 146.81640625 l 1
 277.767578125 186.375976562 l 2
 281.174804688 205.827148438 286.294921875 224.48046875 293.111328125 242.315429688 c 0
 306.740234375 277.98828125 326.106445312 308.73828125 351.19921875 334.580078125 c 0
 376.290039062 360.422851562 406.8125 380.509765625 442.74609375 394.825195312 c 0
 478.680664062 409.15625 518.965820312 416.313476562 563.57421875 416.313476562 c 0
EndSplineSet
EndChar

StartChar: uF1937
Encoding: 989495 989495 51
Width: 1000
Flags: HW
LayerCount: 2
Fore
SplineSet
50 -49.9814453125 m 1
 949.98046875 -49.9814453125 l 1
 949.98046875 850 l 1
 50 850 l 1
 50 -49.9814453125 l 1
499.436523438 754.70703125 m 0
 446.756835938 754.70703125 399.182617188 745.995117188 356.743164062 728.565429688 c 0
 314.3046875 711.138671875 278.271484375 686.705078125 248.631835938 655.270507812 c 0
 218.991210938 623.831054688 196.1328125 586.413085938 180.024414062 543.01171875 c 0
 163.932617188 499.610351562 155.87890625 452.296875 155.87890625 401.036132812 c 0
 155.87890625 349.090820312 163.932617188 301.418945312 180.024414062 258.034179688 c 0
 196.1328125 214.6328125 218.991210938 177.21484375 248.631835938 145.78125 c 0
 278.271484375 114.331054688 314.3046875 89.728515625 356.743164062 71.97265625 c 0
 399.182617188 54.2021484375 446.756835938 45.31640625 499.436523438 45.31640625 c 0
 552.131835938 45.31640625 599.868164062 54.2021484375 642.682617188 71.97265625 c 0
 685.498046875 89.728515625 721.708984375 114.331054688 751.348632812 145.78125 c 0
 780.989257812 177.21484375 803.848632812 214.6328125 819.956054688 258.034179688 c 0
 836.048828125 301.418945312 844.1015625 349.090820312 844.1015625 401.036132812 c 0
 844.1015625 452.296875 836.048828125 499.610351562 819.956054688 543.01171875 c 0
 803.848632812 586.413085938 780.989257812 623.831054688 751.348632812 655.270507812 c 0
 721.708984375 686.705078125 685.498046875 711.138671875 642.682617188 728.565429688 c 0
 599.868164062 745.995117188 552.131835938 754.70703125 499.436523438 754.70703125 c 0
499.272460938 850 m 0
 568.173828125 850 630.602539062 838.9453125 686.58984375 816.8359375 c 0
 742.561523438 794.725585938 789.940429688 763.728515625 828.696289062 723.845703125 c 0
 867.450195312 683.962890625 897.350585938 636.498046875 918.399414062 581.440429688 c 0
 939.448242188 526.380859375 949.98046875 466.333007812 949.98046875 401.313476562 c 0
 949.98046875 335.412109375 939.448242188 274.94140625 918.399414062 219.881835938 c 0
 897.350585938 164.82421875 867.450195312 117.362304688 828.696289062 77.466796875 c 0
 789.940429688 37.587890625 742.561523438 6.3818359375 686.58984375 -16.166015625 c 0
 630.602539062 -38.71484375 568.173828125 -49.9814453125 499.272460938 -49.9814453125 c 0
 430.372070312 -49.9814453125 368.172851562 -38.71484375 312.674804688 -16.166015625 c 0
 257.17578125 6.3818359375 210.040039062 37.587890625 171.28515625 77.466796875 c 0
 132.53125 117.362304688 102.629882812 164.82421875 81.5810546875 219.881835938 c 0
 60.5322265625 274.94140625 50 335.412109375 50 401.313476562 c 0
 50 466.333007812 60.5322265625 526.380859375 81.5810546875 581.440429688 c 0
 102.629882812 636.498046875 132.53125 683.962890625 171.28515625 723.845703125 c 0
 210.040039062 763.728515625 257.17578125 794.725585938 312.674804688 816.8359375 c 0
 368.172851562 838.9453125 430.372070312 850 499.272460938 850 c 0
271.342773438 538.755859375 m 1
 350.694335938 459.404296875 l 1
 430.045898438 538.755859375 l 1
 489.735351562 479.051757812 l 1
 410.383789062 399.69921875 l 1
 489.735351562 320.34765625 l 1
 430.045898438 260.659179688 l 1
 350.694335938 340.010742188 l 1
 271.342773438 260.659179688 l 1
 211.655273438 320.34765625 l 1
 291.005859375 399.69921875 l 1
 211.655273438 479.051757812 l 1
 271.342773438 538.755859375 l 1
570.244140625 538.755859375 m 1
 649.595703125 459.404296875 l 1
 728.947265625 538.755859375 l 1
 788.63671875 479.051757812 l 1
 709.28515625 399.69921875 l 1
 788.63671875 320.34765625 l 1
 728.947265625 260.659179688 l 1
 649.595703125 340.010742188 l 1
 570.244140625 260.659179688 l 1
 510.556640625 320.34765625 l 1
 589.907226562 399.69921875 l 1
 510.556640625 479.051757812 l 1
 570.244140625 538.755859375 l 1
EndSplineSet
EndChar

StartChar: uF1938
Encoding: 989496 989496 52
Width: 1000
Flags: HW
LayerCount: 2
Fore
SplineSet
949.98046875 -49.9814453125 m 1
 949.98046875 850 l 1
 50 850 l 1
 50 -49.9814453125 l 1
 949.98046875 -49.9814453125 l 1
286.408203125 400.008789062 m 0
 286.408203125 359.489257812 253.559570312 326.641601562 213.040039062 326.641601562 c 0
 172.520507812 326.641601562 139.671875 359.489257812 139.671875 400.008789062 c 0
 139.671875 440.528320312 172.520507812 473.376953125 213.040039062 473.376953125 c 0
 253.559570312 473.376953125 286.408203125 440.528320312 286.408203125 400.008789062 c 0
785.310546875 823.913085938 m 1
 785.310546875 728.53515625 l 1
 490.336914062 728.53515625 l 1
 490.336914062 71.4833984375 l 1
 785.310546875 71.4833984375 l 1
 785.310546875 -23.89453125 l 1
 384.232421875 -23.89453125 l 1
 384.232421875 -23.89453125 l 1
 384.232421875 823.913085938 l 1
 785.310546875 823.913085938 l 1
EndSplineSet
EndChar

StartChar: uF193B
Encoding: 989499 989499 53
Width: 1000
Flags: HW
LayerCount: 2
Fore
SplineSet
50 -49.9814453125 m 1
 949.98046875 -49.9814453125 l 1
 949.98046875 850 l 1
 50 850 l 1
 50 -49.9814453125 l 1
759.255859375 754.702148438 m 0
 745.642578125 754.702148438 733.349609375 752.37109375 722.377929688 747.692382812 c 0
 711.404296875 742.997070312 702.094726562 736.44140625 694.431640625 727.997070312 c 0
 686.768554688 719.551757812 680.868164062 709.4921875 676.693359375 697.833984375 c 0
 672.536132812 686.17578125 670.463867188 673.458984375 670.463867188 659.682617188 c 0
 670.463867188 645.7421875 672.536132812 632.928710938 676.693359375 621.270507812 c 0
 680.868164062 609.612304688 686.768554688 599.553710938 694.431640625 591.108398438 c 0
 702.094726562 582.663085938 711.404296875 576.060546875 722.377929688 571.282226562 c 0
 733.349609375 566.505859375 745.642578125 564.125976562 759.255859375 564.125976562 c 0
 772.87109375 564.125976562 785.212890625 566.505859375 796.284179688 571.282226562 c 0
 807.336914062 576.060546875 816.6953125 582.663085938 824.358398438 591.108398438 c 0
 832.022460938 599.553710938 837.940429688 609.612304688 842.09765625 621.270507812 c 0
 846.254882812 632.928710938 848.341796875 645.7421875 848.341796875 659.682617188 c 0
 848.341796875 673.458984375 846.254882812 686.17578125 842.09765625 697.833984375 c 0
 837.940429688 709.4921875 832.022460938 719.551757812 824.358398438 727.997070312 c 0
 816.6953125 736.44140625 807.336914062 742.997070312 796.284179688 747.692382812 c 0
 785.212890625 752.37109375 772.87109375 754.702148438 759.255859375 754.702148438 c 0
240.446289062 754.702148438 m 0
 226.833007812 754.702148438 214.5234375 752.37109375 203.568359375 747.692382812 c 0
 192.594726562 742.997070312 183.28515625 736.44140625 175.622070312 727.997070312 c 0
 167.958984375 719.551757812 162.041015625 709.4921875 157.883789062 697.833984375 c 0
 153.7265625 686.17578125 151.638671875 673.458984375 151.638671875 659.682617188 c 0
 151.638671875 645.7421875 153.7265625 632.928710938 157.883789062 621.270507812 c 0
 162.041015625 609.612304688 167.958984375 599.553710938 175.622070312 591.108398438 c 0
 183.28515625 582.663085938 192.594726562 576.060546875 203.568359375 571.282226562 c 0
 214.5234375 566.505859375 226.833007812 564.125976562 240.446289062 564.125976562 c 0
 254.061523438 564.125976562 266.403320312 566.505859375 277.45703125 571.282226562 c 0
 288.52734375 576.060546875 297.885742188 582.663085938 305.548828125 591.108398438 c 0
 313.212890625 599.553710938 319.11328125 609.612304688 323.288085938 621.270507812 c 0
 327.4453125 632.928710938 329.516601562 645.7421875 329.516601562 659.682617188 c 0
 329.516601562 673.458984375 327.4453125 686.17578125 323.288085938 697.833984375 c 0
 319.11328125 709.4921875 313.212890625 719.551757812 305.548828125 727.997070312 c 0
 297.885742188 736.44140625 288.52734375 742.997070312 277.45703125 747.692382812 c 0
 266.403320312 752.37109375 254.061523438 754.702148438 240.446289062 754.702148438 c 0
240.284179688 850 m 0
 269.451171875 850 295.913085938 845.3203125 319.619140625 835.9609375 c 0
 343.325195312 826.586914062 363.37890625 813.461914062 379.797851562 796.572265625 c 0
 396.21484375 779.680664062 408.883789062 759.578125 417.801757812 736.263671875 c 0
 426.703125 712.931640625 431.170898438 687.513671875 431.170898438 659.9609375 c 0
 431.170898438 632.064453125 426.703125 606.450195312 417.801757812 583.119140625 c 0
 408.883789062 559.8046875 396.21484375 539.701171875 379.797851562 522.811523438 c 0
 363.37890625 505.919921875 343.325195312 492.697265625 319.619140625 483.159179688 c 2
 294.576171875 476.002929688 l 1
 294.576171875 261.9296875 l 1
 294.576171875 261.310546875 l 1
 294.625 261.310546875 l 1
 298.178710938 216.442382812 l 2
 300.592773438 201.916015625 304.196289062 188.057617188 309.005859375 174.8515625 c 0
 318.608398438 148.422851562 332.254882812 125.62890625 349.944335938 106.48828125 c 0
 367.634765625 87.3486328125 389.155273438 72.3642578125 414.491210938 61.5390625 c 0
 439.8125 50.7275390625 468.213867188 45.31640625 499.6640625 45.31640625 c 0
 531.114257812 45.31640625 559.614257812 50.7275390625 585.163085938 61.5390625 c 0
 610.7265625 72.3642578125 632.345703125 87.3486328125 650.036132812 106.48828125 c 0
 667.725585938 125.62890625 681.372070312 148.422851562 690.974609375 174.8515625 c 0
 695.78515625 188.057617188 699.387695312 201.916015625 701.801757812 216.442382812 c 2
 705.35546875 261.310546875 l 1
 705.405273438 261.310546875 l 1
 705.405273438 261.9296875 l 1
 705.405273438 475.872070312 l 1
 680.068359375 483.159179688 l 2
 656.55859375 492.697265625 636.6015625 505.919921875 620.182617188 522.811523438 c 0
 603.765625 539.701171875 591.096679688 559.8046875 582.1953125 583.119140625 c 0
 573.27734375 606.450195312 568.809570312 632.064453125 568.809570312 659.9609375 c 0
 568.809570312 687.513671875 573.27734375 712.931640625 582.1953125 736.263671875 c 0
 591.096679688 759.578125 603.765625 779.680664062 620.182617188 796.572265625 c 0
 636.6015625 813.461914062 656.55859375 826.586914062 680.068359375 835.9609375 c 0
 703.5625 845.3203125 729.908203125 850 759.09375 850 c 0
 788.278320312 850 814.72265625 845.3203125 838.428710938 835.9609375 c 0
 862.134765625 826.586914062 882.204101562 813.461914062 898.607421875 796.572265625 c 0
 915.024414062 779.680664062 927.693359375 759.578125 936.611328125 736.263671875 c 0
 945.529296875 712.931640625 949.98046875 687.513671875 949.98046875 659.9609375 c 0
 949.98046875 632.064453125 945.529296875 606.450195312 936.611328125 583.119140625 c 0
 927.693359375 559.8046875 915.024414062 539.701171875 898.607421875 522.811523438 c 0
 882.204101562 505.919921875 862.134765625 492.697265625 838.428710938 483.159179688 c 2
 811.282226562 475.399414062 l 1
 811.282226562 262.208984375 l 1
 811.282226562 261.310546875 l 1
 811.201171875 261.310546875 l 1
 805.821289062 196.6484375 l 2
 802.168945312 175.732421875 796.70703125 155.7421875 789.435546875 136.69921875 c 0
 774.875 98.61328125 754.186523438 65.77734375 727.366210938 38.19140625 c 0
 700.561523438 10.6044921875 667.791015625 -10.998046875 629.069335938 -26.5859375 c 0
 590.346679688 -42.1875 547.157226562 -49.9814453125 499.501953125 -49.9814453125 c 0
 451.828125 -49.9814453125 408.802734375 -42.1875 370.405273438 -26.5859375 c 0
 332.009765625 -10.998046875 299.418945312 10.6044921875 272.615234375 38.19140625 c 0
 245.794921875 65.77734375 225.10546875 98.61328125 210.544921875 136.69921875 c 0
 203.2734375 155.7421875 197.8125 175.732421875 194.16015625 196.6484375 c 2
 188.780273438 261.310546875 l 1
 188.698242188 261.310546875 l 1
 188.698242188 262.208984375 l 1
 188.698242188 475.268554688 l 1
 161.243164062 483.159179688 l 2
 137.749023438 492.697265625 117.776367188 505.919921875 101.373046875 522.811523438 c 0
 84.9560546875 539.701171875 72.287109375 559.8046875 63.369140625 583.119140625 c 0
 54.4521484375 606.450195312 50 632.064453125 50 659.9609375 c 0
 50 687.513671875 54.4521484375 712.931640625 63.369140625 736.263671875 c 0
 72.287109375 759.578125 84.9560546875 779.680664062 101.373046875 796.572265625 c 0
 117.776367188 813.461914062 137.749023438 826.586914062 161.243164062 835.9609375 c 0
 184.752929688 845.3203125 211.099609375 850 240.284179688 850 c 0
EndSplineSet
EndChar

StartChar: uF193C
Encoding: 989500 989500 54
Width: 1000
Flags: HW
LayerCount: 2
Fore
SplineSet
50 -49.9814453125 m 1
 949.98046875 -49.9814453125 l 1
 949.98046875 850 l 1
 50 850 l 1
 50 -49.9814453125 l 1
708.744140625 99.2001953125 m 1
 708.744140625 700.818359375 l 1
 814.595703125 700.818359375 l 1
 814.595703125 99.2001953125 l 1
 708.744140625 99.2001953125 l 1
185.385742188 99.2001953125 m 1
 185.385742188 700.818359375 l 1
 291.237304688 700.818359375 l 1
 291.237304688 99.2001953125 l 1
 185.385742188 99.2001953125 l 1
447.064453125 99.2001953125 m 1
 447.064453125 700.818359375 l 1
 552.916015625 700.818359375 l 1
 552.916015625 99.2001953125 l 1
 447.064453125 99.2001953125 l 1
EndSplineSet
EndChar

StartChar: uF193D
Encoding: 989501 989501 55
Width: 1000
Flags: HW
LayerCount: 2
Fore
SplineSet
50 -49.9814453125 m 1
 949.98046875 -49.9814453125 l 1
 949.98046875 850 l 1
 50 850 l 1
 50 -49.9814453125 l 1
382.9140625 523.528320312 m 1
 382.9140625 275.576171875 l 1
 619.01953125 275.576171875 l 1
 619.01953125 523.528320312 l 1
 382.9140625 523.528320312 l 1
619.01953125 830.434570312 m 1
 724.995117188 830.434570312 l 1
 724.995117188 618.858398438 l 1
 923.89453125 618.858398438 l 1
 923.89453125 523.528320312 l 1
 724.995117188 523.528320312 l 1
 724.995117188 275.576171875 l 1
 923.89453125 275.576171875 l 1
 923.89453125 180.247070312 l 1
 724.995117188 180.247070312 l 1
 724.995117188 -16.884765625 l 1
 619.01953125 -16.884765625 l 1
 619.01953125 180.247070312 l 1
 382.9140625 180.247070312 l 1
 382.9140625 -23.89453125 l 1
 276.9375 -23.89453125 l 1
 276.9375 180.247070312 l 1
 76.0859375 180.247070312 l 1
 76.0859375 275.576171875 l 1
 276.9375 275.576171875 l 1
 276.9375 523.528320312 l 1
 76.0859375 523.528320312 l 1
 76.0859375 618.858398438 l 1
 276.9375 618.858398438 l 1
 276.9375 823.428710938 l 1
 382.9140625 823.428710938 l 1
 382.9140625 618.858398438 l 1
 619.01953125 618.858398438 l 1
 619.01953125 830.434570312 l 1
EndSplineSet
EndChar

StartChar: uF193E
Encoding: 989502 989502 56
Width: 1000
Flags: HW
LayerCount: 2
Fore
SplineSet
50 -49.9814453125 m 1
 949.98046875 -49.9814453125 l 1
 949.98046875 850 l 1
 50 850 l 1
 50 -49.9814453125 l 1
618.196289062 290.716796875 m 1
 619.682617188 194.5546875 l 1
 619.682617188 194.5546875 620 194.572265625 619.682617188 194.5546875 c 1
 603.072265625 194.006835938 573.946289062 194.228515625 537.239257812 201.990234375 c 0
 511.224609375 207.491210938 481.159179688 216.946289062 452.443359375 232.662109375 c 0
 425.295898438 247.520507812 399.3671875 268.002929688 380.096679688 295.563476562 c 0
 370.068359375 309.909179688 362.28515625 325.555664062 357.028320312 342.319335938 c 0
 351.565429688 359.743164062 349.143554688 377.401367188 349.143554688 394.807617188 c 0
 349.143554688 395.633789062 349.14453125 396.461914062 349.161132812 397.291015625 c 0
 349.6875 435.337890625 360.814453125 469.10546875 379.537109375 497.103515625 c 0
 398.612304688 525.6328125 424.87109375 547.217773438 454.467773438 562.477539062 c 0
 483.567382812 577.48046875 516.915039062 586.928710938 552.67578125 590.98046875 c 0
 568.016601562 592.717773438 584.000976562 593.487304688 600.512695312 593.220703125 c 0
 620.866210938 592.89453125 642.112304688 590.994140625 664.010742188 587.297851562 c 0
 701.528320312 580.97265625 737.697265625 568.448242188 770.444335938 548.62890625 c 0
 802.743164062 529.080078125 830.89453125 502.904296875 853.059570312 470.254882812 c 0
 875.4296875 437.3046875 890.859375 399 898.8984375 356.607421875 c 0
 903.6640625 331.486328125 905.786132812 305.194335938 905.359375 278.004882812 c 0
 905.044921875 257.87109375 903.331054688 237.185546875 900.262695312 216.015625 c 0
 892.424804688 161.814453125 873.270507812 114.733398438 844.581054688 75.8857421875 c 0
 815.493164062 36.5029296875 777.475585938 6.732421875 733.625 -13.8447265625 c 0
 690.086914062 -34.2744140625 640.63671875 -45.7509765625 587.307617188 -49.0068359375 c 0
 575.038085938 -49.7568359375 562.525390625 -50.072265625 549.784179688 -49.958984375 c 0
 507.749023438 -49.5830078125 463.32421875 -44.5185546875 417.190429688 -34.701171875 c 0
 352.672851562 -20.9365234375 295.046875 9.091796875 246.921875 50.44140625 c 0
 199.006835938 91.6103515625 160.625 143.893554688 134.112304688 202.326171875 c 0
 108.025390625 259.815429688 93.3125 323.518554688 92.4873046875 388.731445312 c 0
 92.474609375 389.766601562 92.458984375 390.802734375 92.458984375 391.83984375 c 0
 92.0859375 455.275390625 104.880859375 523.486328125 136.568359375 589.837890625 c 0
 167.740234375 655.12890625 213.762695312 707.45703125 268.137695312 747.321289062 c 0
 326.041992188 789.771484375 390.87109375 816.321289062 453.489257812 831.638671875 c 0
 511.623046875 845.858398438 566.85546875 850.22265625 614.107421875 849.991210938 c 0
 630.663085938 849.91015625 647.092773438 849.255859375 663.34375 848.063476562 c 0
 710.634765625 844.592773438 753.501953125 836.778320312 790.887695312 827.11328125 c 0
 827.779296875 817.578125 856.69921875 806.904296875 874.64453125 799.661132812 c 1
 875.442382812 799.33984375 874.64453125 799.661132812 874.64453125 799.661132812 c 1
 837.811523438 708.08984375 l 1
 837.811523438 708.08984375 838.491210938 707.805664062 837.811523438 708.08984375 c 1
 822.548828125 714.4375 797.880859375 724.080078125 766.213867188 732.791015625 c 0
 734.12109375 741.619140625 697.069335938 748.885742188 656.208007812 752.08203125 c 0
 642.169921875 753.180664062 627.983398438 753.772460938 613.716796875 753.818359375 c 0
 572.850585938 753.952148438 525.780273438 749.543945312 477.09765625 736.728515625 c 0
 424.515625 722.887695312 372.704101562 699.881835938 328.1328125 665.697265625 c 0
 286.592773438 633.837890625 253.087890625 593.598632812 230.745117188 544.868164062 c 0
 207.24609375 493.639648438 198.006835938 441.315429688 198.30859375 392.486328125 c 0
 198.313476562 391.686523438 198.315429688 390.887695312 198.331054688 390.08984375 c 0
 198.963867188 339.763671875 209.696289062 290.240234375 229.09375 245.194335938 c 0
 248.814453125 199.395507812 277.32421875 158.6171875 312.696289062 126.60546875 c 0
 348.0859375 94.5751953125 390.342773438 71.3056640625 437.805664062 60.3642578125 c 0
 478.0390625 51.1240234375 515.841796875 46.51171875 550.619140625 46.2109375 c 0
 561.139648438 46.1181640625 571.34765625 46.4208984375 581.23046875 47.09765625 c 0
 624.389648438 50.0478515625 661.143554688 60.08203125 691.0625 75.3251953125 c 0
 720.931640625 90.5439453125 744.448242188 111.153320312 761.690429688 136.358398438 c 0
 778.66015625 161.169921875 790.803710938 192.258789062 795.85546875 230.780273438 c 0
 798.115234375 247.934570312 799.299804688 264.216796875 799.520507812 279.626953125 c 0
 799.818359375 300.440429688 798.353515625 319.689453125 795.309570312 337.388671875 c 0
 790.200195312 367.098632812 780.666015625 392.282226562 767.658203125 413.20703125 c 0
 754.791015625 433.900390625 738.213867188 450.932617188 718.327148438 464.120117188 c 0
 698.034179688 477.577148438 674.181640625 487.095703125 647.4921875 492.106445312 c 0
 630.509765625 495.274414062 614.299804688 496.85546875 599.100585938 497.059570312 c 0
 586.76953125 497.224609375 575.13671875 496.483398438 564.288085938 494.997070312 c 0
 538.798828125 491.5078125 517.780273438 483.94140625 501.591796875 474.310546875 c 0
 485.173828125 464.543945312 473.896484375 452.93359375 466.50390625 440.259765625 c 0
 459.572265625 428.37890625 455.174804688 413.90234375 455 395.944335938 c 0
 455 395.576171875 454.998046875 395.211914062 455 394.848632812 c 0
 455.017578125 387.295898438 455.98828125 380.34765625 457.876953125 373.872070312 c 0
 459.688476562 367.65625 462.43359375 361.5703125 466.325195312 355.569335938 c 0
 473.952148438 343.806640625 485.959960938 332.466796875 502.631835938 322.368164062 c 0
 520.276367188 311.682617188 540.379882812 304.065429688 559.461914062 299.048828125 c 0
 585.921875 292.092773438 607.453125 290.821289062 618.196289062 290.716796875 c 1
 618.409179688 290.716796875 618.196289062 290.716796875 618.196289062 290.716796875 c 1
EndSplineSet
EndChar

StartChar: uF193F
Encoding: 989503 989503 57
Width: 1000
Flags: HW
LayerCount: 2
Fore
SplineSet
50 -49.9814453125 m 1
 951.611328125 -49.9814453125 l 1
 951.611328125 850 l 1
 50 850 l 1
 50 -49.9814453125 l 1
449.509765625 849.184570312 m 1
 555.362304688 849.184570312 l 1
 555.362304688 559.21875 l 1
 794.794921875 308.384765625 l 1
 722.025390625 238.924804688 l 1
 555.362304688 430.215820312 l 1
 555.362304688 -51.0732421875 l 1
 449.509765625 -51.0732421875 l 1
 449.509765625 431.126953125 l 1
 281.21875 238.924804688 l 1
 208.450195312 308.384765625 l 1
 449.509765625 560.924804688 l 1
 449.509765625 849.184570312 l 1
EndSplineSet
EndChar

StartChar: uF1940
Encoding: 989504 989504 58
Width: 1000
Flags: HW
LayerCount: 2
Fore
SplineSet
50 -49.9814453125 m 1
 949.98046875 -49.9814453125 l 1
 949.98046875 850 l 1
 50 850 l 1
 50 -49.9814453125 l 1
499.403320312 850 m 0
 556.059570312 850 607.416992188 840.893554688 653.459960938 822.680664062 c 0
 699.502929688 804.469726562 738.452148438 778.93359375 770.326171875 746.081054688 c 0
 802.217773438 713.227539062 826.8046875 674.123046875 844.119140625 628.76953125 c 0
 861.434570312 583.413085938 870.090820312 533.962890625 870.090820312 480.387695312 c 2
 870.009765625 479.329101562 l 1
 870.090820312 479.329101562 l 1
 870.090820312 -23.89453125 l 1
 764.342773438 -23.89453125 l 1
 764.342773438 479.329101562 l 1
 764.27734375 479.329101562 l 1
 764.342773438 480.110351562 l 2
 764.342773438 519.909179688 758.1640625 556.658203125 745.7890625 590.342773438 c 0
 733.430664062 624.026367188 715.856445312 653.079101562 693.095703125 677.486328125 c 0
 670.317382812 701.891601562 642.50390625 720.858398438 609.619140625 734.387695312 c 0
 576.733398438 747.916992188 540.049804688 754.681640625 499.56640625 754.681640625 c 0
 459.099609375 754.681640625 422.546875 747.916992188 389.954101562 734.387695312 c 0
 357.346679688 720.858398438 329.663085938 701.891601562 306.884765625 677.486328125 c 0
 284.125 653.079101562 266.549804688 624.026367188 254.19140625 590.342773438 c 0
 241.817382812 556.658203125 235.637695312 519.909179688 235.637695312 480.110351562 c 2
 235.703125 479.329101562 l 1
 235.637695312 479.329101562 l 1
 235.637695312 -23.89453125 l 1
 129.889648438 -23.89453125 l 1
 129.889648438 479.329101562 l 1
 129.970703125 479.329101562 l 1
 129.889648438 480.387695312 l 2
 129.889648438 533.962890625 138.545898438 583.413085938 155.861328125 628.76953125 c 0
 173.176757812 674.123046875 197.762695312 713.227539062 229.654296875 746.081054688 c 0
 261.528320312 778.93359375 300.282226562 804.469726562 345.93359375 822.680664062 c 0
 391.568359375 840.893554688 442.73046875 850 499.403320312 850 c 0
EndSplineSet
EndChar

StartChar: uF1941
Encoding: 989505 989505 59
Width: 1000
Flags: HW
LayerCount: 2
Fore
SplineSet
50 -49.9814453125 m 1
 949.98046875 -49.9814453125 l 1
 949.98046875 850 l 1
 50 850 l 1
 50 -49.9814453125 l 1
447.877929688 849.184570312 m 1
 553.729492188 849.184570312 l 1
 553.729492188 100.89453125 l 1
 720.393554688 297.265625 l 1
 793.163085938 227.8046875 l 1
 499.990234375 -79.328125 l 1
 206.817382812 227.8046875 l 1
 279.586914062 297.265625 l 1
 447.877929688 100.948242188 l 1
 447.877929688 849.184570312 l 1
EndSplineSet
EndChar

StartChar: uF1942
Encoding: 989506 989506 60
Width: 1000
Flags: HW
LayerCount: 2
Fore
SplineSet
50 -49.9814453125 m 1
 949.98046875 -49.9814453125 l 1
 949.98046875 850 l 1
 50 850 l 1
 50 -49.9814453125 l 1
265.6171875 554.016601562 m 2
 219.470703125 554.016601562 182.0625 516.583007812 182.0625 470.409179688 c 2
 182.0625 327.978515625 l 2
 182.0625 281.805664062 219.470703125 244.37109375 265.6171875 244.37109375 c 2
 734.36328125 244.37109375 l 2
 780.509765625 244.37109375 817.91796875 281.805664062 817.91796875 327.978515625 c 2
 817.91796875 470.409179688 l 2
 817.91796875 516.583007812 780.509765625 554.016601562 734.36328125 554.016601562 c 2
 265.6171875 554.016601562 l 2
265.536132812 649.459960938 m 2
 734.444335938 649.459960938 l 2
 839.07421875 649.459960938 923.89453125 564.58203125 923.89453125 459.89453125 c 2
 923.89453125 338.493164062 l 2
 923.89453125 233.805664062 839.07421875 148.927734375 734.444335938 148.927734375 c 2
 265.536132812 148.927734375 l 2
 160.907226562 148.927734375 76.0859375 233.805664062 76.0859375 338.493164062 c 2
 76.0859375 459.89453125 l 2
 76.0859375 564.58203125 160.907226562 649.459960938 265.536132812 649.459960938 c 2
EndSplineSet
EndChar

StartChar: uF1943
Encoding: 989507 989507 61
Width: 1000
Flags: HW
LayerCount: 2
Fore
SplineSet
50 -49.9814453125 m 1
 949.98046875 -49.9814453125 l 1
 949.98046875 850 l 1
 50 850 l 1
 50 -49.9814453125 l 1
161.806640625 748.3671875 m 1
 267.661132812 748.3671875 l 1
 267.661132812 146.995117188 l 1
 552.036132812 146.995117188 l 1
 552.036132812 146.995117188 552.034179688 146.995117188 552.036132812 146.995117188 c 1
 552.036132812 146.995117188 l 1
 579.525390625 147.013671875 604.44921875 149.749023438 626.794921875 155.209960938 c 0
 649.219726562 160.690429688 668.202148438 168.282226562 683.728515625 177.978515625 c 0
 699.255859375 187.674804688 711.233398438 199.213867188 719.66796875 212.599609375 c 0
 728.099609375 225.984375 732.322265625 240.688476562 732.322265625 256.708984375 c 0
 732.322265625 272.51953125 728.099609375 287.118164062 719.66796875 300.50390625 c 0
 711.233398438 313.889648438 699.255859375 325.430664062 683.728515625 335.127929688 c 0
 668.202148438 344.82421875 649.219726562 352.358398438 626.794921875 357.733398438 c 0
 604.44921875 363.08984375 579.525390625 365.774414062 552.036132812 365.79296875 c 2
 446.18359375 365.79296875 l 1
 446.18359375 748.3671875 l 1
 552.036132812 748.3671875 l 1
 552.036132812 461.139648438 l 1
 595.665039062 461.104492188 635.22265625 456.083007812 670.688476562 446.05859375 c 0
 706.279296875 435.997070312 736.408203125 421.892578125 761.051757812 403.744140625 c 0
 785.694335938 385.596679688 804.706054688 363.997070312 818.090820312 338.9453125 c 0
 831.474609375 313.89453125 838.173828125 286.57421875 838.173828125 256.986328125 c 0
 838.173828125 227.00390625 831.474609375 199.486328125 818.090820312 174.434570312 c 0
 804.706054688 149.3828125 785.694335938 127.783203125 761.051757812 109.635742188 c 0
 736.408203125 91.48828125 706.279296875 77.28515625 670.688476562 67.0283203125 c 0
 635.22265625 56.80859375 595.665039062 51.6845703125 573.848632812 51.666015625 c 2
 161.806640625 51.6484375 l 1
 161.806640625 748.3671875 l 1
EndSplineSet
EndChar

StartChar: uF1944
Encoding: 989508 989508 62
Width: 1000
Flags: HW
LayerCount: 2
Fore
SplineSet
50 -49.9814453125 m 1
 949.98046875 -49.9814453125 l 1
 949.98046875 850 l 1
 50 850 l 1
 50 -49.9814453125 l 1
499.174804688 267.327148438 m 0
 441.345703125 267.327148438 394.471679688 217.600585938 394.471679688 156.264648438 c 0
 394.471679688 94.9287109375 441.345703125 45.201171875 499.174804688 45.201171875 c 0
 557.004882812 45.201171875 603.87890625 94.9287109375 603.87890625 156.264648438 c 0
 603.87890625 217.600585938 557.004882812 267.327148438 499.174804688 267.327148438 c 0
499.174804688 362.509765625 m 0
 613.075195312 362.509765625 705.420898438 270.165039062 705.420898438 156.264648438 c 0
 705.420898438 42.3642578125 613.075195312 -49.9814453125 499.174804688 -49.9814453125 c 0
 385.274414062 -49.9814453125 292.9296875 42.3642578125 292.9296875 156.264648438 c 0
 292.9296875 270.165039062 385.274414062 362.509765625 499.174804688 362.509765625 c 0
446.1875 416.313476562 m 1
 446.1875 850 l 1
 552.163085938 850 l 1
 552.163085938 416.313476562 l 1
 446.1875 416.313476562 l 1
EndSplineSet
EndChar

StartChar: uF1946
Encoding: 989510 989510 63
Width: 1000
Flags: HW
LayerCount: 2
Fore
SplineSet
50 850 m 1
 50 -49.9814453125 l 1
 951.611328125 -49.9814453125 l 1
 951.611328125 850 l 1
 50 850 l 1
712.725585938 636.416992188 m 0
 712.7890625 636.416992188 712.838867188 636.416992188 712.904296875 636.416992188 c 0
 712.985351562 636.416992188 713.068359375 636.416992188 713.165039062 636.416992188 c 0
 749.375976562 636.416992188 782.1796875 630.61328125 811.592773438 618.987304688 c 0
 841.004882812 607.380859375 865.884765625 591.092773438 886.264648438 570.140625 c 0
 906.62890625 549.174804688 922.329101562 524.24609375 933.383789062 495.322265625 c 0
 944.454101562 466.3828125 949.98046875 434.834960938 949.98046875 400.677734375 c 0
 949.98046875 400.53125 949.96484375 400.384765625 949.96484375 400.237304688 c 0
 949.96484375 400.155273438 949.98046875 400.090820312 949.98046875 400.008789062 c 0
 949.98046875 399.748046875 949.94921875 399.504882812 949.94921875 399.243164062 c 0
 949.80078125 365.166992188 944.306640625 333.880859375 933.383789062 305.348632812 c 0
 922.329101562 276.424804688 906.62890625 251.49609375 886.264648438 230.529296875 c 0
 865.884765625 209.579101562 841.004882812 193.17578125 811.592773438 181.33984375 c 0
 796.885742188 175.405273438 781.331054688 170.969726562 764.930664062 168.00390625 c 2
 763.67578125 167.888671875 l 2
 747.794921875 165.069335938 731.115234375 163.6328125 713.654296875 163.6171875 c 2
 713.541015625 163.6015625 l 1
 713.541015625 163.6015625 l 1
 713.41015625 163.6015625 713.295898438 163.6015625 713.165039062 163.6015625 c 0
 713.083984375 163.6015625 712.985351562 163.6015625 712.904296875 163.6015625 c 0
 712.838867188 163.6015625 712.7890625 163.6015625 712.725585938 163.6015625 c 0
 712.415039062 163.6015625 712.104492188 163.6328125 711.795898438 163.6328125 c 0
 695.638671875 163.698242188 680.21484375 165.00390625 665.475585938 167.465820312 c 0
 617.459960938 171.264648438 552.000976562 180.443359375 480.817382812 204.719726562 c 0
 419.905273438 225.491210938 362.43359375 254.577148438 307.765625 292.859375 c 0
 253.637695312 330.766601562 207.561523438 373.971679688 167.9921875 417.225585938 c 0
 114.400390625 475.806640625 71.326171875 536.604492188 51.630859375 564.875 c 1
 134.161132812 621.923828125 l 1
 153.138671875 594.288085938 192.756835938 537.663085938 241.294921875 483.762695312 c 0
 276.952148438 444.192382812 317.451171875 405.862304688 364.11328125 372.650390625 c 0
 411.052734375 339.260742188 460.142578125 313.973632812 512.234375 295.810546875 c 0
 517.060546875 294.129882812 521.7890625 292.729492188 526.549804688 291.196289062 c 1
 512.952148438 303.45703125 501.979492188 317.315429688 493.6484375 332.787109375 c 0
 488.12109375 343.059570312 483.979492188 353.8359375 481.208984375 365.118164062 c 2
 480.067382812 374.787109375 l 2
 478.142578125 383.004882812 477.115234375 391.41796875 477.115234375 400.008789062 c 0
 477.115234375 400.155273438 477.1328125 400.301757812 477.1328125 400.448242188 c 2
 477.115234375 400.677734375 l 2
 477.115234375 434.834960938 482.643554688 466.3828125 493.713867188 495.322265625 c 0
 504.766601562 524.24609375 520.467773438 549.174804688 540.83203125 570.140625 c 0
 561.1953125 591.092773438 585.978515625 607.380859375 615.129882812 618.987304688 c 0
 643.954101562 630.483398438 676.204101562 636.254882812 711.892578125 636.385742188 c 0
 712.169921875 636.401367188 712.447265625 636.416992188 712.725585938 636.416992188 c 0
713.280273438 540.58203125 m 0
 693.307617188 540.58203125 675.290039062 537.125 659.19921875 530.1796875 c 0
 643.107421875 523.266601562 629.444335938 513.549804688 618.209960938 501.044921875 c 0
 606.977539062 488.540039062 598.319335938 473.669921875 592.205078125 456.420898438 c 0
 586.108398438 439.154296875 583.043945312 420.33984375 583.043945312 399.959960938 c 0
 583.043945312 379.302734375 586.108398438 360.357421875 592.205078125 343.107421875 c 0
 598.319335938 325.841796875 606.977539062 310.97265625 618.209960938 298.467773438 c 0
 629.444335938 285.962890625 643.107421875 276.1796875 659.19921875 269.120117188 c 0
 675.290039062 262.060546875 693.307617188 258.522460938 713.280273438 258.522460938 c 0
 733.268554688 258.522460938 751.365234375 262.060546875 767.587890625 269.120117188 c 0
 783.826171875 276.1796875 797.5546875 285.962890625 808.7890625 298.467773438 c 0
 820.021484375 310.97265625 828.678710938 325.841796875 834.791992188 343.107421875 c 0
 840.890625 360.357421875 843.939453125 379.302734375 843.939453125 399.959960938 c 0
 843.939453125 420.33984375 840.890625 439.154296875 834.791992188 456.420898438 c 0
 828.678710938 473.669921875 820.021484375 488.540039062 808.7890625 501.044921875 c 0
 797.5546875 513.549804688 783.826171875 523.266601562 767.587890625 530.1796875 c 0
 751.365234375 537.125 733.268554688 540.58203125 713.280273438 540.58203125 c 0
EndSplineSet
EndChar

StartChar: uF1947
Encoding: 989511 989511 64
Width: 1000
Flags: HW
LayerCount: 2
Fore
SplineSet
50 -49.9814453125 m 1
 949.98046875 -49.9814453125 l 1
 949.98046875 850 l 1
 50 850 l 1
 50 -49.9814453125 l 1
236.387695312 294.9296875 m 1
 236.387695312 71.4521484375 l 1
 764.342773438 71.4521484375 l 1
 764.342773438 294.9296875 l 1
 236.387695312 294.9296875 l 1
130.655273438 823.913085938 m 1
 236.387695312 823.913085938 l 1
 236.387695312 390.276367188 l 1
 764.342773438 390.276367188 l 1
 764.342773438 823.913085938 l 1
 870.090820312 823.913085938 l 1
 870.090820312 -23.583984375 l 1
 870.090820312 -23.89453125 l 1
 129.889648438 -23.89453125 l 1
 130.655273438 823.913085938 l 1
EndSplineSet
EndChar

StartChar: uF1948
Encoding: 989512 989512 65
Width: 1000
Flags: HW
LayerCount: 2
Fore
SplineSet
50 -49.9814453125 m 1
 949.98046875 -49.9814453125 l 1
 949.98046875 850 l 1
 50 850 l 1
 50 -49.9814453125 l 1
133.150390625 766.849609375 m 1
 866.830078125 766.849609375 l 1
 866.830078125 33.1689453125 l 1
 133.150390625 33.1689453125 l 1
 133.150390625 766.849609375 l 1
238.999023438 671.502929688 m 1
 238.999023438 128.515625 l 1
 438.678710938 128.515625 l 1
 546.759765625 353.354492188 l 1
 296.748046875 353.354492188 l 1
 449.68359375 671.502929688 l 1
 238.999023438 671.502929688 l 1
561.302734375 671.502929688 m 1
 453.224609375 446.666992188 l 1
 703.233398438 446.666992188 l 1
 550.296875 128.515625 l 1
 760.975585938 128.515625 l 1
 760.975585938 671.502929688 l 1
 561.302734375 671.502929688 l 1
EndSplineSet
EndChar

StartChar: uF1949
Encoding: 989513 989513 66
Width: 1000
Flags: HW
LayerCount: 2
Fore
SplineSet
50 -49.982421875 m 1
 951.611328125 -49.982421875 l 1
 951.611328125 849.998046875 l 1
 50 849.998046875 l 1
 50 -49.982421875 l 1
564.341796875 850 m 2
 564.354492188 850 l 2
 604.853515625 850 641.572265625 843.754882812 674.489257812 831.265625 c 0
 707.391601562 818.776367188 735.254882812 801.248046875 758.03125 778.717773438 c 0
 780.825195312 756.184570312 798.399414062 729.366210938 810.774414062 698.2578125 c 0
 823.150390625 667.149414062 829.345703125 633.219726562 829.345703125 596.48828125 c 0
 829.345703125 559.25 823.150390625 525.091796875 810.774414062 493.983398438 c 0
 798.399414062 462.875 780.825195312 436.0546875 758.03125 413.5234375 c 2
 740.282226562 399.442382812 l 1
 740.282226562 399.62109375 l 1
 707.692382812 389.60546875 l 1
 739.501953125 377.845703125 l 1
 739.501953125 377.865234375 l 1
 758.025390625 362.60546875 l 2
 780.818359375 339.126953125 798.393554688 311.182617188 810.767578125 278.786132812 c 0
 823.143554688 246.374023438 829.338867188 211.043945312 829.338867188 172.778320312 c 2
 828.995117188 168.587890625 l 1
 829.338867188 168.587890625 l 1
 829.338867188 -14.1123046875 l 1
 760.942382812 -14.1123046875 l 1
 723.509765625 -14.1123046875 l 1
 723.509765625 168.587890625 l 1
 723.197265625 168.587890625 l 1
 723.509765625 172.501953125 l 2
 723.509765625 196.989257812 719.793945312 219.606445312 712.374023438 240.344726562 c 0
 704.940429688 261.083007812 694.389648438 278.966796875 680.727539062 293.982421875 c 0
 667.048828125 309.013671875 650.337890625 320.688476562 630.592773438 329.01953125 c 0
 610.849609375 337.333984375 588.8203125 341.508789062 564.510742188 341.508789062 c 0
 540.21875 341.508789062 518.275390625 337.333984375 498.692382812 329.01953125 c 0
 479.112304688 320.688476562 462.481445312 309.013671875 448.819335938 293.982421875 c 0
 435.140625 278.966796875 424.592773438 261.083007812 417.172851562 240.344726562 c 0
 409.739257812 219.606445312 406.021484375 196.989257812 406.021484375 172.501953125 c 2
 406.330078125 168.587890625 l 1
 406.021484375 168.587890625 l 1
 406.021484375 -14.1123046875 l 1
 286.25 -14.1123046875 l 1
 80.9853515625 246.439453125 l 1
 160.760742188 309.422851562 l 1
 234.061523438 216.375976562 l 1
 311.594726562 79.3076171875 l 1
 300.20703125 160.887695312 l 1
 300.20703125 168.587890625 l 1
 300.551757812 168.587890625 l 1
 300.20703125 172.778320312 l 2
 300.20703125 211.043945312 306.388671875 246.374023438 318.762695312 278.786132812 c 0
 331.137695312 311.182617188 348.729492188 339.126953125 371.505859375 362.60546875 c 2
 389.229492188 377.247070312 l 1
 389.213867188 377.01171875 l 1
 421.799804688 387.026367188 l 1
 390.057617188 398.760742188 l 1
 371.499023438 413.5234375 l 2
 348.72265625 436.056640625 331.130859375 462.875 318.756835938 493.983398438 c 0
 306.381835938 525.091796875 300.201171875 559.25 300.201171875 596.48828125 c 0
 300.201171875 633.221679688 306.381835938 667.149414062 318.756835938 698.2578125 c 0
 331.130859375 729.366210938 348.72265625 756.184570312 371.499023438 778.717773438 c 0
 394.291015625 801.25 421.994140625 818.776367188 454.633789062 831.265625 c 0
 487.2578125 843.754882812 523.827148438 850 564.341796875 850 c 2
564.50390625 754.653320312 m 0
 540.211914062 754.653320312 518.268554688 750.756835938 498.686523438 742.947265625 c 0
 479.10546875 735.137695312 462.4765625 724.196289062 448.8125 710.110351562 c 0
 435.133789062 696.024414062 424.5859375 679.262695312 417.166015625 659.8125 c 0
 409.732421875 640.37890625 406.014648438 619.18359375 406.014648438 596.2109375 c 0
 406.014648438 572.946289062 409.732421875 551.5859375 417.166015625 532.151367188 c 0
 424.5859375 512.701171875 435.133789062 495.940429688 448.8125 481.854492188 c 0
 462.4765625 467.767578125 479.10546875 456.747070312 498.686523438 448.791015625 c 0
 518.268554688 440.834960938 540.211914062 436.85546875 564.50390625 436.85546875 c 0
 588.813476562 436.85546875 610.84375 440.834960938 630.5859375 448.791015625 c 0
 650.331054688 456.747070312 667.04296875 467.767578125 680.721679688 481.854492188 c 0
 694.385742188 495.940429688 704.93359375 512.701171875 712.3671875 532.151367188 c 0
 719.787109375 551.5859375 723.502929688 572.946289062 723.502929688 596.2109375 c 0
 723.502929688 619.18359375 719.787109375 640.37890625 712.3671875 659.8125 c 0
 704.93359375 679.262695312 694.385742188 696.024414062 680.721679688 710.110351562 c 0
 667.04296875 724.196289062 650.331054688 735.137695312 630.5859375 742.947265625 c 0
 610.84375 750.756835938 588.813476562 754.653320312 564.50390625 754.653320312 c 0
EndSplineSet
EndChar

StartChar: uF194B
Encoding: 989515 989515 67
Width: 1000
Flags: HW
LayerCount: 2
Fore
SplineSet
50 -49.9814453125 m 1
 949.98046875 -49.9814453125 l 1
 949.98046875 850 l 1
 50 850 l 1
 50 -49.9814453125 l 1
303.09765625 253.872070312 m 1
 495.916015625 62.43359375 l 1
 688.728515625 253.872070312 l 1
 759.609375 182.484375 l 1
 495.916015625 -79.328125 l 1
 232.215820312 182.484375 l 1
 303.09765625 253.872070312 l 1
303.09765625 551.935546875 m 1
 495.916015625 360.497070312 l 1
 688.728515625 551.935546875 l 1
 759.609375 480.548828125 l 1
 495.916015625 218.735351562 l 1
 232.215820312 480.548828125 l 1
 303.09765625 551.935546875 l 1
303.09765625 850 m 1
 495.916015625 658.561523438 l 1
 688.728515625 850 l 1
 759.609375 778.612304688 l 1
 495.916015625 516.799804688 l 1
 232.215820312 778.612304688 l 1
 303.09765625 850 l 1
EndSplineSet
EndChar

StartChar: uF194C
Encoding: 989516 989516 68
Width: 1000
Flags: HW
LayerCount: 2
Fore
SplineSet
50 -49.9814453125 m 1
 949.98046875 -49.9814453125 l 1
 949.98046875 850 l 1
 50 850 l 1
 50 -49.9814453125 l 1
563.57421875 533.702148438 m 0
 608.182617188 533.702148438 648.618164062 526.544921875 684.861328125 512.229492188 c 0
 721.12109375 497.916015625 751.788085938 477.844726562 776.879882812 452.03515625 c 0
 801.970703125 426.209960938 821.341796875 395.4765625 834.97265625 359.834960938 c 0
 848.603515625 324.1953125 855.416015625 285.327148438 855.416015625 243.229492188 c 2
 855.138671875 239.96875 l 1
 855.416015625 239.96875 l 1
 855.416015625 -14.1123046875 l 1
 749.506835938 -14.1123046875 l 1
 749.506835938 239.96875 l 1
 749.229492188 239.96875 l 1
 749.458984375 242.953125 l 2
 749.458984375 271.272460938 745.120117188 297.422851562 736.448242188 321.390625 c 0
 727.7734375 345.373046875 715.450195312 366.049804688 699.48828125 383.412109375 c 0
 683.508789062 400.79296875 663.994140625 414.29296875 640.924804688 423.911132812 c 0
 617.869140625 433.546875 592.142578125 438.35546875 563.740234375 438.35546875 c 0
 535.356445312 438.35546875 509.724609375 433.546875 486.8515625 423.911132812 c 0
 463.9921875 414.29296875 444.572265625 400.79296875 428.594726562 383.412109375 c 0
 412.633789062 366.049804688 400.30859375 345.373046875 391.633789062 321.390625 c 0
 382.959960938 297.422851562 378.623046875 271.272460938 378.623046875 242.953125 c 2
 378.8515625 239.96875 l 1
 378.654296875 239.96875 l 1
 378.654296875 -14.1123046875 l 1
 359.465820312 -14.1123046875 l 1
 258.772460938 -14.1123046875 l 1
 53.2587890625 246.442382812 l 1
 133.1328125 309.407226562 l 1
 205.881835938 217.181640625 l 1
 283.870117188 79.3076171875 l 1
 272.745117188 159.015625 l 1
 272.745117188 239.96875 l 1
 272.939453125 239.96875 l 1
 272.6640625 243.229492188 l 2
 272.6640625 285.327148438 279.48046875 324.1953125 293.111328125 359.834960938 c 0
 306.740234375 395.4765625 326.106445312 426.209960938 351.19921875 452.03515625 c 0
 376.290039062 477.844726562 406.8125 497.916015625 442.74609375 512.229492188 c 0
 478.680664062 526.544921875 518.965820312 533.702148438 563.57421875 533.702148438 c 0
511.403320312 629.895507812 m 1
 511.403320312 850 l 1
 617.37890625 850 l 1
 617.37890625 629.895507812 l 1
 511.403320312 629.895507812 l 1
862.215820312 797.891601562 m 1
 950.2734375 747.056640625 l 1
 839.586914062 555.336914062 l 1
 751.529296875 606.173828125 l 1
 862.215820312 797.891601562 l 1
376.244140625 606.173828125 m 1
 288.189453125 555.334960938 l 1
 177.501953125 747.053710938 l 1
 265.5546875 797.891601562 l 1
 376.244140625 606.173828125 l 1
EndSplineSet
EndChar

StartChar: uF194D
Encoding: 989517 989517 69
Width: 1000
Flags: HW
LayerCount: 2
Fore
SplineSet
50 -49.9814453125 m 1
 949.98046875 -49.9814453125 l 1
 949.98046875 850 l 1
 50 850 l 1
 50 -49.9814453125 l 1
160.8671875 823.913085938 m 1
 266.647460938 823.913085938 l 1
 266.647460938 71.4833984375 l 1
 848.896484375 71.4833984375 l 1
 848.896484375 -23.89453125 l 1
 160.8671875 -23.89453125 l 1
 160.8671875 823.913085938 l 1
EndSplineSet
EndChar

StartChar: uF1950
Encoding: 989520 989520 70
Width: 1000
Flags: HW
LayerCount: 2
Fore
SplineSet
50 -49.9814453125 m 1
 949.98046875 -49.9814453125 l 1
 949.98046875 850 l 1
 50 850 l 1
 50 -49.9814453125 l 1
252.169921875 823.913085938 m 1
 746.180664062 823.913085938 l 1
 746.180664062 728.53515625 l 1
 552.178710938 728.53515625 l 1
 552.178710938 71.4833984375 l 1
 746.180664062 71.4833984375 l 1
 746.180664062 -23.89453125 l 1
 252.169921875 -23.89453125 l 1
 252.169921875 71.4833984375 l 1
 446.170898438 71.4833984375 l 1
 446.170898438 728.53515625 l 1
 252.169921875 728.53515625 l 1
 252.169921875 823.913085938 l 1
EndSplineSet
EndChar

StartChar: uF1951
Encoding: 989521 989521 71
Width: 1000
Flags: HW
LayerCount: 2
Fore
SplineSet
50 -49.9814453125 m 1
 949.98046875 -49.9814453125 l 1
 949.98046875 850 l 1
 50 850 l 1
 50 -49.9814453125 l 1
255.430664062 776.631835938 m 0
 255.430664062 817.146484375 287.908203125 850 327.983398438 850 c 0
 368.05859375 850 400.536132812 817.146484375 400.536132812 776.631835938 c 0
 400.536132812 736.1171875 368.05859375 703.263671875 327.983398438 703.263671875 c 0
 287.908203125 703.263671875 255.430664062 736.1171875 255.430664062 776.631835938 c 0
599.444335938 776.631835938 m 0
 599.444335938 817.146484375 631.921875 850 671.998046875 850 c 0
 712.073242188 850 744.55078125 817.146484375 744.55078125 776.631835938 c 0
 744.55078125 736.1171875 712.073242188 703.263671875 671.998046875 703.263671875 c 0
 631.921875 703.263671875 599.444335938 736.1171875 599.444335938 776.631835938 c 0
447.971679688 669.840820312 m 1
 553.82421875 669.840820312 l 1
 553.82421875 558.123046875 l 1
 708.045898438 558.123046875 l 1
 708.045898438 460.404296875 l 1
 553.82421875 460.404296875 l 1
 553.82421875 357.74609375 l 1
 708.045898438 357.74609375 l 1
 708.045898438 260.02734375 l 1
 553.82421875 260.02734375 l 1
 553.82421875 157.369140625 l 1
 708.045898438 157.369140625 l 1
 708.045898438 59.650390625 l 1
 553.82421875 59.650390625 l 1
 553.82421875 -52.0673828125 l 1
 447.971679688 -52.0673828125 l 1
 447.971679688 59.650390625 l 1
 293.75 59.650390625 l 1
 293.75 157.369140625 l 1
 447.971679688 157.369140625 l 1
 447.971679688 260.02734375 l 1
 293.75 260.02734375 l 1
 293.75 357.74609375 l 1
 447.971679688 357.74609375 l 1
 447.971679688 460.404296875 l 1
 293.75 460.404296875 l 1
 293.75 558.123046875 l 1
 447.971679688 558.123046875 l 1
 447.971679688 669.840820312 l 1
EndSplineSet
EndChar

StartChar: uF1952
Encoding: 989522 989522 72
Width: 1000
Flags: HW
LayerCount: 2
Fore
SplineSet
50 -49.9814453125 m 1
 949.98046875 -49.9814453125 l 1
 949.98046875 850 l 1
 50 850 l 1
 50 -49.9814453125 l 1
826.0703125 398.37890625 m 0
 826.0703125 438.8984375 858.923828125 471.747070312 899.438476562 471.747070312 c 0
 939.953125 471.747070312 972.806640625 438.8984375 972.806640625 398.37890625 c 0
 972.806640625 357.859375 939.953125 325.010742188 899.438476562 325.010742188 c 0
 858.923828125 325.010742188 826.0703125 357.859375 826.0703125 398.37890625 c 0
76.0859375 607.0703125 m 1
 182.159179688 607.0703125 l 1
 182.159179688 302.850585938 l 1
 622.172851562 302.850585938 l 1
 622.172851562 607.0703125 l 1
 728.24609375 607.0703125 l 1
 728.24609375 207.622070312 l 1
 76.0859375 207.622070312 l 1
 76.0859375 607.0703125 l 1
EndSplineSet
EndChar

StartChar: uF1953
Encoding: 989523 989523 73
Width: 1000
Flags: HW
LayerCount: 2
Fore
SplineSet
50 -49.9814453125 m 1
 949.98046875 -49.9814453125 l 1
 949.98046875 850 l 1
 50 850 l 1
 50 -49.9814453125 l 1
130.65234375 823.913085938 m 1
 236.627929688 823.913085938 l 1
 236.627929688 71.4521484375 l 1
 765.745117188 71.4521484375 l 1
 765.745117188 823.913085938 l 1
 871.721679688 823.913085938 l 1
 871.721679688 -23.583984375 l 1
 871.721679688 -23.89453125 l 1
 129.889648438 -23.89453125 l 1
 130.65234375 823.913085938 l 1
EndSplineSet
EndChar

StartChar: uF1954
Encoding: 989524 989524 74
Width: 1000
Flags: HW
LayerCount: 2
Fore
SplineSet
50 -49.9814453125 m 1
 949.98046875 -49.9814453125 l 1
 949.98046875 850 l 1
 50 850 l 1
 50 -49.9814453125 l 1
805.397460938 543.484375 m 1
 907.590820312 520.071289062 l 1
 890.846679688 458.98046875 l 1
 826.36328125 286.354492188 675.388671875 165.231445312 499.452148438 165.231445312 c 0
 323.5 165.231445312 172.541015625 286.354492188 108.059570312 458.98046875 c 1
 92.390625 516.110351562 l 1
 194.518554688 539.505859375 l 1
 205.654296875 496.087890625 l 1
 254.061523438 357.684570312 367.374023438 260.578125 499.452148438 260.578125 c 0
 631.514648438 260.578125 744.827148438 357.684570312 793.234375 496.087890625 c 1
 805.397460938 543.484375 l 1
EndSplineSet
EndChar

StartChar: uF1955
Encoding: 989525 989525 75
Width: 1000
Flags: HW
LayerCount: 2
Fore
SplineSet
50 -49.9814453125 m 1
 949.98046875 -49.9814453125 l 1
 949.98046875 850 l 1
 50 850 l 1
 50 -49.9814453125 l 1
145.809570312 807.994140625 m 1
 855.801757812 807.994140625 l 1
 855.801757812 -9.6064453125 l 1
 145.809570312 -9.6064453125 l 1
 145.809570312 807.994140625 l 1
219.9453125 733.85546875 m 1
 219.9453125 64.5322265625 l 1
 781.666015625 64.5322265625 l 1
 781.666015625 733.85546875 l 1
 219.9453125 733.85546875 l 1
400.771484375 540.796875 m 0
 430.9765625 552.033203125 464.387695312 557.388671875 500.0859375 557.388671875 c 0
 535.784179688 557.380859375 569.266601562 552.01171875 599.892578125 540.725585938 c 0
 630.083007812 529.59765625 656.78125 513.44921875 678.7265625 492.381835938 c 1
 678.7265625 492.381835938 l 1
 678.7265625 492.381835938 l 1
 700.430664062 471.5234375 717.372070312 446.3359375 728.98046875 418.002929688 c 0
 740.69921875 389.403320312 746.400390625 358.364257812 746.400390625 325.91796875 c 0
 746.400390625 293.15625 740.729492188 261.926757812 729.05078125 233.434570312 c 0
 717.372070312 204.940429688 700.432617188 179.75390625 678.729492188 158.897460938 c 0
 656.814453125 137.83984375 630.196289062 121.658203125 600.10546875 110.350585938 c 0
 569.428710938 98.8232421875 535.857421875 93.3203125 500.103515625 93.3203125 c 0
 464.337890625 93.3203125 430.83984375 98.81640625 400.329101562 110.38671875 c 0
 370.463867188 121.708007812 343.994140625 137.887695312 322.129882812 158.897460938 c 0
 300.42578125 179.756835938 283.484375 204.944335938 271.8046875 233.439453125 c 0
 260.124023438 261.936523438 254.44921875 293.166992188 254.44921875 325.932617188 c 0
 254.44921875 358.377929688 260.151367188 389.41796875 271.868164062 418.016601562 c 0
 283.4765625 446.348632812 300.41796875 471.537109375 322.217773438 492.475585938 c 0
 344.018554688 513.413085938 370.56640625 529.5625 400.771484375 540.796875 c 0
574.184570312 471.217773438 m 0
 552.829101562 479.088867188 528.334960938 483.297851562 500.073242188 483.296875 c 0
 471.813476562 483.294921875 447.454101562 479.08203125 426.4140625 471.254882812 c 1
 426.4140625 471.254882812 l 1
 426.4140625 471.254882812 l 1
 404.850585938 463.240234375 387.639648438 452.506835938 373.546875 438.979492188 c 2
 373.529296875 438.961914062 l 1
 373.529296875 438.961914062 l 1
 359.28515625 425.272460938 348.454101562 409.310546875 340.51171875 389.927734375 c 0
 332.676757812 370.803710938 328.622070312 349.8125 328.622070312 325.915039062 c 0
 328.622070312 301.584960938 332.70703125 280.374023438 340.508789062 261.345703125 c 1
 340.508789062 261.345703125 l 1
 340.508789062 261.345703125 l 1
 348.454101562 241.956054688 359.2890625 225.991210938 373.5390625 212.296875 c 0
 387.665039062 198.721679688 404.956054688 187.87890625 426.286132812 179.791015625 c 0
 447.615234375 171.704101562 471.881835938 167.41796875 500.079101562 167.41796875 c 0
 528.2578125 167.41796875 552.661132812 171.69921875 573.967773438 179.705078125 c 0
 595.857421875 187.9296875 613.2109375 198.774414062 627.286132812 212.299804688 c 0
 641.536132812 225.994140625 652.3671875 241.958984375 660.241210938 261.168945312 c 0
 668.114257812 280.376953125 672.201171875 301.58984375 672.201171875 325.91796875 c 0
 672.201171875 349.815429688 668.14453125 370.806640625 660.309570312 389.930664062 c 0
 652.366210938 409.315429688 641.537109375 425.27734375 627.291992188 438.969726562 c 0
 613.249023438 452.451171875 595.973632812 463.1875 574.184570312 471.217773438 c 0
468.451171875 705.075195312 m 1
 542.627929688 705.075195312 l 1
 542.627929688 588.524414062 l 1
 468.451171875 588.524414062 l 1
 468.451171875 705.075195312 l 1
315.014648438 688.749023438 m 1
 386.015625 587.815429688 l 1
 325.327148438 545.208984375 l 1
 254.325195312 646.142578125 l 1
 315.014648438 688.749023438 l 1
686.596679688 688.749023438 m 1
 747.286132812 646.145507812 l 1
 676.284179688 545.201171875 l 1
 615.590820312 587.805664062 l 1
 686.596679688 688.749023438 l 1
370.505859375 344.203125 m 1
 394.85546875 348.525390625 419.204101562 352.850585938 443.551757812 357.174804688 c 1
 449.84765625 321.79296875 470.431640625 298.435546875 486.467773438 293.217773438 c 0
 502.505859375 287.999023438 514.015625 290.454101562 526.883789062 300.615234375 c 0
 539.759765625 310.784179688 552.107421875 329.830078125 557.030273438 355.8359375 c 1
 629.913085938 342.064453125 l 1
 622.079101562 300.6953125 602.047851562 265.515625 572.885742188 242.484375 c 0
 543.72265625 219.452148438 503.54296875 209.7265625 458.905273438 224.251953125 c 0
 414.268554688 238.778320312 380.578125 287.600585938 370.505859375 344.203125 c 1
EndSplineSet
EndChar

StartChar: uF1956
Encoding: 989526 989526 76
Width: 1000
Flags: HW
LayerCount: 2
Fore
SplineSet
50 -49.9814453125 m 1
 949.98046875 -49.9814453125 l 1
 949.98046875 850 l 1
 50 850 l 1
 50 -49.9814453125 l 1
210.728515625 621.674804688 m 1
 789.252929688 621.674804688 l 1
 789.252929688 526.328125 l 1
 210.728515625 526.328125 l 1
 210.728515625 621.674804688 l 1
210.728515625 273.689453125 m 1
 789.252929688 273.689453125 l 1
 789.252929688 178.34375 l 1
 210.728515625 178.34375 l 1
 210.728515625 273.689453125 l 1
EndSplineSet
EndChar

StartChar: uF1957
Encoding: 989527 989527 77
Width: 1000
Flags: HW
LayerCount: 2
Fore
SplineSet
50 -49.9814453125 m 1
 949.98046875 -49.9814453125 l 1
 949.98046875 850 l 1
 50 850 l 1
 50 -49.9814453125 l 1
573.358398438 60.462890625 m 0
 573.358398438 19.943359375 540.509765625 -12.9052734375 499.990234375 -12.9052734375 c 0
 459.470703125 -12.9052734375 426.622070312 19.943359375 426.622070312 60.462890625 c 0
 426.622070312 100.983398438 459.470703125 133.830078125 499.990234375 133.830078125 c 0
 540.509765625 133.830078125 573.358398438 100.983398438 573.358398438 60.462890625 c 0
447.06640625 803.596679688 m 1
 552.916015625 803.596679688 l 1
 552.916015625 266.953125 l 1
 447.06640625 266.953125 l 1
 447.06640625 803.596679688 l 1
194.666015625 599.793945312 m 1
 389.061523438 258.578125 l 1
 299.372070312 207.478515625 l 1
 104.973632812 548.697265625 l 1
 194.666015625 599.793945312 l 1
805.317382812 600.708007812 m 1
 895.008789062 549.608398438 l 1
 700.610351562 208.392578125 l 1
 610.920898438 259.489257812 l 1
 805.317382812 600.708007812 l 1
EndSplineSet
EndChar

StartChar: uF1958
Encoding: 989528 989528 78
Width: 1000
Flags: HW
LayerCount: 2
Fore
SplineSet
50 -49.9814453125 m 1
 949.98046875 -49.9814453125 l 1
 949.98046875 850 l 1
 50 850 l 1
 50 -49.9814453125 l 1
76.0859375 594.026367188 m 1
 923.89453125 594.026367188 l 1
 923.89453125 192.948242188 l 1
 817.91796875 192.948242188 l 1
 817.91796875 498.403320312 l 1
 707.197265625 498.403320312 l 1
 707.197265625 192.948242188 l 1
 601.221679688 192.948242188 l 1
 601.221679688 498.403320312 l 1
 398.758789062 498.403320312 l 1
 398.758789062 192.948242188 l 1
 292.783203125 192.948242188 l 1
 292.783203125 498.403320312 l 1
 182.0625 498.403320312 l 1
 182.0625 192.948242188 l 1
 76.0859375 192.948242188 l 1
 76.0859375 594.026367188 l 1
EndSplineSet
EndChar

StartChar: uF1959
Encoding: 989529 989529 79
Width: 1000
Flags: HW
LayerCount: 2
Fore
SplineSet
50 -49.9814453125 m 1
 949.98046875 -49.9814453125 l 1
 949.98046875 850 l 1
 50 850 l 1
 50 -49.9814453125 l 1
501.84375 848.715820312 m 1
 501.840820312 848.72265625 l 1
 531.512695312 849.0078125 562.354492188 846.458984375 592.369140625 839.612304688 c 0
 617.115234375 833.965820312 642.118164062 825.208007812 665.434570312 812.099609375 c 0
 687.518554688 799.68359375 708.524414062 783.103515625 725.896484375 761.305664062 c 0
 742.424804688 740.563476562 755.237304688 715.614257812 762.462890625 686.370117188 c 0
 766.69921875 669.220703125 768.944335938 650.84375 769.025390625 631.274414062 c 0
 769.0703125 619.719726562 768.361328125 607.3515625 766.704101562 594.12890625 c 0
 762.557617188 561.0703125 751.584960938 528.663085938 733.220703125 497.556640625 c 0
 716.701171875 469.578125 695.014648438 444.026367188 669.309570312 420.729492188 c 0
 644.83203125 398.547851562 617.0703125 378.731445312 587.408203125 361.009765625 c 0
 570.365234375 350.830078125 534.869140625 332.694335938 534.869140625 332.694335938 c 1
 534.869140625 209.5546875 l 1
 429.013671875 209.5546875 l 1
 429.013671875 396.39453125 l 1
 437.8203125 399.959960938 446.634765625 403.631835938 455.412109375 407.508789062 c 0
 483.21875 419.791015625 510.049804688 433.400390625 534.913085938 448.529296875 c 0
 559.778320312 463.657226562 581.749023438 479.736328125 600.173828125 496.625976562 c 0
 619.474609375 514.318359375 634.032226562 532.119140625 644.41796875 549.831054688 c 0
 655.798828125 569.243164062 662.030273438 588.29296875 664.4375 607.053710938 c 0
 665.588867188 616.041992188 666.063476562 624.048828125 666.081054688 631.147460938 c 0
 666.1171875 643.155273438 664.880859375 653.510742188 662.852539062 662.443359375 c 0
 659.453125 677.413085938 653.591796875 689.44140625 646.264648438 699.346679688 c 0
 638.435546875 709.93359375 628.2265625 719.029296875 615.805664062 726.653320312 c 0
 602.590820312 734.763671875 587.025390625 741.100585938 569.741210938 745.564453125 c 0
 548.793945312 750.975585938 525.920898438 753.489257812 502.543945312 753.375976562 c 0
 484.668945312 753.290039062 465.732421875 751.678710938 446.2734375 748.443359375 c 0
 418.041992188 743.75 392.067382812 736.208007812 369.5390625 727.560546875 c 0
 347.3203125 719.032226562 330.840820312 710.34765625 320.86328125 704.75390625 c 1
 273.572265625 790.556640625 l 1
 286.676757812 797.685546875 307.818359375 808.217773438 335.762695312 818.350585938 c 0
 363.994140625 828.5859375 396.161132812 837.331054688 431.109375 842.79296875 c 0
 455.243164062 846.56640625 478.953125 848.497070312 501.828125 848.715820312 c 2
 501.84375 848.715820312 l 1
409.254882812 22.990234375 m 0
 409.254882812 63.5048828125 441.737304688 96.3583984375 481.807617188 96.3583984375 c 0
 521.877929688 96.3583984375 554.360351562 63.5048828125 554.360351562 22.990234375 c 0
 554.360351562 -17.5263671875 521.877929688 -50.3779296875 481.807617188 -50.3779296875 c 0
 441.737304688 -50.3779296875 409.254882812 -17.5263671875 409.254882812 22.990234375 c 0
EndSplineSet
EndChar

StartChar: uF195B
Encoding: 989531 989531 80
Width: 1000
Flags: HW
LayerCount: 2
Fore
SplineSet
50 -49.9814453125 m 1
 951.611328125 -49.9814453125 l 1
 951.611328125 850 l 1
 50 850 l 1
 50 -49.9814453125 l 1
77.716796875 823.913085938 m 1
 923.89453125 823.913085938 l 1
 923.89453125 -23.89453125 l 1
 818.114257812 -23.89453125 l 1
 818.114257812 728.53515625 l 1
 553.696289062 728.53515625 l 1
 553.696289062 -23.89453125 l 1
 447.915039062 -23.89453125 l 1
 447.915039062 728.53515625 l 1
 183.497070312 728.53515625 l 1
 183.497070312 -23.89453125 l 1
 77.716796875 -23.89453125 l 1
 77.716796875 823.913085938 l 1
EndSplineSet
EndChar

StartChar: uF195C
Encoding: 989532 989532 81
Width: 1000
Flags: HW
LayerCount: 2
Fore
SplineSet
50 -49.9814453125 m 1
 949.98046875 -49.9814453125 l 1
 949.98046875 850 l 1
 50 850 l 1
 50 -49.9814453125 l 1
499.436523438 754.70703125 m 0
 446.756835938 754.70703125 399.182617188 745.995117188 356.743164062 728.565429688 c 0
 314.3046875 711.138671875 278.271484375 686.705078125 248.631835938 655.270507812 c 0
 218.991210938 623.831054688 196.1328125 586.413085938 180.024414062 543.01171875 c 0
 163.932617188 499.610351562 155.87890625 452.296875 155.87890625 401.036132812 c 0
 155.87890625 349.090820312 163.932617188 301.418945312 180.024414062 258.034179688 c 0
 196.1328125 214.6328125 218.991210938 177.21484375 248.631835938 145.78125 c 0
 278.271484375 114.331054688 314.3046875 89.728515625 356.743164062 71.97265625 c 0
 399.182617188 54.2021484375 446.756835938 45.31640625 499.436523438 45.31640625 c 0
 552.131835938 45.31640625 599.868164062 54.2021484375 642.682617188 71.97265625 c 0
 685.498046875 89.728515625 721.708984375 114.331054688 751.348632812 145.78125 c 0
 780.989257812 177.21484375 803.848632812 214.6328125 819.956054688 258.034179688 c 0
 836.048828125 301.418945312 844.1015625 349.090820312 844.1015625 401.036132812 c 0
 844.1015625 452.296875 836.048828125 499.610351562 819.956054688 543.01171875 c 0
 803.848632812 586.413085938 780.989257812 623.831054688 751.348632812 655.270507812 c 0
 721.708984375 686.705078125 685.498046875 711.138671875 642.682617188 728.565429688 c 0
 599.868164062 745.995117188 552.131835938 754.70703125 499.436523438 754.70703125 c 0
499.272460938 850 m 0
 568.173828125 850 630.602539062 838.9453125 686.58984375 816.8359375 c 0
 742.561523438 794.725585938 789.940429688 763.728515625 828.696289062 723.845703125 c 0
 867.450195312 683.962890625 897.350585938 636.498046875 918.399414062 581.440429688 c 0
 939.448242188 526.380859375 949.98046875 466.333007812 949.98046875 401.313476562 c 0
 949.98046875 335.412109375 939.448242188 274.94140625 918.399414062 219.881835938 c 0
 897.350585938 164.82421875 867.450195312 117.362304688 828.696289062 77.466796875 c 0
 789.940429688 37.587890625 742.561523438 6.3818359375 686.58984375 -16.166015625 c 0
 630.602539062 -38.71484375 568.173828125 -49.9814453125 499.272460938 -49.9814453125 c 0
 430.372070312 -49.9814453125 368.172851562 -38.71484375 312.674804688 -16.166015625 c 0
 257.17578125 6.3818359375 210.040039062 37.587890625 171.28515625 77.466796875 c 0
 132.53125 117.362304688 102.629882812 164.82421875 81.5810546875 219.881835938 c 0
 60.5322265625 274.94140625 50 335.412109375 50 401.313476562 c 0
 50 466.333007812 60.5322265625 526.380859375 81.5810546875 581.440429688 c 0
 102.629882812 636.498046875 132.53125 683.962890625 171.28515625 723.845703125 c 0
 210.040039062 763.728515625 257.17578125 794.725585938 312.674804688 816.8359375 c 0
 368.172851562 838.9453125 430.372070312 850 499.272460938 850 c 0
499.778320312 545.9296875 m 0
 479.040039062 545.9296875 460.306640625 542.342773438 443.594726562 535.169921875 c 0
 426.899414062 528.01171875 412.698242188 517.952148438 401.041015625 505.0234375 c 0
 389.368164062 492.094726562 380.368164062 476.6875 374.026367188 458.833984375 c 0
 367.700195312 440.981445312 364.520507812 421.514648438 364.520507812 400.432617188 c 0
 364.520507812 379.059570312 367.700195312 359.4453125 374.026367188 341.591796875 c 0
 380.368164062 323.73828125 389.368164062 308.348632812 401.041015625 295.41796875 c 0
 412.698242188 282.490234375 426.899414062 272.365234375 443.594726562 265.061523438 c 0
 460.306640625 257.741210938 479.040039062 254.088867188 499.778320312 254.088867188 c 0
 520.516601562 254.088867188 539.315429688 257.741210938 556.158203125 265.061523438 c 0
 573.015625 272.365234375 587.282226562 282.490234375 598.940429688 295.41796875 c 0
 610.612304688 308.348632812 619.61328125 323.73828125 625.955078125 341.591796875 c 0
 632.280273438 359.4453125 635.459960938 379.059570312 635.459960938 400.432617188 c 0
 635.459960938 421.514648438 632.280273438 440.981445312 625.955078125 458.833984375 c 0
 619.61328125 476.6875 610.612304688 492.094726562 598.940429688 505.0234375 c 0
 587.282226562 517.952148438 573.015625 528.01171875 556.158203125 535.169921875 c 0
 539.315429688 542.342773438 520.516601562 545.9296875 499.778320312 545.9296875 c 0
499.598632812 641.30859375 m 0
 536.543945312 641.30859375 570.032226562 635.374023438 600.047851562 623.520507812 c 0
 630.064453125 611.66796875 655.465820312 595.053710938 676.25390625 573.663085938 c 0
 697.0234375 552.271484375 713.068359375 526.822265625 724.350585938 497.294921875 c 0
 735.6484375 467.767578125 741.290039062 435.584960938 741.290039062 400.709960938 c 0
 741.290039062 365.37890625 735.6484375 332.951171875 724.350585938 303.423828125 c 0
 713.068359375 273.8984375 697.0234375 248.447265625 676.25390625 227.056640625 c 0
 655.465820312 205.665039062 630.064453125 188.9375 600.047851562 176.83984375 c 0
 570.032226562 164.758789062 536.543945312 158.709960938 499.598632812 158.709960938 c 0
 462.653320312 158.709960938 429.313476562 164.758789062 399.541015625 176.83984375 c 0
 369.786132812 188.9375 344.514648438 205.665039062 323.727539062 227.056640625 c 0
 302.95703125 248.447265625 286.913085938 273.8984375 275.630859375 303.423828125 c 0
 264.33203125 332.951171875 258.69140625 365.37890625 258.69140625 400.709960938 c 0
 258.69140625 435.584960938 264.33203125 467.767578125 275.630859375 497.294921875 c 0
 286.913085938 526.822265625 302.95703125 552.271484375 323.727539062 573.663085938 c 0
 344.514648438 595.053710938 369.786132812 611.66796875 399.541015625 623.520507812 c 0
 429.313476562 635.374023438 462.653320312 641.30859375 499.598632812 641.30859375 c 0
EndSplineSet
EndChar

StartChar: uF195D
Encoding: 989533 989533 82
Width: 1000
Flags: HW
LayerCount: 2
Fore
SplineSet
50 -49.9814453125 m 1
 949.98046875 -49.9814453125 l 1
 949.98046875 850 l 1
 50 850 l 1
 50 -49.9814453125 l 1
77.716796875 207.622070312 m 1
 77.716796875 302.185546875 l 1
 379.340820312 302.185546875 l 1
 379.340820312 207.622070312 l 1
 77.716796875 207.622070312 l 1
620.639648438 207.622070312 m 1
 620.639648438 302.185546875 l 1
 923.89453125 302.185546875 l 1
 923.89453125 207.622070312 l 1
 620.639648438 207.622070312 l 1
447.817382812 383.705078125 m 1
 447.817382812 672.286132812 l 1
 553.793945312 672.286132812 l 1
 553.793945312 383.705078125 l 1
 447.817382812 383.705078125 l 1
EndSplineSet
EndChar

StartChar: uF195E
Encoding: 989534 989534 83
Width: 1000
Flags: HW
LayerCount: 2
Fore
SplineSet
50 850 m 1
 50 -49.9814453125 l 1
 949.979492188 -49.9814453125 l 1
 949.979492188 850 l 1
 50 850 l 1
499.842773438 377.151367188 m 0
 476.33203125 377.151367188 455.119140625 373.157226562 436.19140625 365.151367188 c 0
 417.26171875 357.145507812 401.1875 345.9453125 387.963867188 331.516601562 c 0
 374.741210938 317.0703125 364.53515625 299.90234375 357.360351562 279.978515625 c 0
 350.171875 260.055664062 346.587890625 238.338867188 346.587890625 214.796875 c 0
 346.587890625 190.959960938 350.171875 169.080078125 357.360351562 149.155273438 c 0
 364.53515625 129.232421875 374.741210938 112.063476562 387.963867188 97.6357421875 c 0
 401.1875 83.20703125 417.26171875 71.9072265625 436.19140625 63.7548828125 c 0
 455.119140625 55.603515625 476.33203125 51.5107421875 499.842773438 51.5107421875 c 0
 523.336914062 51.5107421875 544.64453125 55.603515625 563.736328125 63.7548828125 c 0
 582.829101562 71.9072265625 598.986328125 83.20703125 612.208984375 97.6357421875 c 0
 625.432617188 112.063476562 635.638671875 129.232421875 642.811523438 149.155273438 c 0
 649.985351562 169.080078125 653.588867188 190.959960938 653.588867188 214.796875 c 0
 653.588867188 238.338867188 649.985351562 260.055664062 642.811523438 279.978515625 c 0
 635.638671875 299.90234375 625.432617188 317.0703125 612.208984375 331.516601562 c 0
 598.986328125 345.9453125 582.829101562 357.145507812 563.736328125 365.151367188 c 0
 544.64453125 373.157226562 523.336914062 377.151367188 499.842773438 377.151367188 c 0
458.659179688 849.641601562 m 1
 540.9765625 792.903320312 l 1
 525.276367188 770.240234375 498.994140625 731.126953125 472.418945312 683.161132812 c 0
 445.174804688 633.987304688 419.887695312 579.728515625 399.34375 519.435546875 c 0
 389.040039062 489.208007812 380.578125 459.404296875 373.682617188 430.041015625 c 2
 369.801757812 409.44921875 l 1
 390.736328125 428.590820312 l 2
 402.8984375 437.443359375 416.137695312 445.025390625 430.451171875 451.350585938 c 0
 459.08203125 463.970703125 491.16796875 470.295898438 526.7109375 470.295898438 c 0
 562.254882812 470.295898438 594.455078125 463.970703125 623.329101562 451.350585938 c 0
 652.219726562 438.71484375 676.641601562 421.008789062 696.647460938 398.232421875 c 0
 716.635742188 375.438476562 732.059570312 348.325195312 742.91796875 316.875 c 0
 753.77734375 285.423828125 759.206054688 251.120117188 759.206054688 213.981445312 c 2
 759.189453125 213.817382812 l 1
 759.271484375 213.231445312 l 1
 758.912109375 210.393554688 l 1
 754.657226562 159.8359375 l 2
 751.640625 142.568359375 747.091796875 126.0703125 741.02734375 110.3359375 c 0
 728.913085938 78.8857421875 711.6953125 51.7724609375 689.392578125 28.99609375 c 0
 667.088867188 6.2021484375 639.827148438 -11.6171875 607.594726562 -24.498046875 c 0
 575.37890625 -37.376953125 539.444335938 -43.8173828125 499.79296875 -43.8173828125 c 0
 460.125 -43.8173828125 424.321289062 -37.376953125 392.3828125 -24.498046875 c 0
 360.443359375 -11.6171875 333.307617188 6.2021484375 311.000976562 28.99609375 c 0
 288.694335938 51.7724609375 271.481445312 78.8857421875 259.364257812 110.3359375 c 0
 253.306640625 126.0703125 248.762695312 142.568359375 245.732421875 159.8359375 c 2
 241.25 213.231445312 l 1
 241.2890625 213.524414062 l 1
 240.8046875 213.540039062 l 1
 241.896484375 244.84375 244.70703125 297.114257812 253.991210938 358.271484375 c 0
 263.491210938 420.877929688 278.622070312 485.751953125 302.032226562 552.58203125 c 0
 325.365234375 619.18359375 353.775390625 678.676757812 383.854492188 731.975585938 c 0
 413.12109375 783.805664062 441.81640625 825.771484375 458.659179688 849.641601562 c 1
EndSplineSet
EndChar

